<?xml version="1.0" encoding="UTF-8" standalone="no"?>
<!-- Created with Inkscape (http://www.inkscape.org/) -->

<svg
   xmlns:dc="http://purl.org/dc/elements/1.1/"
   xmlns:cc="http://creativecommons.org/ns#"
   xmlns:rdf="http://www.w3.org/1999/02/22-rdf-syntax-ns#"
   xmlns:svg="http://www.w3.org/2000/svg"
   xmlns="http://www.w3.org/2000/svg"
   xmlns:sodipodi="http://sodipodi.sourceforge.net/DTD/sodipodi-0.dtd"
   xmlns:inkscape="http://www.inkscape.org/namespaces/inkscape"
   width="50"
   height="50"
   viewBox="0 0 13.229166 13.229167"
   version="1.1"
   id="svg102"
   inkscape:version="0.92.3 (2405546, 2018-03-11)">
  <defs
     id="defs96" />
  <sodipodi:namedview
     id="base"
     pagecolor="#ffffff"
     bordercolor="#666666"
     borderopacity="1.0"
     inkscape:pageopacity="0.0"
     inkscape:pageshadow="2"
     inkscape:zoom="9.49375"
     inkscape:cx="26.133311"
     inkscape:cy="17.149794"
     inkscape:document-units="mm"
     inkscape:current-layer="layer1"
     showgrid="false"
     units="px"
     inkscape:window-width="1920"
     inkscape:window-height="1017"
     inkscape:window-x="1912"
     inkscape:window-y="-5"
     inkscape:window-maximized="1" />
  <metadata
     id="metadata99">
    <rdf:RDF>
      <cc:Work
         rdf:about="">
        <dc:format>image/svg+xml</dc:format>
        <dc:type
           rdf:resource="http://purl.org/dc/dcmitype/StillImage" />
        <dc:title></dc:title>
      </cc:Work>
    </rdf:RDF>
  </metadata>
  <g
     inkscape:label="Layer 1"
     inkscape:groupmode="layer"
     id="layer1"
     transform="translate(0,-283.77082)">
    <path
       style="fill:#000000;stroke-width:0.01998681"
       d="m 7.1029642,283.77173 c -0.13765,0.002 -0.26539,0.007 -0.371203,0.0154 -0.552132,0.0439 -1.0933584,0.1331 -1.579988,0.26029 -0.8613087,0.2251 -1.5930087,0.68947 -2.1631514,1.37352 -0.4617164,0.55395 -0.7422568,1.12334 -0.9539949,1.93545 -0.1781863,0.68343 -0.1864784,0.99517 -0.045029,1.67883 0.084839,0.41005 0.084291,0.58302 -0.00212,0.80354 -0.07584,0.19322 -0.2638346,0.5116 -0.4337976,0.73544 -0.3971581,0.52307 -0.5442109,0.83927 -0.4883468,1.04955 0.036909,0.13894 0.1864995,0.27213 0.4100063,0.36498 0.2570348,0.10678 0.3816244,0.18359 0.4499081,0.27785 0.07775,0.10733 0.080907,0.24732 0.00989,0.45613 -0.052911,0.15557 -0.063357,0.27753 -0.029287,0.34119 0.011351,0.0212 0.053959,0.0564 0.094811,0.078 0.1362075,0.072 0.1338712,0.0647 0.066262,0.1845 -0.065992,0.11694 -0.081055,0.24169 -0.038804,0.32215 0.012594,0.024 0.078666,0.10312 0.1467962,0.17572 0.1894628,0.20189 0.2065443,0.32011 0.1178798,0.81562 -0.089225,0.49861 -0.070628,0.73372 0.070284,0.88151 0.1308259,0.13721 0.1644332,0.1414 1.2508865,0.15266 1.096915,0.0114 1.1226669,0.0147 1.2607688,0.15375 0.1450419,0.14609 0.1837478,0.31235 0.2189162,0.93752 l 0.013176,0.23466 h 3.0560117 c 1.680802,0 3.0569909,-0.007 3.0582079,-0.015 0.0064,-0.0434 -0.01244,-0.14522 -0.08237,-0.44442 -0.09257,-0.39619 -0.263215,-1.25189 -0.319585,-1.60233 -0.170574,-1.06039 -0.124701,-1.89061 0.144235,-2.605 0.03311,-0.0879 0.153176,-0.3534 0.266505,-0.58975 0.220516,-0.45988 0.315663,-0.68881 0.444785,-1.06931 0.32358,-0.95357 0.474655,-1.71524 0.497864,-2.51019 0.03774,-1.29291 -0.309832,-2.25927 -1.092375,-3.03625 -0.690832,-0.68592 -1.6377309,-1.12705 -2.7891419,-1.29957 -0.272129,-0.0408 -0.774975,-0.0623 -1.187921,-0.0564 z m -0.131786,2.58378 c 0.07051,-0.002 0.135882,0.0406 0.164732,0.11311 0.01614,0.0407 0.02088,0.0997 0.02088,0.26944 v 0.21708 l 0.109823,0.008 c 0.06042,0.005 0.174109,0.0227 0.25296,0.0399 0.929852,0.20261 1.686761,0.88241 1.996218,1.79341 0.05239,0.15423 0.105889,0.39256 0.122269,0.54509 l 0.0084,0.0809 h 0.250032 c 0.2826988,0 0.3007458,0.005 0.3503338,0.0933 0.05198,0.0931 0.01074,0.20615 -0.09005,0.24674 -0.04088,0.0165 -0.10002,0.0209 -0.2822468,0.0209 h -0.230624 v 0.0483 c -5e-6,0.0872 -0.04946,0.35649 -0.09445,0.5136 -0.130743,0.45652 -0.369731,0.85028 -0.727762,1.19927 -0.439254,0.42816 -0.967605,0.6766 -1.590239,0.74753 l -0.07285,0.008 -0.004,0.24088 c -0.0037,0.21329 -0.0073,0.24615 -0.03002,0.28481 -0.04897,0.0834 -0.150839,0.11306 -0.234654,0.0681 -0.08581,-0.046 -0.09215,-0.0696 -0.09225,-0.34631 v -0.24783 l -0.04173,-0.006 c -0.261485,-0.0391 -0.344712,-0.0554 -0.4711404,-0.0919 -0.5248196,-0.15157 -0.9805458,-0.4528 -1.3413079,-0.88664 -0.2347039,-0.28225 -0.4119403,-0.61766 -0.5128736,-0.9701 -0.04499,-0.15711 -0.094811,-0.42602 -0.094813,-0.51324 v -0.0487 l -0.2339234,-2.7e-4 c -0.2018745,-2.6e-4 -0.2412207,-0.003 -0.2873719,-0.0245 -0.097613,-0.0446 -0.1332522,-0.15031 -0.081635,-0.24271 0.049591,-0.0888 0.068001,-0.0933 0.3507026,-0.0933 h 0.2500273 l 0.00841,-0.0809 c 0.053517,-0.49844 0.2800165,-1.02454 0.6131799,-1.42403 0.4351311,-0.52177 1.0595477,-0.86771 1.7143354,-0.95034 l 0.121539,-0.0154 0.0066,-0.24491 c 0.0072,-0.27625 0.01291,-0.29467 0.1025,-0.33533 0.02342,-0.0106 0.04752,-0.016 0.07102,-0.0165 z m -0.210498,0.96461 c -0.0649,0 -0.323987,0.0489 -0.4436846,0.0838 -0.6000062,0.17523 -1.1155813,0.61047 -1.3910919,1.17401 -0.1075108,0.21991 -0.1962229,0.52427 -0.2244063,0.7706 l -0.00841,0.0743 h 0.5198295 0.5198296 l 0.044297,0.0392 c 0.1060185,0.0937 0.083489,0.24976 -0.043564,0.30091 -0.04445,0.0179 -0.120994,0.0209 -0.5450893,0.0209 H 4.6949145 v 0.0436 c 0,0.077 0.052509,0.35683 0.091884,0.49018 0.2470812,0.83677 0.9748044,1.46977 1.8314857,1.59353 0.141226,0.0204 0.159258,0.0223 0.16986,0.0172 0.0053,-0.003 0.0095,-0.24003 0.0095,-0.52751 v -0.52349 l 0.04869,-0.0491 c 0.06351,-0.0639 0.120613,-0.0752 0.199146,-0.0403 0.105931,0.0471 0.104431,0.0374 0.108725,0.63185 l 0.0037,0.51983 0.0604,-0.008 c 0.49044,-0.0636 0.822759,-0.19219 1.168885,-0.4521 0.501994,-0.37696 0.835038,-0.97606 0.893228,-1.60598 l 0.0084,-0.0897 -0.517999,-7.9e-4 c -0.480428,-2.7e-4 -0.521853,-0.002 -0.571447,-0.0245 -0.113146,-0.0517 -0.134882,-0.2023 -0.0421,-0.29177 l 0.03953,-0.0381 0.545089,-0.004 0.54509,-0.004 -0.0084,-0.0736 c -0.06133,-0.53631 -0.302464,-1.0299 -0.682366,-1.39732 -0.335576,-0.32455 -0.732052,-0.52568 -1.193776,-0.60549 -0.08004,-0.0138 -0.167913,-0.0253 -0.19512,-0.0253 h -0.04942 l -0.0037,0.52569 c -0.0037,0.52225 -0.0042,0.52608 -0.03331,0.57327 -0.06352,0.10278 -0.201377,0.11048 -0.28371,0.0161 l -0.03953,-0.0454 v -0.53483 -0.53485 z"
       id="path49"
       inkscape:connector-curvature="0" />
  </g>
</svg>
