<?xml version="1.0" encoding="UTF-8" standalone="no"?>
<!-- Created with Inkscape (http://www.inkscape.org/) -->

<svg
   xmlns:dc="http://purl.org/dc/elements/1.1/"
   xmlns:cc="http://creativecommons.org/ns#"
   xmlns:rdf="http://www.w3.org/1999/02/22-rdf-syntax-ns#"
   xmlns:svg="http://www.w3.org/2000/svg"
   xmlns="http://www.w3.org/2000/svg"
   xmlns:sodipodi="http://sodipodi.sourceforge.net/DTD/sodipodi-0.dtd"
   xmlns:inkscape="http://www.inkscape.org/namespaces/inkscape"
   width="48"
   height="48"
   viewBox="0 0 12.7 12.7"
   version="1.1"
   id="svg833"
   inkscape:version="0.92.3 (2405546, 2018-03-11)"
   sodipodi:docname="bow.svg">
  <defs
     id="defs827" />
  <sodipodi:namedview
     id="base"
     pagecolor="#ffffff"
     bordercolor="#666666"
     borderopacity="1.0"
     inkscape:pageopacity="0.0"
     inkscape:pageshadow="2"
     inkscape:zoom="7.919596"
     inkscape:cx="9.7132584"
     inkscape:cy="25.250833"
     inkscape:document-units="mm"
     inkscape:current-layer="layer1"
     showgrid="false"
     units="px"
     inkscape:window-width="1920"
     inkscape:window-height="1017"
     inkscape:window-x="1912"
     inkscape:window-y="-5"
     inkscape:window-maximized="1" />
  <metadata
     id="metadata830">
    <rdf:RDF>
      <cc:Work
         rdf:about="">
        <dc:format>image/svg+xml</dc:format>
        <dc:type
           rdf:resource="http://purl.org/dc/dcmitype/StillImage" />
        <dc:title></dc:title>
      </cc:Work>
    </rdf:RDF>
  </metadata>
  <g
     inkscape:label="Layer 1"
     inkscape:groupmode="layer"
     id="layer1"
     transform="translate(0,-284.3)">
    <path
       style="fill:#000000;stroke-width:0.02664774"
       d="m 4.9653508,296.99987 c 0,-0.006 0.033242,-0.0914 0.07387,-0.18984 0.0432,-0.10471 0.065188,-0.19166 0.052955,-0.2094 -0.096452,-0.13999 -3.0886122,-4.81321 -3.0886122,-4.82386 0,-0.008 0.2061886,-0.014 0.4581971,-0.014 h 0.4581936 l 1.4056687,2.18973 c 0.7731161,1.20436 1.4265323,2.21872 1.4520322,2.25413 l 0.046365,0.0644 0.2613336,-0.0966 c 0.3882265,-0.14348 0.5816933,-0.23356 0.8655145,-0.40301 1.0523313,-0.62828 1.8735178,-1.6781 2.3196295,-2.96545 0.099204,-0.28627 0.1976875,-0.68128 0.260099,-1.04322 l 0.051654,-0.29958 0.6533352,-0.008 0.653335,-0.008 v 0.0899 c 0,0.16148 -0.125613,0.79356 -0.228119,1.14785 -0.57788,1.99741 -1.9957594,3.48408 -3.6918905,3.87103 -0.3200894,0.073 -0.9528718,0.10537 -1.2195597,0.0623 l -0.1742236,-0.0281 -0.3048895,0.20977 c -0.167689,0.11538 -0.3048895,0.20493 -0.3048895,0.199 z m 6.4462412,-5.634 v -0.43044 H 6.8251559 2.2387205 l -0.130378,0.19972 -0.1303781,0.19972 -0.98898041,-6.4e-4 L 3.5857411e-6,291.33323 0.21141779,291.113 c 0.1162794,-0.12112 0.2618789,-0.27478 0.3235568,-0.34147 l 0.1121409,-0.12126 -0.1121409,-0.12126 c -0.061678,-0.0667 -0.2072774,-0.22035 -0.3235568,-0.34148 L 3.5857411e-6,289.96731 0.98898399,289.96667 l 0.98898041,-6.4e-4 0.1303781,0.19972 0.130378,0.19971 h 4.5857884 4.5857871 l 0.0069,-0.42676 0.0069,-0.42677 0.634402,0.55424 c 0.34892,0.30483 0.637604,0.56526 0.641522,0.57873 0.0057,0.0195 -0.664217,0.62084 -1.193281,1.07112 l -0.09509,0.0809 z m -1.8253247,-1.536 c -0.00627,-0.0118 -0.030003,-0.13695 -0.052781,-0.27818 -0.2784516,-1.72644 -1.2369737,-3.21953 -2.5826155,-4.02293 -0.2838212,-0.16946 -0.477288,-0.25954 -0.8655147,-0.40301 l -0.2613336,-0.0966 -0.046365,0.0644 c -0.0255,0.0354 -0.678916,1.04977 -1.4520321,2.25413 l -1.4056687,2.18974 H 2.461761 c -0.2520085,0 -0.458197,-0.006 -0.458197,-0.0139 0,-0.0107 2.9921599,-4.68388 3.0886121,-4.82386 0.012226,-0.0177 -0.00977,-0.1047 -0.052955,-0.20941 -0.040628,-0.0985 -0.07387,-0.18391 -0.07387,-0.18984 0,-0.006 0.1372005,0.0836 0.3048895,0.19899 l 0.3048895,0.20978 0.1742236,-0.0281 c 0.2666879,-0.043 0.899471,-0.0107 1.2195597,0.0623 0.7616743,0.17377 1.5163585,0.5966 2.1438306,1.20114 0.8399882,0.80929 1.477219,2.06433 1.712304,3.3724 0.03513,0.19549 0.06387,0.39568 0.06387,0.44488 v 0.0894 h -0.645641 c -0.3551037,0 -0.6507592,-0.01 -0.6570113,-0.0214 z"
       id="path4570"
       inkscape:connector-curvature="0"
       inkscape:export-xdpi="96"
       inkscape:export-ydpi="96" />
  </g>
</svg>
