<?xml version="1.0" encoding="UTF-8" standalone="no"?>
<!-- Created with Inkscape (http://www.inkscape.org/) -->

<svg
   xmlns:dc="http://purl.org/dc/elements/1.1/"
   xmlns:cc="http://creativecommons.org/ns#"
   xmlns:rdf="http://www.w3.org/1999/02/22-rdf-syntax-ns#"
   xmlns:svg="http://www.w3.org/2000/svg"
   xmlns="http://www.w3.org/2000/svg"
   xmlns:sodipodi="http://sodipodi.sourceforge.net/DTD/sodipodi-0.dtd"
   xmlns:inkscape="http://www.inkscape.org/namespaces/inkscape"
   width="50"
   height="50"
   viewBox="0 0 13.229167 13.229167"
   version="1.1"
   id="svg3760"
   inkscape:version="0.92.3 (2405546, 2018-03-11)">
  <defs
     id="defs3754" />
  <sodipodi:namedview
     id="base"
     pagecolor="#ffffff"
     bordercolor="#666666"
     borderopacity="1.0"
     inkscape:pageopacity="0.0"
     inkscape:pageshadow="2"
     inkscape:zoom="4.746875"
     inkscape:cx="10.697425"
     inkscape:cy="24.127314"
     inkscape:document-units="mm"
     inkscape:current-layer="layer1"
     showgrid="false"
     units="px"
     inkscape:window-width="1920"
     inkscape:window-height="1017"
     inkscape:window-x="1912"
     inkscape:window-y="-5"
     inkscape:window-maximized="1" />
  <metadata
     id="metadata3757">
    <rdf:RDF>
      <cc:Work
         rdf:about="">
        <dc:format>image/svg+xml</dc:format>
        <dc:type
           rdf:resource="http://purl.org/dc/dcmitype/StillImage" />
        <dc:title></dc:title>
      </cc:Work>
    </rdf:RDF>
  </metadata>
  <g
     inkscape:label="Layer 1"
     inkscape:groupmode="layer"
     id="layer1"
     transform="translate(0,-283.77082)">
    <path
       style="fill:#000000;stroke-width:0.0352269"
       d="m 1.1082435,296.58099 v -0.28182 l -0.37023999,-0.002 c 1.50351999,-0.002 0.89017999,-0.003 0.73053999,-0.0649 -0.22666,-0.0887 -0.45303,-0.2519 -0.64407999,-0.46438 -0.40761,-0.45337 -0.31722,-1.03189 0.20963999,-1.34119 0.27997,-0.1644 0.36724,-0.25392 0.36724,-0.37686 0,-0.16857 -0.0957,-0.245 -0.40429999,-0.3231 -0.57577,-0.14568 -0.87345,-0.47715 -0.97328,-1.08372 -0.0989,-0.60101 0.11521,-1.21991 0.5665,-1.63774 0.41889999,-0.38784 0.92081999,-0.60504 1.39231999,-0.60252 0.45747,0.002 0.84785,0.19109 1.03919,0.50221 0.0484,0.0788 0.10352,0.14362 0.1224,0.14414 0.0603,0.002 0.5117,-0.18529 0.5117,-0.21196 0,-0.0141 -0.0646,-0.12231 -0.14345,-0.24044 -0.35218,-0.52739 -0.91818,-0.7992 -1.61165,-0.77395 -0.38056,0.0139 -0.36251,0.026 -0.5553,-0.37552 -0.14926,-0.31092 -0.24253,-0.81804 -0.21201,-1.1528 0.071,-0.77923 0.63676,-1.40486 1.39513,-1.5429 0.39681,-0.0722 1.01236,0.011 1.28914,0.17429 0.11202,0.0661 0.12294,0.0673 0.10605,0.0118 -0.11697,-0.38565 -0.13534,-0.92005 -0.044,-1.27724 0.17575,-0.68694 0.70364,-1.32271 1.35256,-1.6289 0.28864,-0.13622 0.42057,-0.15029 0.7981,-0.0851 0.9262,0.15993 1.48035,0.84084 1.5598,1.91657 0.0117,0.15984 0.0356,0.29062 0.0529,0.29062 0.0174,0 0.0904,-0.0301 0.16252,-0.0669 0.17988,-0.0918 0.58294,-0.20583 0.81979,-0.23198 0.27154,-0.03 0.66681,0.0579 0.90578,0.20137 0.5528195,0.3319 0.7758895,1.05404 0.5169995,1.67366 -0.0475,0.11376 -0.05,0.11474 -0.2906995,0.11474 -0.4713,0 -0.96773,0.17801 -1.29069,0.4628 -0.30505,0.26902 -0.58376,0.80539 -0.58376,1.12344 v 0.0993 l 0.28123,0.0115 0.28123,0.0115 0.0373,-0.18024 c 0.0807,-0.38992 0.36001,-0.70481 0.76411,-0.86163 0.28939,-0.11231 0.8895695,-0.11368 1.1752195,-0.003 0.50141,0.19484 0.77959,0.65923 0.8313,1.38773 0.0293,0.41315 0.0512,0.43785 0.4611,0.52007 0.44004,0.0883 0.8155,0.27294 1.06654,0.52457 0.36832,0.36917 0.50595,0.85499 0.42615,1.50432 -0.12269,0.99833 -0.54952,1.46185 -1.45402,1.57898 -0.2979,0.0386 -0.37199,0.0605 -0.42465,0.12549 -0.12979,0.1603 -0.0675,0.3487 0.15227,0.46084 0.45598,0.23262 0.71112,0.6894 0.57871,1.03609 -0.11342,0.29699 -0.4466,0.51565 -0.91548,0.6008 -0.219,0.0398 -0.67043,0.0456 0.85451,0.0484 l -0.15888,0.003 v 0.28182 0.28181 h -5.3657595 -5.36576 z m 4.23614,-0.30824 c 0,-0.0146 -0.3125,-0.28669 -0.69155,-0.6048 l -0.68915,-0.57838 0.0224,-0.24945 c 0.0544,-0.60461 0.0647,-1.29288 0.0252,-1.69351 -0.0227,-0.23236 -0.0543,-0.43518 -0.0697,-0.4507 -0.0612,-0.0612 -0.38353,1.01857 -0.44466,1.48965 -0.0139,0.10656 -0.0356,0.21302 -0.0484,0.23657 -0.0139,0.026 -0.29298,-0.29765 -0.70803,-0.82154 -0.58806,-0.74221 -0.81011,-1.00687 -0.73284,-0.87358 0.11839,0.20431 1.16326,2.10861 1.17791,2.14682 0.0152,0.0396 -0.0117,0.0516 -0.11612,0.0521 -0.32353,0.002 -1.35119,0.18859 -1.35119,0.24595 0,0.0627 0.87092,0.21367 1.52586,0.26444 l 0.31055,0.0241 0.35629,0.41937 0.35632,0.41937 h 0.53967 c 0.29682,0 0.53862,-0.0119 0.53733,-0.0264 z m 1.53534,-0.2642 c -0.0113,-0.15984 -0.0601,-1.12953 -0.1082,-2.15486 -0.0551,-1.1743 -0.10183,-1.88149 -0.12622,-1.91084 -0.0211,-0.0256 -0.12499,-0.096 -0.23054,-0.15639 -0.14421,-0.0825 -0.18622,-0.12415 -0.16909,-0.16755 0.0123,-0.0318 0.163,-0.44613 0.33442,-0.92082 l 0.31159,-0.86306 -0.057,-0.78379 c -0.0316,-0.43109 -0.0667,-0.7838 -0.0784,-0.7838 -0.0117,0 -0.0466,0.34058 -0.0776,0.75684 l -0.0562,0.75684 -0.41335,0.76672 c -0.22732,0.4217 -0.42668,0.78129 -0.44299,0.79909 -0.0174,0.019 -0.20693,-0.0756 -0.45881,-0.22897 l -0.4291,-0.26134 -0.30294,-1.00986 c -0.16663,-0.55542 -0.31264,-1.01956 -0.32451,-1.03142 -0.017,-0.0171 0.3358,1.81309 0.40827,2.11726 0.0114,0.0483 0.30721,0.29015 0.81087,0.66327 l 0.79274,0.5873 -0.0183,0.23501 c -0.0101,0.12926 -0.0495,0.9325 -0.0874,1.78499 -0.0379,0.85249 -0.0783,1.67284 -0.0897,1.82299 l -0.0208,0.27301 h 0.42695 0.42699 z m 1.84131,-0.32694 0.2537,-0.61757 0.34338,-0.32475 c 0.63453,-0.60013 1.3423195,-1.36209 1.5954195,-1.71754 l 0.0838,-0.11772 -0.2097,0.11879 c -0.28732,0.16275 -0.8629595,0.54928 -1.2278095,0.82446 -0.16652,0.12559 -0.31663,0.23693 -0.33361,0.24742 -0.017,0.0105 -0.0101,-0.0797 0.0155,-0.20043 0.0256,-0.12072 0.16599,-0.79017 0.31224,-1.48767 0.14627,-0.69749 0.27314,-1.29819 0.28194,-1.33489 0.0564,-0.23524 -0.10005,0.16413 -0.52673,1.34453 -0.26803,0.74154 -0.49782,1.33599 -0.51063,1.32101 -0.0129,-0.015 -0.0749,-0.22541 -0.13797,-0.46759 -0.12341,-0.47375 -0.39106,-1.28901 -0.45839,-1.39622 -0.032,-0.0509 -0.0372,0.10067 -0.023,0.67407 0.0167,0.6738 0.0684,1.19968 0.19929,2.02555 l 0.0419,0.2642 -0.42711,0.71741 c -0.23493,0.39458 -0.42712,0.72351 -0.42712,0.73096 0,0.007 0.20279,0.0136 0.45063,0.0136 h 0.45063 z"
       id="path46"
       inkscape:connector-curvature="0"
       sodipodi:nodetypes="ccccccsccccccscccccccccccsccccscscccccccscccccsscccccccccccccccccccsccccsccccccccccsccccccccccccscccccccccccccsccccccccccsscc" />
  </g>
</svg>
