<?xml version="1.0" encoding="UTF-8" standalone="no"?>
<!-- Created with Inkscape (http://www.inkscape.org/) -->

<svg
   xmlns:dc="http://purl.org/dc/elements/1.1/"
   xmlns:cc="http://creativecommons.org/ns#"
   xmlns:rdf="http://www.w3.org/1999/02/22-rdf-syntax-ns#"
   xmlns:svg="http://www.w3.org/2000/svg"
   xmlns="http://www.w3.org/2000/svg"
   xmlns:sodipodi="http://sodipodi.sourceforge.net/DTD/sodipodi-0.dtd"
   xmlns:inkscape="http://www.inkscape.org/namespaces/inkscape"
   width="200"
   height="200"
   viewBox="0 0 52.916667 52.916667"
   version="1.1"
   id="svg842"
   inkscape:version="0.92.3 (2405546, 2018-03-11)"
   sodipodi:docname="dice..svg">
  <defs
     id="defs836" />
  <sodipodi:namedview
     id="base"
     pagecolor="#ffffff"
     bordercolor="#666666"
     borderopacity="1.0"
     inkscape:pageopacity="0.0"
     inkscape:pageshadow="2"
     inkscape:zoom="0.7"
     inkscape:cx="212.98917"
     inkscape:cy="193.32586"
     inkscape:document-units="mm"
     inkscape:current-layer="layer1"
     showgrid="false"
     inkscape:window-width="1920"
     inkscape:window-height="1017"
     inkscape:window-x="1912"
     inkscape:window-y="-5"
     inkscape:window-maximized="1"
     units="px" />
  <metadata
     id="metadata839">
    <rdf:RDF>
      <cc:Work
         rdf:about="">
        <dc:format>image/svg+xml</dc:format>
        <dc:type
           rdf:resource="http://purl.org/dc/dcmitype/StillImage" />
        <dc:title></dc:title>
      </cc:Work>
    </rdf:RDF>
  </metadata>
  <g
     inkscape:label="Layer 1"
     inkscape:groupmode="layer"
     id="layer1"
     transform="translate(0,-244.08331)">
    <path
       style="fill:#000000;stroke-width:0.13707606"
       d="m 22.735742,294.41626 c -1.564848,-1.38811 -7.113248,-6.30475 -12.329777,-10.92587 -5.2165292,-4.62111 -9.43372117,-8.44774 -9.3715382,-8.50362 0.139889,-0.12569 11.4221352,-4.32128 11.6202422,-4.32128 0.136607,0 12.681133,7.43477 12.893472,7.64157 0.05621,0.0547 0.08658,4.26959 0.0675,9.36629 l -0.03473,9.26674 z m -4.46279,-8.61353 c 0.619147,-0.58039 0.57473,-0.82141 -0.283924,-1.5407 -0.68773,-0.57609 -0.782554,-0.61919 -0.820706,-0.37308 -0.0634,0.40898 -0.619101,0.35773 -0.959502,-0.0885 -0.34882,-0.45725 -0.358687,-0.86412 -0.02412,-0.99486 0.245648,-0.096 0.242071,-0.13397 -0.09132,-0.96986 -0.21783,-0.54616 -0.426039,-0.87016 -0.559386,-0.87049 -0.684431,-0.002 -1.550952,-1.05354 -1.469181,-1.78343 0.03436,-0.30666 0.118616,-0.38121 0.470637,-0.41639 0.242432,-0.0242 0.665443,0.0817 0.973311,0.24359 0.299486,0.15754 0.568397,0.28643 0.59758,0.28643 0.115577,0 -0.0859,-1.47371 -0.226204,-1.65453 -0.255162,-0.32887 -1.331002,-0.72823 -2.004364,-0.74405 -0.748043,-0.0175 -1.096862,0.23519 -1.330049,0.96374 -0.273556,0.85468 0.331243,2.5493 1.261247,3.53394 0.327348,0.34658 0.50099,0.68574 0.57012,1.11354 0.212093,1.31255 1.166919,2.68911 2.25197,3.24664 0.862042,0.44295 1.211684,0.45316 1.643898,0.048 z m 8.995361,1.87476 v -9.32248 l 6.359672,-3.79226 c 3.497822,-2.08575 6.459196,-3.81887 6.580832,-3.8514 0.171476,-0.0459 11.688274,4.13865 11.836316,4.3006 0.03006,0.0329 -23.023535,20.51202 -24.306091,21.59174 l -0.470729,0.39628 z m 8.595586,-1.22959 c 1.203191,-0.0838 1.183588,-0.0678 1.330748,-1.07975 l 0.09368,-0.64417 h -1.095258 c -0.602392,0 -1.095259,-0.0347 -1.095259,-0.0769 0,-0.0698 2.53803,-4.86783 3.327866,-6.29114 l 0.328283,-0.59156 H 37.97157 37.189185 l -2.328107,4.35832 c -1.280458,2.39707 -2.328106,4.39553 -2.328106,4.44101 0,0.08 1.036746,0.0439 3.330924,-0.11577 z M 20.225963,273.16932 c -3.439865,-2.05165 -6.254297,-3.81448 -6.254297,-3.91741 0,-0.20914 12.380269,-25.16283 12.486905,-25.1686 0.05882,-0.003 2.091609,4.05067 10.820558,21.57885 l 1.843841,3.70251 -4.476172,2.66512 c -2.461893,1.46582 -5.306504,3.16118 -6.321353,3.76746 l -1.84519,1.10234 z m 4.342522,-10.43782 v -4.03661 h -0.747248 -0.747248 l -0.265186,0.63791 c -0.335138,0.80618 -0.334085,1.03241 0.0048,1.03241 0.262158,0 0.269981,0.0928 0.269981,3.20144 v 3.20143 h 0.742452 0.742453 z m 3.979203,3.88134 c 0.688115,-0.19699 1.483825,-1.01745 1.674857,-1.72699 0.189199,-0.70271 0.194231,-3.58738 0.0074,-4.28085 -0.176195,-0.65424 -0.859635,-1.47347 -1.436593,-1.72204 -1.022543,-0.44055 -2.263971,-0.0733 -2.968435,0.87805 -0.374694,0.50602 -0.379537,0.53808 -0.421958,2.79158 -0.04188,2.22563 -0.03481,2.29391 0.298195,2.87986 0.631166,1.11052 1.635558,1.52702 2.846474,1.18039 z m -1.414678,-1.89508 c -0.268444,-0.35189 -0.286646,-0.51235 -0.246033,-2.169 0.04892,-1.99545 0.135659,-2.18355 1.006945,-2.18355 0.736089,0 0.859296,0.34373 0.859296,2.39725 0,1.59295 -0.02817,1.8076 -0.269981,2.05693 -0.393569,0.40581 -0.997815,0.36034 -1.350227,-0.10167 z m -27.13254716667,5.37125 3.4e-4,-3.39052 L 5.4228828,261.89634 c 2.982146,-2.64119 8.3021362,-7.35462 11.8222022,-10.47428 3.520062,-3.11966 6.430872,-5.67212 6.468458,-5.67212 0.03759,0 -0.474745,1.08049 -1.138518,2.40108 -0.663777,1.3206 -3.260986,6.53512 -5.771579,11.58782 -2.510592,5.05271 -4.577769,9.20553 -4.593729,9.2285 -0.04271,0.0615 -11.46941917,4.3206 -11.86927217,4.42409 L -1.6666668e-7,273.47963 3.3983333e-4,270.0891 Z M 9.6968468,264.13158 c 0.235161,-0.30174 0.4275662,-0.58157 0.4275662,-0.62185 0,-0.0403 -0.3373622,-0.33589 -0.7496952,-0.6569 -0.6658,-0.51833 -0.727072,-0.60696 -0.547567,-0.79206 0.129628,-0.13365 0.614761,-0.24221 1.3525142,-0.30262 0.940361,-0.077 1.267539,-0.1689 1.792062,-0.50329 0.895816,-0.57108 1.421751,-1.38653 1.496898,-2.32094 0.05193,-0.64569 0.0145,-0.79954 -0.280542,-1.15322 -0.292717,-0.3509 -0.435825,-0.40814 -1.020363,-0.40814 -0.373942,0 -0.736003,0.0626 -0.804582,0.13919 -0.06858,0.0766 -0.157665,0.41089 -0.197973,0.74294 -0.07144,0.58853 -0.06474,0.60154 0.265839,0.51599 0.722406,-0.18696 0.980182,0.66159 0.37629,1.23867 -0.28311,0.27054 -0.521325,0.33615 -1.38366,0.38112 -0.6465382,0.0337 -1.2379762,0.15293 -1.5591702,0.31429 -0.515146,0.2588 -2.047339,1.77455 -2.047339,2.02538 0,0.12741 2.214747,1.94569 2.373504,1.94861 0.04326,8.8e-4 0.271054,-0.24543 0.506218,-0.54717 z m 37.0442012,7.11004 c -3.210982,-1.20466 -5.894432,-2.2499 -5.963225,-2.32276 -0.148213,-0.15698 -11.639711,-23.20011 -11.587763,-23.23616 0.01961,-0.0136 5.366099,4.70431 11.881119,10.48424 l 11.845488,10.50896 v 3.38673 c 0,2.62123 -0.03815,3.38474 -0.16874,3.378 -0.09281,-0.005 -2.795901,-0.99434 -6.006879,-2.19901 z m -2.226355,-6.0039 c 1.26646,-0.7962 1.295911,-2.49722 0.06763,-3.90589 -0.323877,-0.37145 -0.801423,-0.7546 -1.061204,-0.85148 -0.362654,-0.13521 -0.535141,-0.32256 -0.742795,-0.80679 -1.158416,-2.7013 -4.508773,-2.5355 -4.110447,0.20342 0.10557,0.72591 0.725154,1.65332 1.364361,2.0422 0.298212,0.18142 0.466293,0.39053 0.468194,0.58247 0.0089,0.89457 0.965384,2.21201 1.948894,2.68424 0.833176,0.40006 1.485431,0.41642 2.065369,0.0519 z m -1.981997,-1.75304 c -0.444545,-0.3857 -0.570792,-1.09398 -0.253342,-1.42131 0.272409,-0.28089 0.904667,-0.19338 1.261554,0.17462 0.420908,0.43401 0.459981,1.24788 0.07023,1.46296 -0.400724,0.22113 -0.626503,0.17586 -1.078447,-0.21627 z m -2.087271,-3.10186 c -0.350806,-0.3997 -0.238167,-0.91192 0.21233,-0.96557 0.458945,-0.0547 0.918052,0.55867 0.69408,0.92722 -0.203124,0.33424 -0.630828,0.35234 -0.90641,0.0384 z"
       id="path4583"
       inkscape:connector-curvature="0" />
  </g>
</svg>
