<?xml version="1.0" encoding="UTF-8" standalone="no"?>
<svg
   xmlns:dc="http://purl.org/dc/elements/1.1/"
   xmlns:cc="http://creativecommons.org/ns#"
   xmlns:rdf="http://www.w3.org/1999/02/22-rdf-syntax-ns#"
   xmlns:svg="http://www.w3.org/2000/svg"
   xmlns="http://www.w3.org/2000/svg"
   id="svg842"
   version="1.1"
   viewBox="0 0 210 297"
   height="297mm"
   width="210mm">
  <defs
     id="defs836" />
  <metadata
     id="metadata839">
    <rdf:RDF>
      <cc:Work
         rdf:about="">
        <dc:format>image/svg+xml</dc:format>
        <dc:type
           rdf:resource="http://purl.org/dc/dcmitype/StillImage" />
        <dc:title></dc:title>
      </cc:Work>
    </rdf:RDF>
  </metadata>
  <g
     id="layer1">
    <path
       id="path4583"
       d="M 105.45499,219.16057 C 101.80041,216.0166 88.842552,204.88078 76.659751,194.41429 64.476954,183.9478 54.628028,175.28077 54.773252,175.15422 c 0.3267,-0.28468 26.675511,-9.78738 27.138174,-9.78738 0.319035,0 29.615804,16.83919 30.111704,17.30759 0.13128,0.12401 0.20221,9.67029 0.15763,21.21395 l -0.0811,20.98848 z m -10.4225,-19.50901 c 1.445971,-1.31454 1.342239,-1.86044 -0.663083,-3.48955 -1.606138,-1.3048 -1.827594,-1.40243 -1.916695,-0.84501 -0.148066,0.9263 -1.445861,0.81022 -2.240841,-0.20043 -0.814644,-1.03565 -0.837687,-1.95717 -0.05634,-2.25329 0.573691,-0.21744 0.565338,-0.30344 -0.213278,-2.19668 -0.508725,-1.23699 -0.994982,-1.97082 -1.306402,-1.97157 -1.598437,-0.004 -3.62213,-2.3862 -3.431159,-4.03934 0.08024,-0.69457 0.277019,-0.86341 1.099135,-0.9431 0.566182,-0.0549 1.554091,0.18491 2.273094,0.55172 0.699426,0.35682 1.327446,0.64876 1.3956,0.64876 0.269923,0 -0.200623,-3.33785 -0.52828,-3.7474 -0.595911,-0.74486 -3.108452,-1.64939 -4.681038,-1.68521 -1.746996,-0.0398 -2.561637,0.53267 -3.106226,2.18279 -0.638869,1.93579 0.773591,5.77396 2.945545,8.00411 0.764495,0.78498 1.170022,1.55314 1.331471,2.52209 0.495326,2.97283 2.725248,6.09064 5.259302,7.35341 2.013231,1.00324 2.829793,1.02636 3.839195,0.1087 z m 21.00797,4.24619 v -21.11472 l 14.85252,-8.58919 c 8.16889,-4.72405 15.08495,-8.64947 15.36902,-8.72315 0.40047,-0.10387 27.29706,9.37376 27.6428,9.74057 0.0702,0.0745 -53.76968,46.45818 -56.76499,48.90367 l -1.09935,0.89755 z m 20.07432,-2.78494 c 2.80996,-0.18976 2.76418,-0.15374 3.10786,-2.44554 l 0.21879,-1.45899 h -2.55789 c -1.40684,0 -2.55789,-0.0784 -2.55789,-0.17428 0,-0.15817 5.92737,-11.02527 7.77197,-14.24895 l 0.76668,-1.33986 h -1.82721 -1.8272 l -5.43711,9.87128 c -2.99041,5.4292 -5.43711,9.95555 -5.43711,10.05857 0,0.18123 2.42124,0.0996 7.77911,-0.26223 z M 99.593597,171.03783 c -8.033539,-4.64683 -14.606426,-8.63952 -14.606426,-8.87264 0,-0.47371 28.913159,-56.99195 29.162199,-57.00504 0.13738,-0.007 4.88479,9.17449 25.27057,48.87451 l 4.30615,8.38593 -10.45375,6.03629 c -5.74956,3.31996 -12.39293,7.15982 -14.76303,8.53301 l -4.3093,2.49672 z m 10.141623,-23.64091 v -9.1426 h -1.74514 -1.74514 l -0.61932,1.44482 c -0.78269,1.82592 -0.78023,2.33833 0.0112,2.33833 0.61225,0 0.63052,0.21017 0.63052,7.25102 v 7.25102 h 1.73394 1.73394 z m 9.29312,8.79095 c 1.60704,-0.44615 3.46536,-2.30445 3.9115,-3.9115 0.44186,-1.59159 0.45361,-8.12514 0.0174,-9.69581 -0.41149,-1.4818 -2.00761,-3.3373 -3.35505,-3.9003 -2.38807,-0.9978 -5.28733,-0.16609 -6.93255,1.98873 -0.87507,1.14612 -0.88638,1.21872 -0.98545,6.32273 -0.0978,5.04088 -0.0813,5.19554 0.69641,6.52267 1.47404,2.51525 3.81972,3.4586 6.64772,2.67348 z m -3.30387,-4.29219 c -0.62693,-0.79701 -0.66944,-1.16046 -0.57459,-4.91264 0.11425,-4.51955 0.31682,-4.94557 2.35164,-4.94557 1.71908,0 2.00682,0.77852 2.00682,5.4296 0,3.6079 -0.0658,4.09405 -0.63052,4.65878 -0.91915,0.91914 -2.33032,0.81614 -3.15335,-0.23017 z m -63.365961,12.16547 7.94e-4,-7.67927 12.662848,-10.87653 c 6.964569,-5.98209 19.388995,-16.65765 27.609835,-23.72345 8.220834,-7.06581 15.018804,-12.84692 15.106584,-12.84692 0.0878,0 -1.10873,2.44722 -2.65892,5.43826 -1.5502,2.99105 -7.615782,14.80155 -13.479076,26.24555 -5.863294,11.444 -10.691027,20.84984 -10.728299,20.90187 -0.09974,0.13924 -26.785939,9.78584 -27.719765,10.02022 l -0.795083,0.19955 7.93e-4,-7.67928 z m 22.645152,-13.49313 c 0.549201,-0.68341 0.998548,-1.31722 0.998548,-1.40846 0,-0.0913 -0.787884,-0.76076 -1.750854,-1.48781 -1.554924,-1.17398 -1.698022,-1.37473 -1.2788,-1.79396 0.302734,-0.30273 1.435725,-0.54859 3.158691,-0.68543 2.19614,-0.17443 2.960238,-0.38254 4.185222,-1.13989 2.092108,-1.29345 3.320388,-3.14041 3.495889,-5.25677 0.121282,-1.46243 0.03387,-1.81089 -0.655185,-2.61196 -0.683617,-0.79475 -1.017834,-0.9244 -2.382978,-0.9244 -0.873313,0 -1.718879,0.14187 -1.879039,0.31526 -0.160155,0.1734 -0.368215,0.93061 -0.462351,1.6827 -0.166849,1.33297 -0.151199,1.36243 0.620847,1.16866 1.687124,-0.42344 2.289138,1.49845 0.878795,2.8055 -0.66118,0.61277 -1.217514,0.76138 -3.23143,0.86321 -1.509938,0.0763 -2.891197,0.34638 -3.64132,0.71185 -1.203085,0.58616 -4.781402,4.01924 -4.781402,4.58733 0,0.28858 5.172371,4.40684 5.543134,4.41345 0.101024,0.002 0.633027,-0.55587 1.182233,-1.23928 z m 86.513859,16.10372 c -7.499,-2.72847 -13.76599,-5.09588 -13.92665,-5.2609 -0.34614,-0.35554 -27.18364,-52.54651 -27.06232,-52.62817 0.0458,-0.0308 12.53211,10.6549 27.74743,23.74602 l 27.66422,23.80203 v 7.67068 c 0,5.93689 -0.0891,7.66621 -0.39408,7.65093 -0.21674,-0.0109 -6.52961,-2.25212 -14.0286,-4.98059 z m -5.19948,-13.59841 c 2.95772,-1.80334 3.0265,-5.65602 0.15794,-8.84655 -0.75639,-0.84129 -1.87166,-1.70912 -2.47836,-1.92851 -0.84695,-0.30626 -1.24978,-0.73059 -1.73474,-1.82734 -2.70539,-6.11824 -10.52989,-5.74271 -9.59963,0.46074 0.24655,1.64414 1.69354,3.74464 3.18636,4.62542 0.69645,0.41092 1.08899,0.88454 1.09343,1.31926 0.0207,2.02613 2.25458,5.01004 4.55149,6.07962 1.94582,0.90609 3.46911,0.94315 4.82351,0.11736 z m -4.6288,-3.9705 c -1.0382,-0.87358 -1.33304,-2.47779 -0.59166,-3.21917 0.63619,-0.63619 2.11278,-0.43797 2.94626,0.39551 0.983,0.983 1.07425,2.82635 0.16403,3.31349 -0.93586,0.50085 -1.46315,0.39831 -2.51863,-0.48983 z m -4.87466,-7.02549 c -0.81928,-0.90528 -0.55622,-2.06541 0.49588,-2.18692 1.07183,-0.1238 2.14404,1.26533 1.62097,2.10007 -0.47438,0.75704 -1.47325,0.79803 -2.11685,0.0868 z"
       style="fill:#000000;stroke-width:0.31526181" />
    <circle
       r="74.66581"
       cy="165.0863"
       cx="114.1488"
       id="path4585"
       style="fill:none;fill-opacity:1;fill-rule:nonzero;stroke:#000000;stroke-width:9.41839027;stroke-linecap:round;stroke-linejoin:miter;stroke-miterlimit:4;stroke-dasharray:none;stroke-dashoffset:0;stroke-opacity:1" />
  </g>
</svg>
