<?xml version="1.0" encoding="UTF-8" standalone="no"?>
<!-- Created with Inkscape (http://www.inkscape.org/) -->

<svg
   xmlns:dc="http://purl.org/dc/elements/1.1/"
   xmlns:cc="http://creativecommons.org/ns#"
   xmlns:rdf="http://www.w3.org/1999/02/22-rdf-syntax-ns#"
   xmlns:svg="http://www.w3.org/2000/svg"
   xmlns="http://www.w3.org/2000/svg"
   xmlns:sodipodi="http://sodipodi.sourceforge.net/DTD/sodipodi-0.dtd"
   xmlns:inkscape="http://www.inkscape.org/namespaces/inkscape"
   width="50"
   height="50"
   viewBox="0 0 13.229166 13.229167"
   version="1.1"
   id="svg4888"
   inkscape:version="0.92.3 (2405546, 2018-03-11)"
   sodipodi:docname="group3.svg">
  <defs
     id="defs4882" />
  <sodipodi:namedview
     id="base"
     pagecolor="#ffffff"
     bordercolor="#666666"
     borderopacity="1.0"
     inkscape:pageopacity="0.0"
     inkscape:pageshadow="2"
     inkscape:zoom="5.6903969"
     inkscape:cx="100.68804"
     inkscape:cy="22.057077"
     inkscape:document-units="mm"
     inkscape:current-layer="layer1"
     showgrid="false"
     units="px"
     inkscape:window-width="1920"
     inkscape:window-height="1017"
     inkscape:window-x="1912"
     inkscape:window-y="-5"
     inkscape:window-maximized="1" />
  <metadata
     id="metadata4885">
    <rdf:RDF>
      <cc:Work
         rdf:about="">
        <dc:format>image/svg+xml</dc:format>
        <dc:type
           rdf:resource="http://purl.org/dc/dcmitype/StillImage" />
        <dc:title />
      </cc:Work>
    </rdf:RDF>
  </metadata>
  <g
     inkscape:label="Layer 1"
     inkscape:groupmode="layer"
     id="layer1"
     transform="translate(0,-283.77082)">
    <path
       style="fill:#000000;fill-opacity:1;fill-rule:nonzero;stroke:none;stroke-width:20.16633987;stroke-linecap:round;stroke-linejoin:miter;stroke-miterlimit:4;stroke-dasharray:none;stroke-dashoffset:0;stroke-opacity:1"
       d="m 6.5785946,283.77085 c -0.047381,10e-4 -0.096591,0.0119 -0.1438142,0.0333 -0.1806655,0.082 -0.1917753,0.11821 -0.2063406,0.6753 l -0.013547,0.49396 -0.244901,0.0313 c -1.3204745,0.16664 -2.5802854,0.86426 -3.4577892,1.91646 -0.671875,0.80564 -1.1280458,1.86691 -1.235972,2.87208 l -0.016642,0.16257 H 0.75520285 c -0.57011093,0 -0.60759974,0.01 -0.70760694,0.18862 -0.10409502,0.18634 -0.03217598,0.39988 0.16465285,0.4898 0.0930725,0.0425 0.17231783,0.0485 0.57942955,0.049 l 0.47208019,10e-4 v 0.098 c 7.9e-6,0.17589 0.099986,0.71798 0.1907169,1.03482 0.2035466,0.71075 0.5615146,1.38686 1.0348331,1.95605 0.72753,0.87489 1.645957,1.48261 2.70433,1.78828 0.2549657,0.0736 0.4231005,0.10661 0.9504283,0.1855 l 0.08441,0.0125 v 0.50021 c 1.826e-4,0.55795 0.012435,0.60539 0.185502,0.69822 0.1690238,0.0907 0.3743722,0.0307 0.4731279,-0.13756 0.045781,-0.078 0.054012,-0.14409 0.061481,-0.57421 l 0.0073,-0.48562 0.146939,-0.0177 c 1.2556331,-0.14305 2.3218616,-0.64347 3.2076833,-1.5069 0.722024,-0.70378 1.203656,-1.49813 1.467319,-2.41876 0.09073,-0.31684 0.190698,-0.85997 0.190709,-1.03586 v -0.0969 h 0.464796 c 0.367488,0 0.486569,-0.01 0.569,-0.0427 0.203271,-0.0818 0.286162,-0.30943 0.181332,-0.49709 -0.1,-0.17901 -0.136459,-0.18862 -0.706565,-0.18862 H 11.97375 l -0.0177,-0.16258 c -0.03303,-0.30758 -0.140287,-0.78839 -0.245946,-1.09942 -0.624067,-1.83713 -2.1505698,-3.2086 -4.0257539,-3.61719 -0.1590146,-0.0346 -0.388792,-0.0709 -0.5106459,-0.0802 l -0.220935,-0.0166 v -0.43769 c 0,-0.34224 -0.010186,-0.46197 -0.042741,-0.54398 -0.058179,-0.14632 -0.1892061,-0.23038 -0.3313959,-0.22719 z m -0.425188,1.9446 h 0.075033 v 0.0202 1.07859 l 0.079203,0.0917 c 0.166034,0.19029 0.444029,0.17495 0.5721244,-0.0323 0.058753,-0.0952 0.060328,-0.10357 0.067744,-1.15675 l 0.0073,-0.002 h 0.1000443 c 0.054864,0 0.231476,0.0231 0.392885,0.0511 0.9311349,0.16094 1.7305814,0.56686 2.407322,1.22136 0.7661327,0.74094 1.2529737,1.73637 1.3766507,2.81789 l 0.01664,0.14798 -0.04112,0.007 -1.099447,0.007 -0.0792,0.0771 c -0.187113,0.18041 -0.1437637,0.48352 0.08441,0.58775 0.100013,0.0457 0.183743,0.0495 1.152597,0.05 l -0.01307,10e-4 -0.0177,0.18133 c -0.117348,1.27031 -0.788461,2.47871 -1.8008044,3.2389 -0.6980132,0.52414 -1.3682556,0.78363 -2.3573052,0.91185 l -0.1219226,0.0146 -0.0073,0.011 c -0.00863,-1.19886 -0.00624,-1.17944 -0.2198926,-1.27451 -0.1583716,-0.0705 -0.2731479,-0.0476 -0.4012168,0.0813 l -0.097962,0.099 v 1.05566 c -5.55e-5,0.57975 -0.00918,2.6e-4 -0.019791,0.006 -0.021405,0.0103 -0.057012,0.006 -0.3418205,-0.0354 -1.7276207,-0.24957 -3.1950395,-1.52541 -3.6933161,-3.21285 -0.079407,-0.26891 -0.185494,-0.83376 -0.185494,-0.98897 v -0.0875 h -0.063101 c 0.8552524,0 1.0098087,-0.007 1.0994496,-0.0427 0.2562225,-0.10316 0.3013419,-0.41766 0.087535,-0.60651 l -0.08962,-0.0792 h -1.0483823 0.00995 l 0.017701,-0.15006 c 0.056833,-0.49674 0.2354712,-1.11033 0.4522813,-1.5538 0.5556092,-1.13646 1.5954164,-2.01431 2.8054247,-2.36769 0.2413767,-0.0705 0.7632621,-0.16882 0.8941462,-0.16882 z"
       id="path4684"
       inkscape:connector-curvature="0"
       sodipodi:nodetypes="sccccsccsccccccccccccccccccccsccsccccccsccscccccccsccccccccccccccccccccccscsccccccccscc" />
    <path
       style="fill:#000000;stroke-width:0.02733291"
       d="m 6.3549095,292.96996 c -0.03007,-0.007 -0.15614,-0.0324 -0.280163,-0.0567 l -0.225497,-0.0442 v -0.31354 c 0,-0.34598 0.02785,-0.44112 0.171008,-0.58428 0.133988,-0.13399 0.236636,-0.16126 0.604485,-0.16059 0.386223,7.2e-4 0.501427,0.038 0.641594,0.2077 0.116772,0.14138 0.144388,0.25921 0.135049,0.57623 l -0.0078,0.26566 -0.163998,0.0517 c -0.158548,0.05 -0.7409,0.0886 -0.874653,0.0581 z m -1.20177,-0.73953 c -0.119782,-0.0216 -0.25508,-0.0489 -0.300663,-0.0607 l -0.08288,-0.0214 -0.0076,-0.31264 c -0.0076,-0.31059 -0.007,-0.31361 0.082,-0.46164 0.140089,-0.23294 0.259289,-0.28167 0.698144,-0.28538 0.305161,-0.003 0.359916,0.004 0.443777,0.0532 0.07828,0.0459 0.09842,0.0765 0.110826,0.16825 0.01541,0.11394 0.141113,0.33592 0.190224,0.33592 0.01482,0 0.02694,0.0159 0.02694,0.0353 0,0.0194 -0.05573,0.0502 -0.123836,0.0684 -0.154833,0.0414 -0.337404,0.21735 -0.410865,0.39593 l -0.05296,0.12874 -0.177664,-0.002 c -0.09772,-10e-4 -0.275668,-0.02 -0.395449,-0.0417 z m 2.373323,0.0233 c -0.0171,-0.0111 -0.05155,-0.0693 -0.07655,-0.12941 -0.07607,-0.18296 -0.326546,-0.39633 -0.465258,-0.39633 -0.06036,0 -0.05187,-0.0648 0.01644,-0.1256 0.07341,-0.0653 0.158745,-0.2481 0.159537,-0.34174 0.001,-0.12189 0.157632,-0.17031 0.555094,-0.17164 0.28834,-9.3e-4 0.348723,0.007 0.443158,0.0566 0.241705,0.12762 0.311234,0.26858 0.333023,0.67516 l 0.01662,0.31016 -0.133824,0.0436 c -0.259615,0.0846 -0.766586,0.13192 -0.84824,0.0792 z m -1.039939,-0.61052 c -0.04788,-0.0139 -0.124451,-0.0626 -0.170164,-0.10831 -0.208654,-0.20865 -0.148182,-0.56588 0.117102,-0.69176 0.281129,-0.13341 0.58604,0.0516 0.611695,0.37122 0.0146,0.18186 -0.06096,0.30781 -0.238433,0.39746 -0.1303,0.0658 -0.183232,0.071 -0.3202,0.0314 z m -2.024006,-0.18943 c -0.108763,-0.0114 -0.290185,-0.0413 -0.40316,-0.0665 l -0.20541,-0.0457 v -0.31355 c 0,-0.25644 0.0097,-0.3325 0.05306,-0.41755 0.06931,-0.13586 0.220093,-0.26628 0.349357,-0.30218 0.109225,-0.0303 0.657422,-0.0401 0.728105,-0.013 0.0327,0.0125 0.03825,0.0448 0.02578,0.15014 -0.0204,0.17226 0.045,0.34967 0.169049,0.45859 l 0.09182,0.0806 -0.08877,0.0167 c -0.159432,0.0299 -0.335756,0.16546 -0.428131,0.32914 -0.04703,0.0833 -0.0874,0.14983 -0.08973,0.14779 -0.0023,-0.002 -0.09321,-0.0131 -0.201975,-0.0245 z m 4.10991,-0.004 c -0.0245,-0.0137 -0.04455,-0.0436 -0.04455,-0.0664 0,-0.0228 -0.06457,-0.10588 -0.143497,-0.18465 -0.103697,-0.1035 -0.179976,-0.1534 -0.275015,-0.17991 l -0.131517,-0.0367 0.08085,-0.0738 c 0.150364,-0.13734 0.215334,-0.35767 0.158213,-0.53655 -0.02508,-0.0785 0.03237,-0.0914 0.410349,-0.0919 0.280492,-3.1e-4 0.315844,0.006 0.450571,0.076 0.105501,0.0551 0.16867,0.11273 0.226933,0.20697 0.07434,0.12024 0.08169,0.15534 0.09269,0.44291 l 0.01195,0.31232 -0.09431,0.0394 c -0.170741,0.0713 -0.669341,0.13326 -0.742662,0.0922 z m -1.499476,-0.48795 c -0.05511,-0.0987 -0.105547,-0.14557 -0.215848,-0.20053 -0.158309,-0.0789 -0.229174,-0.0864 -0.392863,-0.0414 -0.115556,0.0318 -0.341661,0.23809 -0.341661,0.3118 0,0.051 -0.02337,0.0508 -0.148059,-10e-4 l -0.100068,-0.0418 0.0489,-0.0839 c 0.07109,-0.12191 0.209915,-0.23532 0.328314,-0.2682 0.05678,-0.0158 0.233053,-0.0287 0.391708,-0.0288 0.254088,-1.1e-4 0.305018,0.008 0.427402,0.0691 0.179039,0.0892 0.36145,0.34037 0.247621,0.34093 -0.01879,8e-5 -0.06552,0.0165 -0.103847,0.0365 -0.06727,0.0351 -0.07217,0.0319 -0.141596,-0.0924 z m -1.763777,-0.0808 c -0.266981,-0.16278 -0.266981,-0.5755 0,-0.73828 0.119167,-0.0727 0.332327,-0.0727 0.451494,0 0.129193,0.0788 0.197709,0.20669 0.197709,0.36914 0,0.25385 -0.169603,0.42345 -0.423455,0.42345 -0.08826,0 -0.168216,-0.0192 -0.225748,-0.0543 z m 2.185698,0.009 c -0.109626,-0.054 -0.224311,-0.24064 -0.224311,-0.36499 0,-0.11872 0.09042,-0.29943 0.183652,-0.36705 0.04502,-0.0326 0.132291,-0.0574 0.2251,-0.0639 0.167514,-0.0117 0.284859,0.0457 0.39361,0.19248 0.07867,0.1062 0.07944,0.34349 0.0014,0.44884 -0.141518,0.19118 -0.377554,0.25416 -0.579496,0.15464 z m -1.426959,-0.38033 c 0,-0.26957 -0.197762,-0.48324 -0.48934,-0.5287 l -0.12565,-0.0196 0.109331,-0.0321 c 0.06013,-0.0176 0.204656,-0.0321 0.321161,-0.0322 l 0.21183,-1.1e-4 v 0.13937 c 0,0.17294 0.05969,0.30292 0.187456,0.40824 0.08902,0.0734 0.09248,0.0811 0.03656,0.0811 -0.03397,0 -0.104426,0.0178 -0.156559,0.0396 l -0.09479,0.0396 z m 1.024984,0.0559 c -0.0451,-0.0206 -0.112101,-0.0381 -0.148892,-0.0388 -0.06356,-10e-4 -0.06118,-0.007 0.04796,-0.11494 0.125821,-0.12458 0.183736,-0.27851 0.159944,-0.42513 l -0.01458,-0.0898 0.223778,10e-5 c 0.123079,8e-5 0.272978,0.0147 0.33311,0.0324 l 0.109331,0.0323 -0.141974,0.0191 c -0.07808,0.0105 -0.185817,0.0462 -0.239404,0.0793 -0.130368,0.0806 -0.239753,0.27151 -0.243967,0.42587 -0.0018,0.0667 -0.0033,0.12032 -0.0033,0.1192 0,-0.001 -0.0369,-0.019 -0.082,-0.0396 z m -0.663956,-0.13871 c -0.262089,-0.13368 -0.319483,-0.4853 -0.11293,-0.69185 0.279214,-0.27921 0.735886,-0.08 0.735886,0.32097 0,0.1175 -0.07843,0.25389 -0.196127,0.34105 -0.09975,0.0739 -0.311467,0.0887 -0.426829,0.0298 z m -2.783052,-0.0935 c -0.06182,-0.0122 -0.163289,-0.036 -0.225496,-0.0527 l -0.113104,-0.0305 v -0.33593 c 0,-0.32639 0.0023,-0.33938 0.08079,-0.45789 0.13034,-0.19678 0.257871,-0.25119 0.621327,-0.2651 0.385873,-0.0148 0.436342,3.1e-4 0.303318,0.0907 -0.263678,0.17918 -0.281877,0.58903 -0.03644,0.82051 l 0.09398,0.0886 -0.10346,0.0166 c -0.0569,0.009 -0.149023,0.0475 -0.204709,0.0852 -0.106505,0.0723 -0.206517,0.082 -0.416208,0.0405 z m 5.537975,-0.0401 c -0.05261,-0.0383 -0.141789,-0.0771 -0.198163,-0.0862 -0.05637,-0.009 -0.102499,-0.0196 -0.102499,-0.0235 0,-0.004 0.04802,-0.055 0.106705,-0.11366 0.214958,-0.21496 0.208829,-0.51858 -0.01501,-0.74381 -0.06546,-0.0659 -0.119024,-0.12429 -0.119024,-0.12983 0,-0.0249 0.564942,-0.007 0.658115,0.0211 0.142815,0.0428 0.295524,0.17508 0.356133,0.30853 0.03938,0.0867 0.05067,0.1789 0.05114,0.4177 l 6.19e-4,0.30644 -0.143497,0.0434 c -0.07893,0.0239 -0.223447,0.0493 -0.321162,0.0564 -0.158409,0.0115 -0.188032,0.005 -0.273329,-0.0567 z m -1.159842,-0.25048 c -0.1112,-0.12998 -0.279155,-0.22597 -0.398134,-0.22755 -0.06756,-9.3e-4 -0.06732,-0.002 0.02126,-0.0715 0.189211,-0.14911 0.253135,-0.43658 0.144478,-0.64971 l -0.05293,-0.10382 0.294211,0.009 c 0.260377,0.008 0.305731,0.0171 0.394403,0.0775 0.05511,0.0376 0.100277,0.0766 0.100379,0.0867 1.04e-4,0.0101 -0.03838,0.0268 -0.08552,0.0371 -0.121355,0.0267 -0.316346,0.22971 -0.339596,0.35364 -0.03454,0.18412 -1.5e-5,0.36219 0.09256,0.47738 0.06999,0.0871 0.07758,0.10882 0.0427,0.1222 -0.07773,0.0298 -0.105534,0.0154 -0.21381,-0.1112 z m -3.588583,0.0429 c -0.154805,-0.0766 -0.226164,-0.19705 -0.226164,-0.38165 0,-0.18248 0.07645,-0.30456 0.24104,-0.38488 0.204845,-0.1 0.404376,-0.0379 0.5472,0.17027 0.05332,0.0777 0.06209,0.1192 0.05292,0.25034 -0.0089,0.12771 -0.02605,0.1732 -0.09125,0.24253 -0.154844,0.16465 -0.330087,0.19925 -0.523745,0.10339 z m 0.624036,-0.0657 c 0.127951,-0.17817 0.138459,-0.35843 0.03263,-0.55975 -0.06472,-0.12311 -0.103644,-0.16191 -0.219347,-0.21866 -0.07736,-0.0379 -0.137531,-0.0807 -0.133704,-0.0951 0.0038,-0.0144 0.06032,-0.0543 0.12555,-0.0888 0.09926,-0.0525 0.160319,-0.0627 0.374656,-0.0627 h 0.256066 l -0.03805,0.0752 c -0.108891,0.21512 -0.07428,0.43902 0.09651,0.62431 0.09905,0.10745 0.104688,0.12052 0.05204,0.12052 -0.09837,0 -0.322601,0.12986 -0.400449,0.23193 -0.05454,0.0715 -0.09383,0.0961 -0.153725,0.0961 h -0.08045 z m 3.354435,0.0675 c -0.313212,-0.16545 -0.310577,-0.59739 0.0046,-0.75952 0.308014,-0.15842 0.659774,0.0826 0.621115,0.42559 -0.01747,0.15502 -0.08674,0.25003 -0.239013,0.32783 -0.145984,0.0746 -0.253852,0.0763 -0.386735,0.006 z m -2.661681,-0.36571 c -0.180209,-0.0785 -0.285096,-0.28851 -0.246592,-0.49375 0.02385,-0.12713 0.167406,-0.27374 0.309812,-0.31641 0.298519,-0.0894 0.600713,0.19005 0.542278,0.50154 -0.04818,0.25683 -0.359778,0.41565 -0.605498,0.30862 z m 1.368001,-0.0169 c -0.14016,-0.0709 -0.209054,-0.16709 -0.225758,-0.31528 -0.01797,-0.15944 0.0059,-0.23926 0.10569,-0.35287 0.157399,-0.17927 0.40694,-0.19427 0.587944,-0.0353 0.114839,0.10083 0.151276,0.18306 0.151503,0.34193 2.07e-4,0.15536 -0.08639,0.28946 -0.232712,0.3603 -0.147023,0.0712 -0.247785,0.0715 -0.386667,10e-4 z m -0.67876,-0.19805 c 0.0072,-0.0116 0.01301,-0.0872 0.01301,-0.16809 0,-0.1762 -0.07348,-0.33611 -0.199914,-0.43506 l -0.08819,-0.069 0.07906,-0.0198 c 0.108483,-0.0272 0.638563,-0.0297 0.732984,-0.003 l 0.07685,0.0214 -0.123204,0.13703 c -0.131744,0.14653 -0.17613,0.29218 -0.142947,0.46906 l 0.0167,0.089 h -0.188677 c -0.103772,0 -0.182822,-0.009 -0.175667,-0.0211 z m -2.586872,-0.51699 c -0.159256,-0.10825 -0.226023,-0.23167 -0.213026,-0.39378 0.02701,-0.33685 0.367626,-0.51454 0.658423,-0.34348 0.164234,0.0966 0.248382,0.3514 0.174471,0.5283 -0.09694,0.23201 -0.423839,0.34221 -0.619868,0.20896 z m 5.08327,0.002 c -0.143632,-0.0842 -0.200833,-0.17861 -0.212909,-0.35142 -0.01343,-0.19219 0.06084,-0.31488 0.246351,-0.40694 0.169897,-0.0843 0.31419,-0.0631 0.458561,0.0673 0.229249,0.20711 0.188355,0.55579 -0.08132,0.69337 -0.137239,0.07 -0.288749,0.0692 -0.410683,-0.002 z m -3.72838,-0.16161 c -0.115349,-0.0357 -0.258981,-0.18683 -0.291139,-0.30626 -0.05221,-0.19389 0.04802,-0.40974 0.230465,-0.49632 0.290235,-0.13772 0.618436,0.0742 0.618436,0.39938 0,0.27072 -0.295629,0.48443 -0.557762,0.4032 z m 2.524912,-0.0339 c -0.317803,-0.16055 -0.332518,-0.54623 -0.02865,-0.751 0.161915,-0.10912 0.421971,-0.0668 0.544117,0.0884 0.08775,0.11156 0.125464,0.2774 0.09,0.39577 -0.04882,0.16295 -0.269896,0.3283 -0.438934,0.3283 -0.02464,0 -0.09958,-0.0277 -0.166531,-0.0615 z m -1.36924,-0.22383 c -0.264277,-0.17958 -0.240623,-0.60256 0.04117,-0.73628 0.302395,-0.1435 0.628744,0.063 0.628744,0.39775 0,0.32473 -0.395853,0.52476 -0.669917,0.33853 z"
       id="path985"
       inkscape:connector-curvature="0" />
  </g>
</svg>
