<?xml version="1.0" encoding="UTF-8" standalone="no"?>
<!-- Created with Inkscape (http://www.inkscape.org/) -->

<svg
   xmlns:dc="http://purl.org/dc/elements/1.1/"
   xmlns:cc="http://creativecommons.org/ns#"
   xmlns:rdf="http://www.w3.org/1999/02/22-rdf-syntax-ns#"
   xmlns:svg="http://www.w3.org/2000/svg"
   xmlns="http://www.w3.org/2000/svg"
   xmlns:sodipodi="http://sodipodi.sourceforge.net/DTD/sodipodi-0.dtd"
   xmlns:inkscape="http://www.inkscape.org/namespaces/inkscape"
   width="50"
   height="50"
   viewBox="0 0 13.229166 13.229167"
   version="1.1"
   id="svg4888"
   inkscape:version="0.92.3 (2405546, 2018-03-11)">
  <defs
     id="defs4882" />
  <sodipodi:namedview
     id="base"
     pagecolor="#ffffff"
     bordercolor="#666666"
     borderopacity="1.0"
     inkscape:pageopacity="0.0"
     inkscape:pageshadow="2"
     inkscape:zoom="9.49375"
     inkscape:cx="9.8727762"
     inkscape:cy="21.888819"
     inkscape:document-units="mm"
     inkscape:current-layer="layer1"
     showgrid="false"
     units="px"
     inkscape:window-width="1920"
     inkscape:window-height="1017"
     inkscape:window-x="1912"
     inkscape:window-y="-5"
     inkscape:window-maximized="1" />
  <metadata
     id="metadata4885">
    <rdf:RDF>
      <cc:Work
         rdf:about="">
        <dc:format>image/svg+xml</dc:format>
        <dc:type
           rdf:resource="http://purl.org/dc/dcmitype/StillImage" />
        <dc:title></dc:title>
      </cc:Work>
    </rdf:RDF>
  </metadata>
  <g
     inkscape:label="Layer 1"
     inkscape:groupmode="layer"
     id="layer1"
     transform="translate(0,-283.77082)">
    <g
       transform="matrix(0.26458333,0,0,0.26458333,134.90452,193.21613)"
       id="g4920">
      <g
         style="fill:#000000"
         id="g4848">
        <g
           style="fill:#000000"
           id="g4670"
           transform="translate(-97.615673,57.902978)">
          <path
             sodipodi:nodetypes="sscccssscscsscscsccccscscscccsccscscssccccsscccccssssssssssccscsccssssssc"
             inkscape:connector-curvature="0"
             id="path3757"
             d="m -388.20947,319.80914 c -1.1796,-0.0908 -3.28195,-0.48257 -4.38457,-0.8171 l -0.63695,-0.19326 v -2.54128 -2.54126 l 0.38356,-0.80313 c 0.63541,-1.3305 1.71099,-2.22254 3.12336,-2.59042 0.72812,-0.18967 4.23059,-0.22999 5.13172,-0.0592 1.70803,0.32393 3.23338,1.75673 3.67115,3.4484 0.12192,0.4711 0.16374,1.19451 0.16374,2.8321 v 2.19937 l -0.61041,0.23067 c -1.10392,0.41715 -2.50202,0.71835 -3.88161,0.83625 -0.74703,0.0639 -1.4631,0.10932 -1.5913,0.10102 -0.12818,-0.008 -0.7441,-0.0543 -1.36869,-0.10227 z m 8.35241,-3.79475 c -0.0282,-0.0282 -0.0512,-0.46309 -0.0512,-0.96657 0,-0.50349 -0.0731,-1.19625 -0.16254,-1.53948 -0.40211,-1.54381 -1.50941,-2.90503 -2.93515,-3.60818 l -0.81533,-0.40211 0.40952,-0.51809 c 0.45084,-0.57038 0.78233,-1.36176 0.89529,-2.13743 l 0.0734,-0.50424 h 1.61945 c 0.89068,0 1.90289,0.0515 2.24934,0.11467 1.47456,0.26847 2.80552,1.31116 3.47333,2.72105 l 0.3413,0.72056 v 2.53951 2.5395 l -0.8213,0.29791 c -1.26035,0.45718 -4.07325,0.94584 -4.27619,0.7429 z m -16.2968,-0.17758 c -0.90377,-0.14097 -2.81974,-0.59564 -3.33431,-0.79126 l -0.27152,-0.1033 v -2.27556 c 0,-1.93068 0.0303,-2.37293 0.2,-2.91816 0.27818,-0.89382 0.65272,-1.49053 1.31542,-2.09574 1.18145,-1.07892 2.16189,-1.34023 4.84936,-1.29251 l 1.74692,0.031 0.13581,0.67147 c 0.16333,0.80762 0.56588,1.6469 1.01265,2.1113 l 0.32819,0.34117 -0.309,0.11668 c -1.64391,0.62081 -2.94608,1.98009 -3.44767,3.5989 -0.1189,0.38373 -0.24483,1.16343 -0.27987,1.73273 l -0.0636,1.03504 -0.48822,-0.0102 c -0.26851,-0.006 -0.89585,-0.0739 -1.39408,-0.15156 z m 8.18117,-6.05282 c -1.12547,-0.31466 -1.97722,-1.05149 -2.47011,-2.13685 -0.35795,-0.78822 -0.3312,-2.1125 0.059,-2.91828 1.17229,-2.42112 4.29581,-2.88937 6.07484,-0.91067 0.7641,0.84987 1.10554,2.20765 0.83599,3.32443 -0.45738,1.89481 -2.62301,3.16608 -4.49967,2.64137 z m -6.40113,-3.76685 c -1.09518,-0.27628 -2.13164,-1.1774 -2.52913,-2.19887 -0.55829,-1.43468 -0.19231,-3.03416 0.92868,-4.05868 2.16301,-1.97685 5.63077,-0.7654 6.09707,2.12998 l 0.10477,0.65067 -0.52422,0.55429 c -0.57091,0.60364 -1.03416,1.42243 -1.15932,2.04904 -0.0673,0.33695 -0.15531,0.43622 -0.56953,0.64248 -0.55822,0.27798 -1.71226,0.39154 -2.34833,0.23109 z m 12.60786,0.0169 c -0.59865,-0.15698 -0.76449,-0.30484 -0.82187,-0.73267 -0.098,-0.73007 -0.60727,-1.63066 -1.31929,-2.33271 -0.77098,-0.76018 -0.80945,-0.92602 -0.44244,-1.90696 0.31695,-0.84709 1.19137,-1.71626 2.05359,-2.04123 0.52913,-0.19941 0.788,-0.23226 1.53851,-0.1953 1.13064,0.0557 1.75783,0.35262 2.5303,1.19781 2.05142,2.24458 0.56489,5.86647 -2.48319,6.05014 -0.40544,0.0244 -0.88045,0.008 -1.05561,-0.0391 z"
             style="fill:#000000;stroke-width:0.10615769" />
          <path
             sodipodi:nodetypes="sccccsccsccccccccccccccccccccsccsccccccsccscccccccsccccccccccccccccccccccscsccccccccscc"
             inkscape:connector-curvature="0"
             id="rect31"
             d="m -387.3957,284.35113 c -0.17908,0.004 -0.36507,0.045 -0.54355,0.12604 -0.68283,0.30984 -0.72482,0.44679 -0.77987,2.5523 l -0.0512,1.86695 -0.92561,0.11816 c -4.99077,0.62982 -9.75226,3.26648 -13.06881,7.2433 -2.53937,3.04493 -4.26348,7.05604 -4.67139,10.85509 l -0.0629,0.61444 h -1.90634 c -2.15475,0 -2.29644,0.0363 -2.67442,0.71292 -0.39343,0.70426 -0.12161,1.51133 0.62231,1.85119 0.35177,0.16053 0.65128,0.18311 2.18997,0.18513 l 1.78424,0.004 v 0.37024 c 3e-5,0.66478 0.3779,2.71364 0.72082,3.91113 0.76931,2.68631 2.12226,5.24168 3.91118,7.39297 2.74972,3.30667 6.22094,5.60354 10.22109,6.75883 0.96365,0.27831 1.59912,0.40295 3.59217,0.7011 l 0.31903,0.0472 v 1.89058 c 6.9e-4,2.10878 0.047,2.28808 0.70111,2.63892 0.63883,0.34272 1.41495,0.11596 1.7882,-0.5199 0.17303,-0.29465 0.20414,-0.54459 0.23237,-2.17024 l 0.0276,-1.83543 0.55536,-0.0669 c 4.7457,-0.54063 8.77554,-2.43199 12.12353,-5.69536 2.72891,-2.65996 4.54925,-5.66223 5.54577,-9.14176 0.34292,-1.19752 0.72075,-3.25027 0.72079,-3.91507 v -0.3663 h 1.75671 c 1.38893,0 1.839,-0.0359 2.15055,-0.16153 0.76827,-0.30931 1.08156,-1.16952 0.68535,-1.87877 -0.37795,-0.67658 -0.51575,-0.71291 -2.67048,-0.71291 h -1.90243 l -0.0669,-0.61445 c -0.12484,-1.16252 -0.53022,-2.97977 -0.92956,-4.15532 -2.35868,-6.94348 -8.12814,-12.12697 -15.21545,-13.67126 -0.601,-0.1309 -1.46945,-0.2678 -1.93,-0.30329 l -0.83503,-0.0629 v -1.65425 c 0,-1.29351 -0.0385,-1.74605 -0.16154,-2.05601 -0.21989,-0.553 -0.71511,-0.87074 -1.25252,-0.85865 z m -1.60701,7.34966 h 0.28359 v 0.0765 4.07656 l 0.29935,0.34662 c 0.62753,0.71921 1.67822,0.66122 2.16236,-0.12219 0.22206,-0.35973 0.22801,-0.39146 0.25604,-4.37199 l 0.0276,-0.006 h 0.37812 c 0.20736,0 0.87487,0.0875 1.48492,0.19299 3.51925,0.60827 6.54078,2.14247 9.09854,4.61617 2.89562,2.80041 4.73565,6.56264 5.20309,10.65028 l 0.0629,0.5593 -0.1554,0.0275 -4.15539,0.0276 -0.29935,0.29146 c -0.7072,0.68186 -0.54336,1.82746 0.31905,2.22141 0.378,0.17283 0.69446,0.18695 4.35627,0.18897 l -0.0494,0.004 -0.0669,0.68533 c -0.44352,4.80118 -2.98001,9.36838 -6.80619,12.24151 -2.63816,1.98102 -5.17136,2.96175 -8.9095,3.44638 l -0.46081,0.0551 -0.0276,0.0416 c -0.0326,-4.53111 -0.0236,-4.4577 -0.83109,-4.81703 -0.59857,-0.26636 -1.03237,-0.17989 -1.51641,0.3072 l -0.37025,0.3742 v 3.98989 c -2.1e-4,2.1912 -0.0347,0.001 -0.0748,0.0214 -0.0809,0.0391 -0.21548,0.0216 -1.29192,-0.1339 -6.52959,-0.94327 -12.07574,-5.76531 -13.95899,-12.14305 -0.30012,-1.01636 -0.70108,-3.15121 -0.70108,-3.73783 v -0.33085 h -0.23849 c 3.23245,0 3.8166,-0.0251 4.1554,-0.16153 0.9684,-0.38987 1.13893,-1.57855 0.33084,-2.29233 l -0.33872,-0.29935 h -3.96239 0.0376 l 0.0669,-0.56717 c 0.2148,-1.87744 0.88997,-4.19653 1.70941,-5.87262 2.09994,-4.29527 6.02992,-7.61314 10.60318,-8.94876 0.91229,-0.26639 2.88477,-0.63805 3.37945,-0.63805 z"
             style="fill:#000000;fill-opacity:1;fill-rule:nonzero;stroke:none;stroke-width:76.21923828;stroke-linecap:round;stroke-linejoin:miter;stroke-miterlimit:4;stroke-dasharray:none;stroke-dashoffset:0;stroke-opacity:1" />
        </g>
      </g>
    </g>
  </g>
</svg>
