<?xml version="1.0" encoding="UTF-8" standalone="no"?>
<!-- Created with Inkscape (http://www.inkscape.org/) -->

<svg
   xmlns:dc="http://purl.org/dc/elements/1.1/"
   xmlns:cc="http://creativecommons.org/ns#"
   xmlns:rdf="http://www.w3.org/1999/02/22-rdf-syntax-ns#"
   xmlns:svg="http://www.w3.org/2000/svg"
   xmlns="http://www.w3.org/2000/svg"
   xmlns:sodipodi="http://sodipodi.sourceforge.net/DTD/sodipodi-0.dtd"
   xmlns:inkscape="http://www.inkscape.org/namespaces/inkscape"
   width="50"
   height="50"
   viewBox="0 0 13.229166 13.229167"
   version="1.1"
   id="svg4888"
   inkscape:version="0.92.3 (2405546, 2018-03-11)">
  <defs
     id="defs4882" />
  <sodipodi:namedview
     id="base"
     pagecolor="#ffffff"
     bordercolor="#666666"
     borderopacity="1.0"
     inkscape:pageopacity="0.0"
     inkscape:pageshadow="2"
     inkscape:zoom="9.49375"
     inkscape:cx="9.8727762"
     inkscape:cy="21.888819"
     inkscape:document-units="mm"
     inkscape:current-layer="layer1"
     showgrid="false"
     units="px"
     inkscape:window-width="1920"
     inkscape:window-height="1017"
     inkscape:window-x="1912"
     inkscape:window-y="-5"
     inkscape:window-maximized="1" />
  <metadata
     id="metadata4885">
    <rdf:RDF>
      <cc:Work
         rdf:about="">
        <dc:format>image/svg+xml</dc:format>
        <dc:type
           rdf:resource="http://purl.org/dc/dcmitype/StillImage" />
        <dc:title></dc:title>
      </cc:Work>
    </rdf:RDF>
  </metadata>
  <g
     inkscape:label="Layer 1"
     inkscape:groupmode="layer"
     id="layer1"
     transform="translate(0,-283.77082)">
    <g
       id="g4914"
       transform="translate(9.6244578,-5.2489905)">
      <path
         inkscape:connector-curvature="0"
         d="m -3.3683021,295.09565 c -0.4122684,-0.11526 -0.7242757,-0.38517 -0.904822,-0.78274 -0.1311249,-0.28873 -0.1213274,-0.77383 0.021564,-1.069 0.4294187,-0.88688 1.5736041,-1.0584 2.2252781,-0.33358 0.2798974,0.31131 0.4049686,0.80869 0.3062235,1.21777 -0.1675289,0.69409 -0.9608265,1.15977 -1.6482695,0.96755 z m -0.08673,3.67232 c -0.432099,-0.0332 -1.2022164,-0.17677 -1.6061161,-0.29931 l -0.2333201,-0.0708 v -0.9309 -0.93089 l 0.140499,-0.2942 c 0.2327566,-0.48737 0.6267556,-0.81413 1.1441245,-0.94889 0.2667185,-0.0695 1.5497016,-0.0842 1.879809,-0.0217 0.6256602,0.11865 1.18441263,0.6435 1.34476863,1.26317 0.044678,0.17257 0.059986,0.43756 0.059986,1.03743 v 0.80565 l -0.2235994,0.0845 c -0.40437333,0.1528 -0.91651143,0.26314 -1.42187613,0.30632 -0.2736374,0.0234 -0.53594,0.0401 -0.5829089,0.0371 -0.04699,-0.003 -0.2725684,-0.0199 -0.5013589,-0.0376 z"
         style="fill:#000000;stroke:#ffffff;stroke-width:0.2708109;stroke-miterlimit:4;stroke-dasharray:none"
         id="path4812" />
      <g
         style="fill:#000000"
         id="g4810"
         transform="matrix(0.26458333,0,0,0.26458333,99.452578,213.78528)">
        <path
           sodipodi:nodetypes="sccccsccsccccccccccccccccccccsccsccccccsccscccccccsccccccccccccccccccccccscsccccccccscc"
           inkscape:connector-curvature="0"
           id="path4808"
           d="m -387.3957,284.35113 c -0.17908,0.004 -0.36507,0.045 -0.54355,0.12604 -0.68283,0.30984 -0.72482,0.44679 -0.77987,2.5523 l -0.0512,1.86695 -0.92561,0.11816 c -4.99077,0.62982 -9.75226,3.26648 -13.06881,7.2433 -2.53937,3.04493 -4.26348,7.05604 -4.67139,10.85509 l -0.0629,0.61444 h -1.90634 c -2.15475,0 -2.29644,0.0363 -2.67442,0.71292 -0.39343,0.70426 -0.12161,1.51133 0.62231,1.85119 0.35177,0.16053 0.65128,0.18311 2.18997,0.18513 l 1.78424,0.004 v 0.37024 c 3e-5,0.66478 0.3779,2.71364 0.72082,3.91113 0.76931,2.68631 2.12226,5.24168 3.91118,7.39297 2.74972,3.30667 6.22094,5.60354 10.22109,6.75883 0.96365,0.27831 1.59912,0.40295 3.59217,0.7011 l 0.31903,0.0472 v 1.89058 c 6.9e-4,2.10878 0.047,2.28808 0.70111,2.63892 0.63883,0.34272 1.41495,0.11596 1.7882,-0.5199 0.17303,-0.29465 0.20414,-0.54459 0.23237,-2.17024 l 0.0276,-1.83543 0.55536,-0.0669 c 4.7457,-0.54063 8.77554,-2.43199 12.12353,-5.69536 2.72891,-2.65996 4.54925,-5.66223 5.54577,-9.14176 0.34292,-1.19752 0.72075,-3.25027 0.72079,-3.91507 v -0.3663 h 1.75671 c 1.38893,0 1.839,-0.0359 2.15055,-0.16153 0.76827,-0.30931 1.08156,-1.16952 0.68535,-1.87877 -0.37795,-0.67658 -0.51575,-0.71291 -2.67048,-0.71291 h -1.90243 l -0.0669,-0.61445 c -0.12484,-1.16252 -0.53022,-2.97977 -0.92956,-4.15532 -2.35868,-6.94348 -8.12814,-12.12697 -15.21545,-13.67126 -0.601,-0.1309 -1.46945,-0.2678 -1.93,-0.30329 l -0.83503,-0.0629 v -1.65425 c 0,-1.29351 -0.0385,-1.74605 -0.16154,-2.05601 -0.21989,-0.553 -0.71511,-0.87074 -1.25252,-0.85865 z m -1.60701,7.34966 h 0.28359 v 0.0765 4.07656 l 0.29935,0.34662 c 0.62753,0.71921 1.67822,0.66122 2.16236,-0.12219 0.22206,-0.35973 0.22801,-0.39146 0.25604,-4.37199 l 0.0276,-0.006 h 0.37812 c 0.20736,0 0.87487,0.0875 1.48492,0.19299 3.51925,0.60827 6.54078,2.14247 9.09854,4.61617 2.89562,2.80041 4.73565,6.56264 5.20309,10.65028 l 0.0629,0.5593 -0.1554,0.0275 -4.15539,0.0276 -0.29935,0.29146 c -0.7072,0.68186 -0.54336,1.82746 0.31905,2.22141 0.378,0.17283 0.69446,0.18695 4.35627,0.18897 l -0.0494,0.004 -0.0669,0.68533 c -0.44352,4.80118 -2.98001,9.36838 -6.80619,12.24151 -2.63816,1.98102 -5.17136,2.96175 -8.9095,3.44638 l -0.46081,0.0551 -0.0276,0.0416 c -0.0326,-4.53111 -0.0236,-4.4577 -0.83109,-4.81703 -0.59857,-0.26636 -1.03237,-0.17989 -1.51641,0.3072 l -0.37025,0.3742 v 3.98989 c -2.1e-4,2.1912 -0.0347,0.001 -0.0748,0.0214 -0.0809,0.0391 -0.21548,0.0216 -1.29192,-0.1339 -6.52959,-0.94327 -12.07574,-5.76531 -13.95899,-12.14305 -0.30012,-1.01636 -0.70108,-3.15121 -0.70108,-3.73783 v -0.33085 h -0.23849 c 3.23245,0 3.8166,-0.0251 4.1554,-0.16153 0.9684,-0.38987 1.13893,-1.57855 0.33084,-2.29233 l -0.33872,-0.29935 h -3.96239 0.0376 l 0.0669,-0.56717 c 0.2148,-1.87744 0.88997,-4.19653 1.70941,-5.87262 2.09994,-4.29527 6.02992,-7.61314 10.60318,-8.94876 0.91229,-0.26639 2.88477,-0.63805 3.37945,-0.63805 z"
           style="fill:#000000;fill-opacity:1;fill-rule:nonzero;stroke:none;stroke-width:76.21923828;stroke-linecap:round;stroke-linejoin:miter;stroke-miterlimit:4;stroke-dasharray:none;stroke-dashoffset:0;stroke-opacity:1" />
      </g>
    </g>
  </g>
</svg>
