<?xml version="1.0" encoding="UTF-8" standalone="no"?>
<!-- Created with Inkscape (http://www.inkscape.org/) -->

<svg
   xmlns:dc="http://purl.org/dc/elements/1.1/"
   xmlns:cc="http://creativecommons.org/ns#"
   xmlns:rdf="http://www.w3.org/1999/02/22-rdf-syntax-ns#"
   xmlns:svg="http://www.w3.org/2000/svg"
   xmlns="http://www.w3.org/2000/svg"
   xmlns:sodipodi="http://sodipodi.sourceforge.net/DTD/sodipodi-0.dtd"
   xmlns:inkscape="http://www.inkscape.org/namespaces/inkscape"
   width="60"
   height="25"
   viewBox="0 0 15.875 6.6145833"
   version="1.1"
   id="svg1452"
   inkscape:version="0.92.3 (2405546, 2018-03-11)"
   sodipodi:docname="number1.svg">
  <defs
     id="defs1446" />
  <sodipodi:namedview
     id="base"
     pagecolor="#ffffff"
     bordercolor="#666666"
     borderopacity="1.0"
     inkscape:pageopacity="0.0"
     inkscape:pageshadow="2"
     inkscape:zoom="11.313709"
     inkscape:cx="29.148001"
     inkscape:cy="14.936472"
     inkscape:document-units="mm"
     inkscape:current-layer="text824"
     showgrid="false"
     units="px"
     inkscape:window-width="1920"
     inkscape:window-height="1017"
     inkscape:window-x="1912"
     inkscape:window-y="-5"
     inkscape:window-maximized="1"
     showguides="true"
     inkscape:guide-bbox="true">
    <sodipodi:guide
       position="7.0271335,4.5613032"
       orientation="0,1"
       id="guide818"
       inkscape:locked="false" />
    <sodipodi:guide
       position="7.0271335,2.0532732"
       orientation="0,1"
       id="guide820"
       inkscape:locked="false" />
  </sodipodi:namedview>
  <metadata
     id="metadata1449">
    <rdf:RDF>
      <cc:Work
         rdf:about="">
        <dc:format>image/svg+xml</dc:format>
        <dc:type
           rdf:resource="http://purl.org/dc/dcmitype/StillImage" />
        <dc:title></dc:title>
      </cc:Work>
    </rdf:RDF>
  </metadata>
  <g
     inkscape:label="Layer 1"
     inkscape:groupmode="layer"
     id="layer1"
     transform="translate(0,-290.38542)">
    <g
       aria-label="50%"
       transform="scale(0.98130977,1.0190462)"
       style="font-style:normal;font-variant:normal;font-weight:normal;font-stretch:normal;font-size:3.59496856px;line-height:1.25;font-family:'Adobe Caslon Pro';-inkscape-font-specification:'Adobe Caslon Pro';letter-spacing:0px;word-spacing:0px;fill:#000000;fill-opacity:1;stroke:none;stroke-width:0.26962265"
       id="text1410" />
    <path
       style="fill:#000000;stroke-width:0.06058936"
       d="M 0,290.38542 V 293.69271 297 h 0.17828369 0.17880046 v -1.58905 l -0.0139529,-3.29008 -0.0160197,-1.69602 -0.16329752,-0.0202 z m 15.518433,0.008 V 293.69685 297 H 15.696716 15.875 v -3.30315 -3.30316 h -0.178284 z"
       id="path1434"
       inkscape:connector-curvature="0"
       sodipodi:nodetypes="ccccccccccccccccccc" />
    <g
       id="text824"
       style="font-style:normal;font-variant:normal;font-weight:normal;font-stretch:normal;font-size:3.52777767px;line-height:1.25;font-family:Roboto;-inkscape-font-specification:Roboto;letter-spacing:0px;word-spacing:0px;fill:#000000;fill-opacity:1;stroke:none;stroke-width:0.07000434"
       aria-label="4m"
       transform="translate(0.42836669,5.4651648)">
      <g
         aria-label="2:1"
         style="font-style:normal;font-variant:normal;font-weight:normal;font-stretch:normal;font-size:6.3499999px;line-height:1.25;font-family:Roboto;-inkscape-font-specification:Roboto;letter-spacing:0px;word-spacing:0px;fill:#000000;fill-opacity:1;stroke:none;stroke-width:0.01852198"
         id="text825-1">
        <path
           d="M 5.7371485,290.58398 H 2.6117579 v -0.64802 q 0.3255616,-0.27905 0.6511231,-0.5581 0.3286621,-0.27906 0.6108154,-0.55501 0.5953125,-0.57671 0.8154541,-0.91467 0.2201416,-0.34107 0.2201416,-0.73484 0,-0.35967 -0.2387451,-0.56121 -0.2356446,-0.20463 -0.6604248,-0.20463 -0.2821533,0 -0.6108154,0.0992 -0.3286621,0.0992 -0.6418213,0.30386 h -0.031006 v -0.65112 q 0.2201416,-0.10852 0.5860107,-0.19844 0.3689698,-0.0899 0.7131348,-0.0899 0.7100342,0 1.1131103,0.34417 0.4030762,0.34106 0.4030762,0.92707 0,0.26355 -0.068213,0.493 -0.065112,0.22634 -0.1953369,0.43098 -0.1209228,0.19223 -0.2852539,0.37827 -0.1612305,0.18604 -0.3937744,0.41238 -0.3317627,0.32556 -0.6852295,0.63252 -0.3534668,0.30385 -0.6604248,0.5643 h 2.4835693 z"
           style="font-style:normal;font-variant:normal;font-weight:normal;font-stretch:normal;font-family:sans-serif;-inkscape-font-specification:sans-serif;stroke-width:0.01852198"
           id="path885" />
        <path
           d="m 7.9695701,288.0043 h -0.74104 v -0.88367 h 0.74104 z m 0,2.57968 h -0.74104 v -0.88366 h 0.74104 z"
           style="font-style:normal;font-variant:normal;font-weight:normal;font-stretch:normal;font-family:sans-serif;-inkscape-font-specification:sans-serif;stroke-width:0.01852198"
           id="path887" />
        <path
           d="M 12.406509,290.58398 H 9.9074365 v -0.47128 h 0.9611815 v -3.09439 H 9.9074365 v -0.42168 q 0.1953365,0 0.4185795,-0.031 0.223242,-0.0341 0.337963,-0.0961 0.142627,-0.0775 0.223243,-0.19534 0.08371,-0.12092 0.09612,-0.32246 h 0.480591 v 4.16099 h 0.942578 z"
           style="font-style:normal;font-variant:normal;font-weight:normal;font-stretch:normal;font-family:sans-serif;-inkscape-font-specification:sans-serif;stroke-width:0.01852198"
           id="path889" />
      </g>
    </g>
  </g>
</svg>
