<?xml version="1.0" encoding="UTF-8" standalone="no"?>
<!-- Created with Inkscape (http://www.inkscape.org/) -->

<svg
   xmlns:dc="http://purl.org/dc/elements/1.1/"
   xmlns:cc="http://creativecommons.org/ns#"
   xmlns:rdf="http://www.w3.org/1999/02/22-rdf-syntax-ns#"
   xmlns:svg="http://www.w3.org/2000/svg"
   xmlns="http://www.w3.org/2000/svg"
   xmlns:sodipodi="http://sodipodi.sourceforge.net/DTD/sodipodi-0.dtd"
   xmlns:inkscape="http://www.inkscape.org/namespaces/inkscape"
   width="60"
   height="25"
   viewBox="0 0 15.875 6.6145833"
   version="1.1"
   id="svg1452"
   inkscape:version="0.92.3 (2405546, 2018-03-11)"
   sodipodi:docname="range.svg">
  <defs
     id="defs1446" />
  <sodipodi:namedview
     id="base"
     pagecolor="#ffffff"
     bordercolor="#666666"
     borderopacity="1.0"
     inkscape:pageopacity="0.0"
     inkscape:pageshadow="2"
     inkscape:zoom="8"
     inkscape:cx="34.680497"
     inkscape:cy="23.319874"
     inkscape:document-units="mm"
     inkscape:current-layer="text820"
     showgrid="false"
     units="px"
     inkscape:window-width="1920"
     inkscape:window-height="1017"
     inkscape:window-x="1912"
     inkscape:window-y="-5"
     inkscape:window-maximized="1" />
  <metadata
     id="metadata1449">
    <rdf:RDF>
      <cc:Work
         rdf:about="">
        <dc:format>image/svg+xml</dc:format>
        <dc:type
           rdf:resource="http://purl.org/dc/dcmitype/StillImage" />
        <dc:title></dc:title>
      </cc:Work>
    </rdf:RDF>
  </metadata>
  <g
     inkscape:label="Layer 1"
     inkscape:groupmode="layer"
     id="layer1"
     transform="translate(0,-290.38542)">
    <g
       aria-label="50%"
       transform="scale(0.98130977,1.0190462)"
       style="font-style:normal;font-variant:normal;font-weight:normal;font-stretch:normal;font-size:3.59496856px;line-height:1.25;font-family:'Adobe Caslon Pro';-inkscape-font-specification:'Adobe Caslon Pro';letter-spacing:0px;word-spacing:0px;fill:#000000;fill-opacity:1;stroke:none;stroke-width:0.26962265"
       id="text1410" />
    <path
       style="fill:#000000;stroke-width:0.06058936"
       d="M 4.9999997e-8,290.38542 V 293.69271 297 H 0.17828374 0.3570842 v -1.58905 -1.58905 l 0.949296,0.98444 0.9487793,0.98392 0.017053,-0.70694 0.017053,-0.70745 1.1027749,-0.003 v -1.07745 H 2.2592936 v -0.72502 -0.72399 l -0.9503296,0.98496 -0.9503295,0.98547 -0.0155029,-1.69603 -0.0160197,-1.69602 -0.16329752,-0.0202 z M 15.518433,290.39317 V 293.69685 297 H 15.696716 15.875 v -3.30315 -3.30316 h -0.178284 z m -1.932182,1.48001 -0.01705,0.71056 -0.01654,0.71106 h -1.069702 v 1.05265 l 1.073319,-0.003 v 0.72502 0.72502 l 0.951363,-0.98598 0.951364,-0.98651 -0.936377,-0.97461 z"
       id="path1434"
       inkscape:connector-curvature="0" />
    <g
       aria-label="100%"
       style="font-style:normal;font-variant:normal;font-weight:normal;font-stretch:normal;font-size:3.52777767px;line-height:1.25;font-family:'Adobe Caslon Pro';-inkscape-font-specification:'Adobe Caslon Pro';letter-spacing:0px;word-spacing:0px;fill:#000000;fill-opacity:1;stroke:none;stroke-width:0.26458332"
       id="text820">
      <g
         aria-label="300%"
         style="font-style:normal;font-variant:normal;font-weight:normal;font-stretch:normal;font-size:3.52777767px;line-height:1.25;font-family:Roboto;-inkscape-font-specification:Roboto;letter-spacing:0px;word-spacing:0px;fill:#000000;fill-opacity:1;stroke:none;stroke-width:0.07000434"
         id="text824">
        <path
           d="m 4.3373753,293.53767 h 0.2394341 q 0.2256538,-0.003 0.3548449,-0.11885 0.129191,-0.11541 0.129191,-0.31178 0,-0.44098 -0.4392496,-0.44098 -0.2067058,0 -0.3307292,0.11886 -0.1223009,0.11713 -0.1223009,0.31178 H 3.8498943 q 0,-0.298 0.217041,-0.49437 0.2187636,-0.19809 0.5546604,-0.19809 0.3548448,0 0.5563829,0.18775 0.2015381,0.18776 0.2015381,0.52194 0,0.16364 -0.106798,0.31694 -0.1050754,0.15331 -0.2876655,0.2291 0.2067058,0.0655 0.3186714,0.21704 0.1136881,0.15159 0.1136881,0.37035 0,0.33762 -0.2204861,0.53571 -0.2204861,0.1981 -0.5736084,0.1981 -0.3531223,0 -0.5753309,-0.19121 -0.2204861,-0.1912 -0.2204861,-0.5047 h 0.3203939 q 0,0.19809 0.129191,0.31695 0.1291911,0.11885 0.3462321,0.11885 0.2308214,0 0.3531223,-0.12058 0.1223009,-0.12057 0.1223009,-0.34623 0,-0.21876 -0.1343587,-0.33589 -0.1343588,-0.11714 -0.3875733,-0.12058 H 4.3373753 Z"
           style="stroke-width:0.07000434"
           id="path835" />
        <path
           d="m 7.431071,293.87701 q 0,0.55983 -0.1912028,0.83199 -0.1912028,0.27217 -0.597724,0.27217 -0.4013536,0 -0.594279,-0.26528 -0.1929253,-0.26699 -0.1998155,-0.79581 v -0.42547 q 0,-0.55294 0.1912028,-0.82166 0.1912028,-0.26871 0.5994466,-0.26871 0.4047987,0 0.5960015,0.2601 0.1912028,0.25838 0.1963704,0.79926 z m -0.3186713,-0.4358 q 0,-0.4048 -0.1136882,-0.58911 -0.1136881,-0.18604 -0.3600124,-0.18604 -0.2446018,0 -0.3565674,0.18432 -0.1119656,0.18431 -0.1154107,0.56671 v 0.50988 q 0,0.40652 0.1171333,0.60117 0.1188557,0.19292 0.3582899,0.19292 0.235989,0 0.3496772,-0.18259 0.1154107,-0.18259 0.1205783,-0.57533 z"
           style="stroke-width:0.07000434"
           id="path837" />
        <path
           d="m 9.415446,293.87701 q 0,0.55983 -0.1912028,0.83199 -0.1912028,0.27217 -0.597724,0.27217 -0.4013536,0 -0.594279,-0.26528 -0.1929253,-0.26699 -0.1998155,-0.79581 v -0.42547 q 0,-0.55294 0.1912028,-0.82166 0.1912028,-0.26871 0.5994466,-0.26871 0.4047987,0 0.5960015,0.2601 0.1912028,0.25838 0.1963704,0.79926 z m -0.3186713,-0.4358 q 0,-0.4048 -0.1136882,-0.58911 -0.1136881,-0.18604 -0.3600124,-0.18604 -0.2446018,0 -0.3565674,0.18432 -0.1119656,0.18431 -0.1154107,0.56671 v 0.50988 q 0,0.40652 0.1171333,0.60117 0.1188557,0.19292 0.3582899,0.19292 0.235989,0 0.3496772,-0.18259 0.1154107,-0.18259 0.1205783,-0.57533 z"
           style="stroke-width:0.07000434"
           id="path839" />
        <path
           d="m 9.7995742,292.921 q 0,-0.22565 0.1429715,-0.37207 0.1446943,-0.14642 0.3703473,-0.14642 0.229099,0 0.370348,0.14814 0.142972,0.14642 0.142972,0.38069 v 0.1223 q 0,0.22737 -0.144694,0.37207 -0.142972,0.14297 -0.36518,0.14297 -0.223932,0 -0.3703482,-0.14297 -0.1464166,-0.1447 -0.1464166,-0.38413 z m 0.2377118,0.13264 q 0,0.13436 0.07579,0.22221 0.07579,0.0861 0.203261,0.0861 0.1223,0 0.19637,-0.0844 0.07579,-0.0844 0.07579,-0.23082 V 292.921 q 0,-0.13436 -0.07407,-0.22221 -0.07407,-0.0878 -0.201539,-0.0878 -0.127468,0 -0.201538,0.0878 -0.07407,0.0879 -0.07407,0.2291 z m 0.983575,1.27813 q 0,-0.22566 0.142971,-0.37035 0.144694,-0.14642 0.370348,-0.14642 0.225653,0 0.370347,0.1447 0.144694,0.14469 0.144694,0.38412 v 0.12231 q 0,0.22565 -0.144694,0.37207 -0.142971,0.14469 -0.366902,0.14469 -0.223931,0 -0.370348,-0.14297 -0.146416,-0.1447 -0.146416,-0.38413 z m 0.237711,0.13436 q 0,0.13608 0.07579,0.22393 0.07579,0.0861 0.203261,0.0861 0.124023,0 0.198093,-0.0844 0.07407,-0.0861 0.07407,-0.23254 v -0.12747 q 0,-0.13608 -0.07579,-0.22221 -0.07407,-0.0861 -0.199815,-0.0861 -0.122301,0 -0.199816,0.0861 -0.07579,0.0844 -0.07579,0.2291 z m -0.869886,0.29111 -0.180868,-0.11369 1.224731,-1.96026 0.180868,0.11369 z"
           style="stroke-width:0.07000434"
           id="path841" />
      </g>
    </g>
  </g>
</svg>
