<?xml version="1.0" encoding="UTF-8" standalone="no"?>
<!-- Created with Inkscape (http://www.inkscape.org/) -->

<svg
   xmlns:dc="http://purl.org/dc/elements/1.1/"
   xmlns:cc="http://creativecommons.org/ns#"
   xmlns:rdf="http://www.w3.org/1999/02/22-rdf-syntax-ns#"
   xmlns:svg="http://www.w3.org/2000/svg"
   xmlns="http://www.w3.org/2000/svg"
   xmlns:sodipodi="http://sodipodi.sourceforge.net/DTD/sodipodi-0.dtd"
   xmlns:inkscape="http://www.inkscape.org/namespaces/inkscape"
   width="60"
   height="25"
   viewBox="0 0 15.875 6.6145833"
   version="1.1"
   id="svg1452"
   inkscape:version="0.92.3 (2405546, 2018-03-11)"
   sodipodi:docname="range.svg">
  <defs
     id="defs1446" />
  <sodipodi:namedview
     id="base"
     pagecolor="#ffffff"
     bordercolor="#666666"
     borderopacity="1.0"
     inkscape:pageopacity="0.0"
     inkscape:pageshadow="2"
     inkscape:zoom="8"
     inkscape:cx="34.680497"
     inkscape:cy="23.319874"
     inkscape:document-units="mm"
     inkscape:current-layer="text820"
     showgrid="false"
     units="px"
     inkscape:window-width="1920"
     inkscape:window-height="1017"
     inkscape:window-x="1912"
     inkscape:window-y="-5"
     inkscape:window-maximized="1" />
  <metadata
     id="metadata1449">
    <rdf:RDF>
      <cc:Work
         rdf:about="">
        <dc:format>image/svg+xml</dc:format>
        <dc:type
           rdf:resource="http://purl.org/dc/dcmitype/StillImage" />
        <dc:title></dc:title>
      </cc:Work>
    </rdf:RDF>
  </metadata>
  <g
     inkscape:label="Layer 1"
     inkscape:groupmode="layer"
     id="layer1"
     transform="translate(0,-290.38542)">
    <g
       aria-label="50%"
       transform="scale(0.98130977,1.0190462)"
       style="font-style:normal;font-variant:normal;font-weight:normal;font-stretch:normal;font-size:3.59496856px;line-height:1.25;font-family:'Adobe Caslon Pro';-inkscape-font-specification:'Adobe Caslon Pro';letter-spacing:0px;word-spacing:0px;fill:#000000;fill-opacity:1;stroke:none;stroke-width:0.26962265"
       id="text1410" />
    <path
       style="fill:#000000;stroke-width:0.06058936"
       d="M 0,290.38542 V 293.69271 297 h 0.17828369 0.17880046 v -1.58905 -1.58905 l 0.94929605,0.98444 0.9487793,0.98392 0.017053,-0.70694 0.017053,-0.70745 2.1611082,-0.003 v -1.07745 H 2.2592936 v -0.72502 -0.72399 l -0.9503296,0.98496 -0.95032955,0.98547 -0.0155029,-1.69603 -0.0160197,-1.69602 -0.16329752,-0.0202 z m 15.518433,0.008 V 293.69685 297 H 15.696716 15.875 v -3.30315 -3.30316 h -0.178284 z m -1.932182,1.48001 -0.01705,0.71056 -0.01654,0.71106 h -2.128035 v 1.05265 l 2.131652,-0.003 v 0.72502 0.72502 l 0.951363,-0.98598 0.951364,-0.98651 -0.936377,-0.97461 z"
       id="path1434"
       inkscape:connector-curvature="0"
       sodipodi:nodetypes="ccccccccccccccccccccccccccccccccccccccccccc" />
    <g
       aria-label="100%"
       style="font-style:normal;font-variant:normal;font-weight:normal;font-stretch:normal;font-size:3.52777767px;line-height:1.25;font-family:'Adobe Caslon Pro';-inkscape-font-specification:'Adobe Caslon Pro';letter-spacing:0px;word-spacing:0px;fill:#000000;fill-opacity:1;stroke:none;stroke-width:0.26458332"
       id="text820"
       transform="translate(0.43063703,1.0077351e-5)">
      <g
         aria-label="4m"
         style="font-style:normal;font-variant:normal;font-weight:normal;font-stretch:normal;font-size:3.52777767px;line-height:1.25;font-family:Roboto;-inkscape-font-specification:Roboto;letter-spacing:0px;word-spacing:0px;fill:#000000;fill-opacity:1;stroke:none;stroke-width:0.07000434"
         id="text824">
        <path
           d="m 6.5964965,294.10439 h 0.3479546 v 0.26011 H 6.5964965 v 0.58222 H 6.2761026 V 294.3645 H 5.1340535 v -0.18776 l 1.1231011,-1.73805 h 0.3393419 z m -1.100708,0 h 0.7803141 v -1.2299 l -0.037896,0.0689 z"
           style="stroke-width:0.07000434"
           id="path876" />
        <path
           d="m 7.5680134,293.08292 0.00861,0.20671 q 0.2049832,-0.24116 0.5529378,-0.24116 0.3910183,0 0.5322672,0.29972 0.093018,-0.13436 0.2411567,-0.21704 0.1498616,-0.0827 0.3531223,-0.0827 0.613227,0 0.6235622,0.6494 v 1.24885 H 9.5610011 v -1.2299 q 0,-0.19982 -0.091295,-0.298 -0.091295,-0.0999 -0.3066135,-0.0999 -0.1774224,0 -0.2945557,0.1068 -0.1171332,0.10507 -0.1360812,0.28422 v 1.23679 H 8.4120618 v -1.22129 q 0,-0.40652 -0.3979085,-0.40652 -0.3135037,0 -0.4289144,0.26699 v 1.36082 H 7.2665676 v -1.8638 z"
           style="stroke-width:0.07000434"
           id="path878" />
      </g>
    </g>
  </g>
</svg>
