<?xml version="1.0" encoding="UTF-8" standalone="no"?>
<!-- Created with Inkscape (http://www.inkscape.org/) -->

<svg
   xmlns:dc="http://purl.org/dc/elements/1.1/"
   xmlns:cc="http://creativecommons.org/ns#"
   xmlns:rdf="http://www.w3.org/1999/02/22-rdf-syntax-ns#"
   xmlns:svg="http://www.w3.org/2000/svg"
   xmlns="http://www.w3.org/2000/svg"
   xmlns:sodipodi="http://sodipodi.sourceforge.net/DTD/sodipodi-0.dtd"
   xmlns:inkscape="http://www.inkscape.org/namespaces/inkscape"
   width="60"
   height="25"
   viewBox="0 0 15.875 6.6145833"
   version="1.1"
   id="svg1452"
   inkscape:version="0.92.3 (2405546, 2018-03-11)"
   sodipodi:docname="range.svg">
  <defs
     id="defs1446" />
  <sodipodi:namedview
     id="base"
     pagecolor="#ffffff"
     bordercolor="#666666"
     borderopacity="1.0"
     inkscape:pageopacity="0.0"
     inkscape:pageshadow="2"
     inkscape:zoom="8"
     inkscape:cx="34.680497"
     inkscape:cy="23.319874"
     inkscape:document-units="mm"
     inkscape:current-layer="layer1"
     showgrid="false"
     units="px"
     inkscape:window-width="1920"
     inkscape:window-height="1017"
     inkscape:window-x="1912"
     inkscape:window-y="-5"
     inkscape:window-maximized="1" />
  <metadata
     id="metadata1449">
    <rdf:RDF>
      <cc:Work
         rdf:about="">
        <dc:format>image/svg+xml</dc:format>
        <dc:type
           rdf:resource="http://purl.org/dc/dcmitype/StillImage" />
        <dc:title></dc:title>
      </cc:Work>
    </rdf:RDF>
  </metadata>
  <g
     inkscape:label="Layer 1"
     inkscape:groupmode="layer"
     id="layer1"
     transform="translate(0,-290.38542)">
    <g
       aria-label="50%"
       transform="scale(0.98130977,1.0190462)"
       style="font-style:normal;font-variant:normal;font-weight:normal;font-stretch:normal;font-size:3.59496856px;line-height:1.25;font-family:'Adobe Caslon Pro';-inkscape-font-specification:'Adobe Caslon Pro';letter-spacing:0px;word-spacing:0px;fill:#000000;fill-opacity:1;stroke:none;stroke-width:0.26962265"
       id="text1410" />
    <path
       style="fill:#000000;stroke-width:0.06058936"
       d="M 2.4999997e-8,290.38542 V 293.69271 297 H 0.17828371 0.35708417 v -1.58905 -1.58905 l 0.94929603,0.98444 0.9487793,0.98392 0.017053,-0.70694 0.017053,-0.70745 2.1611082,-0.003 v -1.07745 H 2.2592936 v -0.72502 -0.72399 l -0.9503296,0.98496 -0.95032953,0.98547 -0.0155029,-1.69603 -0.0160197,-1.69602 -0.16329752,-0.0202 z M 15.518433,290.39317 V 293.69685 297 H 15.696716 15.875 v -3.30315 -3.30316 h -0.178284 z m -1.932182,1.48001 -0.01705,0.71056 -0.01654,0.71106 h -2.128035 v 1.05265 l 2.131652,-0.003 v 0.72502 0.72502 l 0.951363,-0.98598 0.951364,-0.98651 -0.936377,-0.97461 z"
       id="path1434"
       inkscape:connector-curvature="0"
       sodipodi:nodetypes="ccccccccccccccccccccccccccccccccccccccccccc" />
    <g
       aria-label="100%"
       style="font-style:normal;font-variant:normal;font-weight:normal;font-stretch:normal;font-size:3.52777767px;line-height:1.25;font-family:'Adobe Caslon Pro';-inkscape-font-specification:'Adobe Caslon Pro';letter-spacing:0px;word-spacing:0px;fill:#000000;fill-opacity:1;stroke:none;stroke-width:0.26458332"
       id="text820">
      <g
         aria-label="50%"
         style="font-style:normal;font-variant:normal;font-weight:normal;font-stretch:normal;font-size:3.52777767px;line-height:1.25;font-family:Roboto;-inkscape-font-specification:Roboto;letter-spacing:0px;word-spacing:0px;fill:#000000;fill-opacity:1;stroke:none;stroke-width:0.07000434"
         id="text824">
        <path
           d="m 4.9600761,293.68926 0.1274685,-1.25057 h 1.2850206 v 0.29455 H 5.3579846 l -0.075792,0.68385 q 0.1843126,-0.10852 0.4185791,-0.10852 0.342787,0 0.5443251,0.22738 0.2015381,0.22565 0.2015381,0.6115 0,0.38758 -0.2101509,0.61151 -0.2084282,0.22221 -0.5839436,0.22221 -0.3324517,0 -0.5426025,-0.18432 -0.2101509,-0.18431 -0.2394342,-0.50987 h 0.3014459 q 0.029283,0.21532 0.1533067,0.32556 0.1240235,0.10852 0.3272841,0.10852 0.2222086,0 0.3479546,-0.15158 0.1274685,-0.15159 0.1274685,-0.41858 0,-0.25149 -0.1378038,-0.40308 -0.1360812,-0.1533 -0.3634575,-0.1533 -0.2084283,0 -0.3272841,0.0913 l -0.084405,0.0689 z"
           style="stroke-width:0.07000434"
           id="path864" />
        <path
           d="m 8.3707206,293.87701 q 0,0.55983 -0.1912028,0.83199 -0.1912028,0.27217 -0.597724,0.27217 -0.4013537,0 -0.594279,-0.26528 -0.1929253,-0.26699 -0.1998155,-0.79581 v -0.42547 q 0,-0.55294 0.1912028,-0.82166 0.1912028,-0.26871 0.5994466,-0.26871 0.4047987,0 0.5960015,0.2601 0.1912028,0.25838 0.1963704,0.79926 z m -0.3186713,-0.4358 q 0,-0.4048 -0.1136882,-0.58911 -0.1136881,-0.18604 -0.3600124,-0.18604 -0.2446018,0 -0.3565674,0.18432 -0.1119656,0.18431 -0.1154107,0.56671 v 0.50988 q 0,0.40652 0.1171332,0.60117 0.1188558,0.19292 0.35829,0.19292 0.235989,0 0.3496771,-0.18259 0.1154107,-0.18259 0.1205784,-0.57533 z"
           style="stroke-width:0.07000434"
           id="path866" />
        <path
           d="m 8.7548488,292.921 q 0,-0.22565 0.1429715,-0.37207 0.144694,-0.14642 0.3703477,-0.14642 0.2290988,0 0.3703478,0.14814 0.1429714,0.14642 0.1429714,0.38069 v 0.1223 q 0,0.22737 -0.144694,0.37207 -0.1429714,0.14297 -0.3651801,0.14297 -0.2239312,0 -0.3703478,-0.14297 -0.1464165,-0.1447 -0.1464165,-0.38413 z m 0.2377116,0.13264 q 0,0.13436 0.075792,0.22221 0.075792,0.0861 0.2032606,0.0861 0.1223009,0 0.1963704,-0.0844 0.075792,-0.0844 0.075792,-0.23082 V 292.921 q 0,-0.13436 -0.07407,-0.22221 -0.07407,-0.0878 -0.2015381,-0.0878 -0.1274685,0 -0.2015381,0.0878 -0.07407,0.0879 -0.07407,0.2291 z m 0.9835747,1.27813 q 0,-0.22566 0.1429719,-0.37035 0.144694,-0.14642 0.370347,-0.14642 0.225654,0 0.370348,0.1447 0.144694,0.14469 0.144694,0.38412 v 0.12231 q 0,0.22565 -0.144694,0.37207 -0.142971,0.14469 -0.366903,0.14469 -0.223931,0 -0.370347,-0.14297 -0.1464169,-0.1447 -0.1464169,-0.38413 z m 0.2377119,0.13436 q 0,0.13608 0.07579,0.22393 0.07579,0.0861 0.20326,0.0861 0.124024,0 0.198093,-0.0844 0.07407,-0.0861 0.07407,-0.23254 v -0.12747 q 0,-0.13608 -0.07579,-0.22221 -0.07407,-0.0861 -0.199816,-0.0861 -0.122301,0 -0.199815,0.0861 -0.07579,0.0844 -0.07579,0.2291 z m -0.8698869,0.29111 -0.1808675,-0.11369 1.2247314,-1.96026 0.180868,0.11369 z"
           style="stroke-width:0.07000434"
           id="path868" />
      </g>
    </g>
  </g>
</svg>
