<?xml version="1.0" encoding="UTF-8" standalone="no"?>
<!-- Created with Inkscape (http://www.inkscape.org/) -->

<svg
   xmlns:dc="http://purl.org/dc/elements/1.1/"
   xmlns:cc="http://creativecommons.org/ns#"
   xmlns:rdf="http://www.w3.org/1999/02/22-rdf-syntax-ns#"
   xmlns:svg="http://www.w3.org/2000/svg"
   xmlns="http://www.w3.org/2000/svg"
   xmlns:sodipodi="http://sodipodi.sourceforge.net/DTD/sodipodi-0.dtd"
   xmlns:inkscape="http://www.inkscape.org/namespaces/inkscape"
   width="48"
   height="48"
   viewBox="0 0 12.7 12.7"
   version="1.1"
   id="svg833"
   inkscape:version="0.92.3 (2405546, 2018-03-11)"
   sodipodi:docname="shield.svg">
  <defs
     id="defs827" />
  <sodipodi:namedview
     id="base"
     pagecolor="#ffffff"
     bordercolor="#666666"
     borderopacity="1.0"
     inkscape:pageopacity="0.0"
     inkscape:pageshadow="2"
     inkscape:zoom="7.919596"
     inkscape:cx="9.7132584"
     inkscape:cy="25.250833"
     inkscape:document-units="mm"
     inkscape:current-layer="layer1"
     showgrid="false"
     units="px"
     inkscape:window-width="1920"
     inkscape:window-height="1017"
     inkscape:window-x="1912"
     inkscape:window-y="-5"
     inkscape:window-maximized="1" />
  <metadata
     id="metadata830">
    <rdf:RDF>
      <cc:Work
         rdf:about="">
        <dc:format>image/svg+xml</dc:format>
        <dc:type
           rdf:resource="http://purl.org/dc/dcmitype/StillImage" />
        <dc:title></dc:title>
      </cc:Work>
    </rdf:RDF>
  </metadata>
  <g
     inkscape:label="Layer 1"
     inkscape:groupmode="layer"
     id="layer1"
     transform="translate(0,-284.3)">
    <path
       style="fill:#000000;stroke-width:0.01978986"
       d="m 5.631597,296.63779 c -0.755142,-0.38395 -0.932439,-0.48736 -1.310639,-0.76444 -0.933267,-0.68372 -1.654246,-1.53401 -2.114927,-2.49427 -0.340382,-0.7095 -0.527516,-1.42372 -0.589557,-2.25009 -0.02271,-0.30255 0.009,-5.28053 0.03378,-5.30242 0.0081,-0.007 0.68082,-0.22791 1.494849,-0.4905 0.81403,-0.26257 1.868597,-0.60311 2.343484,-0.75674 L 6.352019,284.3 l 0.616622,0.19956 c 0.339142,0.10975 0.811989,0.26282 1.050772,0.34014 0.238781,0.0773 1.020249,0.33001 1.736595,0.56152 l 1.302447,0.42092 0.01212,0.78175 c 0.0067,0.42996 0.01497,1.63016 0.01844,2.6671 0.0056,1.67781 0.0026,1.91466 -0.02707,2.15157 -0.09677,0.77142 -0.312041,1.47941 -0.643752,2.11722 -0.32243,0.61997 -0.643758,1.05412 -1.174029,1.58623 -0.444982,0.44652 -0.823181,0.74861 -1.336613,1.06763 -0.162324,0.10086 -1.536477,0.81092 -1.560474,0.80634 -0.0028,-5.1e-4 -0.324738,-0.16351 -0.715471,-0.36219 z m 1.268048,-0.647 c 0.689571,-0.34745 1.026183,-0.56182 1.484289,-0.94526 0.455036,-0.38088 0.841685,-0.81269 1.154521,-1.28938 0.486573,-0.74143 0.749581,-1.45408 0.872805,-2.36496 0.0313,-0.23137 0.03381,-0.4364 0.02735,-2.23928 -0.0039,-1.09152 -0.01256,-2.18019 -0.01924,-2.41927 l -0.01214,-0.43469 -0.355212,-0.11435 c -0.195368,-0.0629 -0.603863,-0.19478 -0.907767,-0.29309 -2.080342,-0.67296 -2.709792,-0.87552 -2.754929,-0.88657 -0.03724,-0.009 -0.60439,0.166 -2.062207,0.6367 -1.105965,0.35709 -2.019146,0.65677 -2.029295,0.66596 -0.0286,0.0258 -0.05644,4.44515 -0.03022,4.79674 0.135926,1.82256 1.064346,3.34343 2.702905,4.42768 0.124818,0.0826 0.484472,0.28154 0.799229,0.4421 0.314758,0.16055 0.574568,0.29228 0.577357,0.29272 0.0028,5.1e-4 0.251438,-0.12333 0.552554,-0.27505 z m -1.011508,-0.4938 c -0.274428,-0.14063 -0.554422,-0.30172 -0.708174,-0.40743 -1.379212,-0.94832 -2.167689,-2.17276 -2.373031,-3.68514 -0.03801,-0.27995 -0.04092,-0.57296 -0.03042,-3.07008 0.0035,-0.8317 0.01288,-1.53672 0.02086,-1.56673 0.01411,-0.053 0.06349,-0.0704 1.784798,-0.62704 l 1.770293,-0.5725 1.080149,0.34959 c 0.895722,0.28989 1.756971,0.56854 2.352992,0.76129 l 0.108537,0.0351 0.01222,0.23655 c 0.0067,0.13012 0.01505,1.1341 0.0185,2.23107 0.0057,1.80796 0.0031,2.01678 -0.02791,2.23266 -0.165121,1.15033 -0.637689,2.09433 -1.460916,2.91834 -0.497749,0.49822 -0.966021,0.83327 -1.644267,1.17648 -0.240916,0.12191 -0.440663,0.22137 -0.443889,0.22104 -0.0033,-3.4e-4 -0.21011,-0.10528 -0.459746,-0.23321 z"
       id="path4557"
       inkscape:connector-curvature="0"
       inkscape:export-xdpi="96"
       inkscape:export-ydpi="96" />
  </g>
</svg>
