<?xml version="1.0" encoding="UTF-8" standalone="no"?>
<!-- Created with Inkscape (http://www.inkscape.org/) -->

<svg
   xmlns:dc="http://purl.org/dc/elements/1.1/"
   xmlns:cc="http://creativecommons.org/ns#"
   xmlns:rdf="http://www.w3.org/1999/02/22-rdf-syntax-ns#"
   xmlns:svg="http://www.w3.org/2000/svg"
   xmlns="http://www.w3.org/2000/svg"
   xmlns:sodipodi="http://sodipodi.sourceforge.net/DTD/sodipodi-0.dtd"
   xmlns:inkscape="http://www.inkscape.org/namespaces/inkscape"
   width="50"
   height="50"
   viewBox="0 0 13.229166 13.229167"
   version="1.1"
   id="svg1324"
   inkscape:version="0.92.3 (2405546, 2018-03-11)">
  <defs
     id="defs1318" />
  <sodipodi:namedview
     id="base"
     pagecolor="#ffffff"
     bordercolor="#666666"
     borderopacity="1.0"
     inkscape:pageopacity="0.0"
     inkscape:pageshadow="2"
     inkscape:zoom="3.959798"
     inkscape:cx="23.673086"
     inkscape:cy="29.995853"
     inkscape:document-units="mm"
     inkscape:current-layer="layer1"
     showgrid="false"
     units="px"
     inkscape:window-width="1101"
     inkscape:window-height="1017"
     inkscape:window-x="2731"
     inkscape:window-y="3"
     inkscape:window-maximized="0" />
  <metadata
     id="metadata1321">
    <rdf:RDF>
      <cc:Work
         rdf:about="">
        <dc:format>image/svg+xml</dc:format>
        <dc:type
           rdf:resource="http://purl.org/dc/dcmitype/StillImage" />
        <dc:title></dc:title>
      </cc:Work>
    </rdf:RDF>
  </metadata>
  <g
     inkscape:label="Layer 1"
     inkscape:groupmode="layer"
     id="layer1"
     transform="translate(0,-283.77082)">
    <path
       style="fill:#000000;stroke-width:0.02011833"
       d="m 3.2285456,295.55636 c -0.0801,-0.13165 -0.039654,-0.28154 0.071377,-0.28154 0.039654,0 0.039654,-0.002 0.015861,-0.0476 -0.023792,-0.0317 -0.023792,-0.0555 -0.00793,-0.0634 0.031723,-0.0159 0.3172288,-0.0896 0.3648132,-0.0896 0.023792,0 0.071377,-0.0159 0.1173746,-0.0396 0.039654,-0.0238 0.1110301,-0.0397 0.1498907,-0.0397 0.063446,0 0.071376,0.006 0.071376,0.0476 0,0.0238 0.00793,0.0476 0.023792,0.0476 0.00793,0 0.023792,-0.0159 0.023792,-0.0396 0,-0.0896 0.133236,-0.11738 0.1871649,-0.0396 0.031723,0.0396 0.031723,0.0396 0.023792,0.003 -0.00555,-0.0238 0.00317,-0.0555 0.023792,-0.0714 0.015862,-0.0159 0.031723,-0.0317 0.031723,-0.0476 0,-0.0159 -0.00793,-0.0159 -0.023792,0.002 -0.047584,0.0397 -0.1911303,0.0555 -0.2268185,0.0238 -0.023792,-0.0159 -0.039654,-0.0159 -0.047584,-0.006 -0.023792,0.0317 -0.107065,0.0476 -0.1506839,0.0238 -0.031723,-0.0159 -0.047584,-0.0159 -0.063446,0.0159 -0.015862,0.0159 -0.063446,0.0396 -0.1023063,0.0555 -0.1760619,0.0397 -0.3346765,0.006 -0.3854329,-0.0833 -0.015861,-0.0317 -0.039654,-0.0555 -0.047584,-0.0555 -0.023792,-2.3e-4 -0.097548,0.13403 -0.097548,0.17845 0,0.0238 -0.00793,0.0396 -0.023792,0.0396 -0.031723,0 -0.063446,-0.10469 -0.047584,-0.16972 0.015861,-0.0634 0.083272,-0.15147 0.1173747,-0.15147 0.00793,0 0.047584,-0.0238 0.088031,-0.0634 0.055515,-0.0476 0.086445,-0.0634 0.1689244,-0.0634 0.055515,0 0.1522698,0.0159 0.2149225,0.0397 0.063446,0.0238 0.1419598,0.0396 0.1752688,0.0396 0.047584,-7.9e-4 0.031723,-0.008 -0.063446,-0.0396 -0.063446,-0.0159 -0.13165,-0.0397 -0.1451323,-0.0476 -0.015861,-0.008 -0.092789,-0.0159 -0.1760619,-0.0159 -0.083273,-4.8e-4 -0.1514766,-0.008 -0.1514766,-0.0159 0,-0.0396 0.1284775,-0.0967 0.2331631,-0.11024 0.1142024,-0.0159 0.2165087,0.008 0.2934366,0.0714 0.023792,0.0238 0.1030992,0.0555 0.1720965,0.0793 0.108651,0.0396 0.1435462,0.0396 0.2585415,0.0238 0.084066,-0.0159 0.1617867,-0.0396 0.2109573,-0.0714 0.071376,-0.0476 0.083272,-0.0714 0.1300637,-0.22444 0.031723,-0.11103 0.071377,-0.18795 0.1015133,-0.21492 0.039654,-0.0396 0.047584,-0.0476 0.023792,-0.0714 -0.055515,-0.0634 -0.055515,-0.0801 0.00793,-0.11341 0.039654,-0.0159 0.099927,-0.0634 0.1419597,-0.10547 l 0.079307,-0.0714 -0.00238,0.12451 c -0.00397,0.14672 0.023792,0.19272 0.1070649,0.18082 0.079307,-0.008 0.071376,0.0317 -0.015861,0.11738 -0.039654,0.0396 -0.063446,0.0714 -0.047584,0.0793 0.031723,0.0159 0.015861,0.0817 -0.023792,0.11976 -0.031723,0.0317 -0.031723,0.0396 -0.015861,0.0634 0.015861,0.0238 0.00793,0.0397 -0.047584,0.0872 -0.039654,0.0317 -0.055515,0.0555 -0.047584,0.0555 0.047584,7.9e-4 0.023792,0.0634 -0.023792,0.0849 -0.031723,0.0159 -0.047584,0.0317 -0.039654,0.0476 0.00555,0.0159 -0.00317,0.0396 -0.015861,0.0476 -0.015861,0.0159 -0.023792,0.0317 -0.015861,0.0397 0.00555,0.008 -0.00793,0.0317 -0.031723,0.0476 -0.063446,0.0476 -0.00793,0.0397 0.084859,-0.008 0.047584,-0.0238 0.1197537,-0.0396 0.1950957,-0.0396 0.063446,-3.1e-4 0.1387875,-0.0159 0.1665449,-0.0317 0.071376,-0.0397 0.1276846,-0.0397 0.1149955,0.008 -0.00555,0.0238 -0.00238,0.0476 0.00714,0.0634 0.015861,0.0238 0.015861,0.0159 0.015861,-0.0159 8.01e-4,-0.11262 0.2117503,-0.23316 0.2918505,-0.16654 0.039654,0.0317 0.039654,0.10072 0.00159,0.10072 -0.015862,0 -0.031723,0.008 -0.039654,0.0238 -0.00793,0.0159 0.00476,0.0238 0.031723,0.0159 0.093582,-0.008 0.122133,0.002 0.1800274,0.0555 0.071376,0.0714 0.079307,0.17369 0.015861,0.24586 -0.031723,0.0396 -0.039654,0.0396 -0.039654,0.0159 -0.00159,-0.0714 -0.1617868,-0.21017 -0.1617868,-0.14117 0,0.0317 -0.084065,0.10469 -0.1245121,0.10469 -0.023792,0 -0.071376,-0.0317 -0.1134094,-0.0793 -0.039654,-0.0476 -0.063446,-0.0555 -0.055515,-0.0317 0.039654,0.10389 0.039654,0.11103 -0.031723,0.10944 -0.093582,-0.002 -0.1372013,-0.0238 -0.1713035,-0.0801 l -0.031723,-0.0476 0.015861,0.0555 0.00793,0.0555 -0.196682,-0.006 c -0.1078577,-0.002 -0.2307837,0.002 -0.2720236,0.008 -0.063446,0.0159 -0.079307,0.008 -0.087238,-0.0238 -0.031723,-0.1023 -0.047584,-0.11579 -0.039654,-0.0317 0.015862,0.0999 -0.015861,0.12531 -0.1134093,0.0896 -0.047584,-0.0159 -0.055515,-0.0159 -0.055515,0.0159 0,0.0476 -0.055515,0.0634 -0.1292707,0.0476 -0.031723,-0.008 -0.055515,-0.005 -0.055515,0.008 0,0.0159 -0.039654,0.0238 -0.09041,0.0238 -0.047584,0 -0.09041,0.008 -0.09041,0.0238 0,0.008 -0.039654,0.0396 -0.088031,0.0634 -0.047584,0.0238 -0.1229261,0.0634 -0.1665451,0.088 -0.1292707,0.0714 -0.2759891,0.0714 -0.3140565,-0.003 -0.023792,-0.0476 -0.031723,-0.0476 -0.063446,-0.0238 -0.023792,0.0159 -0.047584,0.0714 -0.063446,0.1261 l -0.023792,0.0991 z m 1.6066053,-1.08643 c 0.023792,-0.0238 0.039654,-0.0555 0.039654,-0.0714 0,-0.0159 0.015861,-0.0396 0.031723,-0.0555 0.015862,-0.0159 0.031723,-0.0476 0.031723,-0.0714 0,-0.0238 0.00793,-0.0555 0.023792,-0.0555 0.00793,-0.007 0.015861,-0.0317 0.015861,-0.0555 -4.826e-4,-0.0396 -8.01e-4,-0.0396 -0.023792,-0.004 -0.015862,0.0238 -0.031723,0.0476 -0.047584,0.0555 -0.023792,0.0159 -0.023792,0.0238 -0.00238,0.0476 0.023792,0.0238 0.015862,0.0396 -0.023792,0.0714 -0.023792,0.0238 -0.047584,0.0555 -0.039654,0.0793 0.00397,0.0238 -0.015861,0.0476 -0.047584,0.0634 -0.039654,0.0238 -0.047584,0.0317 -0.023792,0.0317 0.015861,4.7e-4 0.055515,-0.0159 0.079307,-0.0397 z m 1.8911594,1.13687 c 0,-0.006 0.031723,-0.0476 0.071377,-0.10072 0.039654,-0.0476 0.079307,-0.12293 0.082479,-0.161 0.023792,-0.10944 -0.023792,-0.29105 -0.071377,-0.29105 -0.00793,0 -0.039654,0.0317 -0.063446,0.0793 -0.039654,0.0634 -0.1950956,0.19669 -0.2141294,0.17765 -0.00317,-0.003 0.00793,-0.0555 0.031723,-0.10786 0.023792,-0.0634 0.047584,-0.20144 0.063446,-0.36084 0.023792,-0.30772 0.047584,-0.42668 0.1149956,-0.55753 0.1038924,-0.20779 0.287092,-0.34737 0.5281858,-0.40368 0.071376,-0.0159 0.1411668,-0.0396 0.1594075,-0.0555 0.047584,-0.0476 0.2196809,-0.12372 0.3656061,-0.1721 0.2918508,-0.096 0.3925709,-0.10548 1.2769254,-0.12292 0.8849096,-0.0159 1.0034737,-0.0317 1.2072937,-0.11896 l 0.092,-0.0397 0.140373,0.0555 c 0.07931,0.0317 0.14434,0.0634 0.149097,0.0634 0.01586,0.0159 -0.183199,0.14038 -0.303746,0.18875 -0.229197,0.0928 -0.4211208,0.11183 -1.3045243,0.13007 -0.7161432,0.0159 -0.8480311,0.0238 -1.0011733,0.0555 -0.2442664,0.0555 -0.3656062,0.11183 -0.3465727,0.15782 0.083273,0.19589 0.055515,0.31168 -0.132443,0.56943 -0.1720965,0.23554 -0.2141293,0.31168 -0.2418869,0.44333 -0.023792,0.12054 -0.047584,0.11103 -0.083272,-0.0397 l -0.031723,-0.11103 -0.031723,0.0714 c -0.015861,0.0396 -0.039654,0.13641 -0.047584,0.22127 -0.023792,0.2173 -0.091203,0.32991 -0.2569554,0.41319 -0.063446,0.0317 -0.1467184,0.0476 -0.1467184,0.0238 z m 4.3184347,-0.16496 c -0.02379,-0.0238 -0.01586,-0.12213 0.01586,-0.14751 0.01586,-0.0159 0.03172,-0.0476 0.03172,-0.0825 0,-0.0714 0.06345,-0.1142 0.21175,-0.13879 0.148305,-0.0238 0.164166,-0.0396 0.03965,-0.0396 -0.143546,3.9e-4 -0.264093,0.0634 -0.30216,0.15147 -0.02379,0.0634 -0.03965,0.0714 -0.08486,0.0555 -0.03172,-0.008 -0.09279,-0.0159 -0.139581,-0.0159 -0.09279,1.6e-4 -0.106271,-0.0238 -0.06345,-0.10152 0.01586,-0.0238 0.03965,-0.0841 0.05552,-0.13402 0.03965,-0.11976 0.08724,-0.14038 0.321988,-0.14117 0.144339,-4.1e-4 0.21175,-0.008 0.276782,-0.0397 0.122133,-0.0555 0.107064,-0.0888 -0.01586,-0.0396 -0.132443,0.0555 -0.33309,0.0476 -0.367193,-0.008 -0.01586,-0.0317 -0.01586,-0.0476 0.03172,-0.0793 0.04758,-0.0396 0.06345,-0.0396 0.25537,-0.0317 0.354503,0.0238 0.395743,-0.0159 0.448879,-0.43857 0.02379,-0.22127 0.0063,-0.28788 -0.126099,-0.39574 -0.05551,-0.0476 -0.145925,-0.12848 -0.195889,-0.18082 -0.104685,-0.11024 -0.165752,-0.13165 -0.459189,-0.15941 -0.233163,-0.0238 -0.362433,-0.0634 -0.708213,-0.22127 -0.137994,-0.0634 -0.3100909,-0.14116 -0.3822604,-0.17289 -0.4346035,-0.18954 -0.6074931,-0.36798 -1.0125942,-1.04614 -0.1054786,-0.17606 -0.220474,-0.34974 -0.2561623,-0.38543 -0.093583,-0.0952 -0.24268,-0.13324 -0.4702917,-0.11975 -0.345779,0.0238 -0.5131173,0.10706 -0.9366969,0.48456 -0.1007202,0.0904 -0.2299909,0.18162 -0.3148497,0.22444 -0.1578214,0.0793 -0.4052597,0.13879 -0.4901184,0.12055 l -0.055515,-0.0159 0.039654,-0.0793 c 0.023792,-0.0396 0.039654,-0.12768 0.047584,-0.18796 0.00793,-0.092 0.00238,-0.12927 -0.039654,-0.2284 -0.031723,-0.0634 -0.079307,-0.14513 -0.1078577,-0.17844 -0.094376,-0.10548 -0.110237,-0.14593 -0.071377,-0.19669 0.063446,-0.0912 0.015861,-0.24188 -0.1205471,-0.39495 l -0.071377,-0.0793 0.071377,-0.0714 c 0.084066,-0.0801 0.1276846,-0.17051 0.1276846,-0.26647 0,-0.0634 0.00476,-0.0634 0.047584,-0.0555 0.1142023,0.0238 0.2117502,-0.0555 0.2117502,-0.17526 0,-0.0317 0.015861,-0.0397 0.071376,-0.0397 0.1197539,0 0.2038195,-0.10706 0.1911303,-0.24268 -0.00159,-0.0159 0.023792,-0.0396 0.071377,-0.0555 0.1023063,-0.0397 0.1379946,-0.11817 0.1268914,-0.28313 l -0.00793,-0.13244 0.093582,0.006 c 0.1268916,0.008 0.1824066,-0.0396 0.1966819,-0.16179 l 0.00793,-0.0928 0.1847857,-0.0714 c 0.2387147,-0.0912 0.4512581,-0.14434 0.7256609,-0.18161 0.5448404,-0.0714 1.0514548,-0.0555 1.3911274,0.0397 0.2450592,0.0714 0.628906,0.2744 0.956286,0.50757 0.783555,0.55673 0.914729,0.65983 1.111411,0.87237 0.158615,0.17131 0.278369,0.40051 0.325953,0.62336 0.06345,0.29899 0.01586,0.71456 -0.126098,1.05074 -0.05551,0.12768 -0.220475,0.42826 -0.249025,0.44491 -0.01586,0.008 -0.181614,-0.19668 -0.181614,-0.22999 0,-0.008 0.03172,-0.0904 0.07931,-0.17685 0.122926,-0.24427 0.149098,-0.35926 0.146719,-0.64953 -0.0024,-0.48298 -0.14196,-0.80378 -0.450465,-1.03543 -0.13165,-0.0991 -0.355297,-0.22206 -0.372744,-0.20462 -0.0056,0.006 0.0079,0.0397 0.03172,0.0634 0.02379,0.0317 0.04758,0.0936 0.05551,0.1372 0.0071,0.0476 0.03172,0.12055 0.05551,0.17051 0.02379,0.0476 0.04758,0.11341 0.05551,0.14117 0.01586,0.0476 0.0079,0.0476 -0.03965,-0.008 -0.07138,-0.0817 -0.0912,-0.0476 -0.03965,0.0555 0.02379,0.0476 0.04758,0.11579 0.05551,0.15307 0.01586,0.0634 0.01586,0.0714 -0.03965,0.0555 -0.03172,-0.007 -0.05551,-0.008 -0.05551,-7.9e-4 0,0.006 0.03965,0.0809 0.0801,0.16496 0.04758,0.0849 0.0801,0.18002 0.0801,0.21492 l -7.93e-4,0.0634 -0.03965,-0.0476 c -0.05552,-0.0714 -0.06345,-0.0476 -0.01586,0.0714 0.02379,0.0555 0.04758,0.15623 0.05551,0.22047 l 0.01586,0.11579 -0.06345,-0.0714 -0.06345,-0.0714 -7.93e-4,0.0555 c -4.82e-4,0.0317 0.02379,0.0817 0.05551,0.11658 0.05551,0.0714 0.05551,0.0841 -0.0063,0.0635 -0.103893,-0.0397 -0.206199,-0.30771 -0.206992,-0.54563 -4.82e-4,-0.16655 -0.03965,-0.4013 -0.09041,-0.50916 -0.04758,-0.11103 -0.108651,-0.17606 -0.0801,-0.088 0.04758,0.15862 0.07138,0.28392 0.10072,0.57101 0.05551,0.59639 0.122926,0.73518 0.421121,0.90577 0.168132,0.096 0.187958,0.115 0.350538,0.33785 0.160201,0.21968 0.249819,0.28868 0.462362,0.35768 0.241094,0.0793 0.292644,0.11896 0.383846,0.30612 0.09041,0.18558 0.09596,0.23158 0.04758,0.46633 -0.03172,0.16734 -0.04758,0.53929 -0.03172,0.88522 0.0079,0.23158 -0.01586,0.30058 -0.126099,0.37037 -0.092,0.0555 -0.103099,0.0555 -0.05552,-0.0159 0.02379,-0.0317 0.03965,-0.0714 0.03172,-0.0801 -0.02379,-0.0397 -0.04758,-0.0238 -0.06344,0.0317 -0.01586,0.0634 -0.08169,0.13006 -0.132443,0.13006 -0.04758,0 -0.05552,-0.0555 -0.0079,-0.11737 0.01586,-0.0238 0.02379,-0.0476 0.02379,-0.0555 -0.02379,-0.0238 -0.092,0.0634 -0.104686,0.13324 -0.02379,0.11817 -0.05551,0.15941 -0.181614,0.1951 -0.08407,0.0238 -0.173682,0.0317 -0.35371,0.0238 -0.210164,-0.006 -0.244266,-0.002 -0.266472,0.0317 -0.01586,0.0159 -0.03172,0.0317 -0.03965,0.0238 z m 1.124895,-1.55807 c 0.03965,-0.0817 0.03172,-0.14513 -0.02379,-0.19827 -0.03965,-0.0396 -0.04759,-0.0555 -0.03965,-0.12134 0.01586,-0.0967 -0.01586,-0.15068 -0.114996,-0.20144 -0.109443,-0.0555 -0.141166,-0.0396 -0.04758,0.0238 0.07931,0.0555 0.09358,0.1039 0.05551,0.21017 -0.0079,0.0317 4.82e-4,0.0476 0.04758,0.0793 0.07931,0.0476 0.09675,0.11975 0.05551,0.22999 -0.02379,0.0714 -0.02379,0.0833 -0.0016,0.0634 0.01586,-0.0159 0.03965,-0.0476 0.05551,-0.0801 z m -0.816151,-0.67728 c 0,-0.008 -0.07931,-0.0555 -0.168924,-0.0991 -0.172097,-0.0849 -0.298196,-0.18002 -0.337056,-0.25299 -0.0079,-0.0238 -0.03172,-0.1031 -0.03965,-0.17923 -0.01586,-0.12927 -0.08724,-0.33547 -0.108651,-0.31485 -0.0048,0.006 -7.9e-5,0.0396 0.0079,0.0825 0.03172,0.12213 0.03172,0.27519 -0.0016,0.29661 -0.112616,0.0714 -0.535324,-0.0793 -0.7320053,-0.25934 -0.047584,-0.0476 -0.055515,-0.0476 -0.031723,-0.008 0.071376,0.13245 0.3497443,0.28868 0.6067003,0.33785 0.09279,0.0159 0.186372,0.0476 0.209371,0.0635 0.02379,0.0159 0.08327,0.0714 0.134029,0.11816 0.09913,0.0896 0.220474,0.15941 0.349745,0.19986 0.09834,0.0317 0.11103,0.0317 0.11103,0.0159 z m -1.4183308,-1.08953 c 0.09517,-0.0476 0.2061998,-0.13323 0.1895438,-0.15068 -0.0063,-0.006 -0.07138,0.0159 -0.1379933,0.0555 -0.2236463,0.11578 -0.4020875,0.0809 -0.5955978,-0.115 -0.1403729,-0.14275 -0.231577,-0.32754 -0.3782945,-0.77087 -0.071377,-0.21016 -0.157029,-0.43143 -0.1943026,-0.49329 -0.071377,-0.11103 -0.3719508,-0.43222 -0.3909853,-0.41239 -0.00555,0.006 0.039654,0.0634 0.1038932,0.12927 0.1958888,0.20382 0.2355424,0.28074 0.3782954,0.72407 0.1554421,0.48298 0.253783,0.69077 0.4044666,0.85335 0.1935095,0.20857 0.4235004,0.27678 0.6209745,0.1832 z m -1.2170481,-0.75738 c -0.2030264,-0.4925 -0.3545024,-0.69394 -0.6185954,-0.82345 -0.095169,-0.0476 -0.3521241,-0.11103 -0.4433275,-0.11103 -0.063446,0 0.00714,0.0317 0.1443391,0.0714 0.2188882,0.0555 0.3560896,0.13641 0.4988426,0.28868 0.1483036,0.15703 0.2212671,0.27995 0.3251595,0.54643 0.063446,0.16971 0.2030264,0.3997 0.2260247,0.3775 0.00476,-0.005 -0.055515,-0.16179 -0.1316492,-0.34895 z m -7.1220237,3.61244 c -0.047584,-0.0476 -0.047584,-0.0634 -0.00793,-0.1713 0.015861,-0.0476 0.031723,-0.10469 0.031723,-0.13403 1.586e-4,-0.0317 0.015861,-0.0714 0.031723,-0.0888 0.055515,-0.0555 0.1879581,-0.10786 0.2625068,-0.10865 0.071376,-4.1e-4 0.2054057,-0.0476 0.2054057,-0.0714 0,-0.007 -0.015861,-0.008 -0.031723,-7.9e-4 -0.015861,0.006 -0.091996,0.0238 -0.1657521,0.0317 -0.087238,0.0159 -0.1927164,0.0476 -0.3005742,0.10468 -0.1562352,0.0801 -0.1689244,0.0833 -0.2363355,0.0555 -0.085652,-0.0317 -0.1030994,-0.0238 -0.1419599,0.0714 -0.039654,0.0904 -0.071376,0.0634 -0.084066,-0.0634 -0.015861,-0.1372 0.00396,-0.18003 0.1253054,-0.27995 l 0.1110301,-0.0912 0.3465724,0.002 c 0.2490246,0.002 0.3600546,-0.005 0.3941568,-0.0238 0.055515,-0.0317 0.047584,-0.0555 -0.00793,-0.0238 -0.023792,0.008 -0.1760621,0.0159 -0.3545033,0.0159 -0.2387147,-0.006 -0.3386418,1.6e-4 -0.4012944,0.0238 -0.047584,0.0159 -0.085652,0.0238 -0.088824,0.0238 -0.00238,-0.002 0.015861,-0.0317 0.031723,-0.0714 0.047584,-0.0793 0.1609936,-0.11579 0.3219872,-0.10945 0.8592141,0.0317 1.1336171,-0.0238 1.2529744,-0.25775 0.031723,-0.0634 0.079307,-0.14196 0.1023063,-0.18082 0.023792,-0.0396 0.084066,-0.17447 0.1308569,-0.30216 0.1284776,-0.35133 0.1308569,-0.35609 0.2077848,-0.3664 0.039654,-0.006 0.0801,-0.0159 0.096755,-0.0238 0.023792,-0.008 0.039654,0.0159 0.071376,0.0928 0.031723,0.0865 0.047584,0.10627 0.093582,0.11182 0.039654,0.005 0.063446,-0.008 0.095169,-0.0476 l 0.039654,-0.0555 v 0.0634 c 0,0.0317 0.00476,0.0714 0.00793,0.0904 0.015861,0.0476 -0.086445,0.15227 -0.1784413,0.17844 l -0.084065,0.0238 0.055515,0.0238 c 0.031723,0.008 0.055515,0.0238 0.055515,0.0317 0,0.008 -0.039654,0.0317 -0.088824,0.0555 -0.063446,0.0317 -0.086445,0.0555 -0.079307,0.0793 0.00634,0.0238 -0.015861,0.0555 -0.055515,0.0912 -0.039654,0.0317 -0.063446,0.0714 -0.071376,0.10627 -0.00317,0.0634 -0.1332361,0.18716 -0.2022332,0.18716 -0.039654,0 -0.047584,0.007 -0.039654,0.0476 0.00714,0.0317 2.308e-4,0.0555 -0.015861,0.0714 -0.015861,0.0159 -0.031723,0.0397 -0.031723,0.0555 0,0.0634 0.1142023,0.0159 0.3449862,-0.13879 0.1514768,-0.10231 0.2839197,-0.13482 0.3727438,-0.0912 0.063446,0.0317 0.109444,0.0975 0.071377,0.11023 -0.015862,0.005 -0.039654,0.0238 -0.063446,0.0397 -0.031723,0.0238 -0.031723,0.0317 0.039654,0.0159 0.095962,-0.0159 0.1356152,0.0159 0.1356152,0.10706 0,0.0714 -0.063446,0.18717 -0.1023062,0.18717 -0.00793,0 -0.015861,-0.0238 -0.015861,-0.0476 0,-0.0801 -0.047584,-0.10547 -0.1316499,-0.0634 -0.084859,0.0396 -0.1268916,0.0238 -0.1609935,-0.0555 l -0.023792,-0.0634 -0.023792,0.0555 c -0.015862,0.0397 -0.031723,0.0555 -0.055515,0.0476 -0.015861,-0.006 -0.039654,-0.0159 -0.063446,-0.0238 -0.023792,-0.008 -0.031723,4.8e-4 -0.031723,0.0317 0,0.0634 -0.083273,0.0872 -0.2347492,0.0793 -0.1213401,-0.008 -0.1245124,-0.006 -0.1506838,0.0555 -0.031723,0.0793 -0.1023063,0.11103 -0.2220601,0.11103 -0.055515,1.6e-4 -0.1007201,0.008 -0.1078579,0.0238 -0.00793,0.0159 -0.047584,0.0317 -0.083273,0.0476 -0.055515,0.0238 -0.084066,0.0238 -0.1395804,0.006 -0.055515,-0.0159 -0.079307,-0.0159 -0.1054787,0.008 -0.015861,0.0159 -0.079307,0.0476 -0.1300637,0.0634 -0.063446,0.0238 -0.1165816,0.0555 -0.1665452,0.12054 -0.071376,0.0825 -0.079307,0.0888 -0.1697174,0.0888 -0.1070647,0 -0.1467183,0.0396 -0.1253054,0.11737 0.015861,0.0555 -0.023792,0.0555 -0.071376,0.003 z m 6.3689233,-0.0714 c -0.039654,-0.0397 -0.039654,-0.15307 -0.00793,-0.21096 0.023792,-0.0476 0.1229262,-0.0991 0.1911304,-0.0991 0.063446,0 0.2514038,-0.0793 0.2514038,-0.1031 0,-0.0238 -7.13e-4,-0.0238 -0.1237193,0.0238 -0.055515,0.0238 -0.1451321,0.0476 -0.1919234,0.0634 -0.094375,0.0238 -0.2069917,0.12372 -0.2069917,0.1832 0,0.0238 -0.00793,0.0397 -0.015861,0.0397 -0.031723,0 -0.063446,-0.14117 -0.055515,-0.2292 0.00793,-0.10151 0.071376,-0.14751 0.2276115,-0.17051 0.1165816,-0.0159 0.096755,-0.0238 -0.085652,-0.0396 -0.055515,-0.005 -0.015862,-0.0634 0.071376,-0.1039 0.081686,-0.0396 0.1142024,-0.0396 0.2767821,-0.0317 0.2736099,0.0159 0.3981222,-0.0396 0.550392,-0.26171 l 0.071376,-0.10548 0.4139834,-3.2e-4 c 0.2276117,-1.6e-4 0.4361896,-0.006 0.4631541,-0.0159 l 0.047584,-0.0159 -0.039654,0.0555 c -0.023792,0.0317 -0.071377,0.0634 -0.1070647,0.0849 -0.063446,0.0317 -0.071377,0.0317 -0.1118232,-0.008 -0.055515,-0.0555 -0.063446,-0.0555 -0.09041,0.0159 -0.031723,0.0714 -0.1260984,0.16655 -0.254576,0.25061 -0.1038924,0.0714 -0.1506837,0.14355 -0.2284047,0.36561 -0.023792,0.0634 -0.055515,0.13482 -0.063446,0.15148 -0.079307,0.0991 -0.2918505,0.18557 -0.3457793,0.14037 -0.055515,-0.0476 -0.039654,-0.14989 0.039654,-0.25061 0.039654,-0.0476 0.063446,-0.092 0.063446,-0.092 -0.039654,0 -0.1149954,0.0793 -0.1911303,0.18955 -0.1126163,0.16654 -0.1927165,0.21254 -0.3679854,0.21254 -0.092789,0 -0.1411668,-0.008 -0.1633728,-0.0317 z m -2.4683575,-0.71297 c -0.015862,-0.008 -0.039654,-0.0476 -0.055515,-0.0793 -0.015861,-0.0476 -0.039654,-0.0555 -0.079307,-0.0555 -0.055515,0.003 -0.055515,8e-4 -0.047584,-0.0991 0.00555,-0.0912 3.987e-4,-0.10627 -0.047584,-0.13562 -0.063446,-0.0396 -0.071376,-0.0396 -0.071376,0.0159 -2.307e-4,0.0833 -0.039654,0.19588 -0.0801,0.21571 -0.071377,0.0396 -0.099134,0.006 -0.1054786,-0.14592 -0.00317,-0.0793 -0.015861,-0.14593 -0.023792,-0.1491 -0.00793,-0.004 -0.063446,0.0317 -0.1134092,0.0841 -0.1054785,0.1039 -0.1768552,0.11976 -0.1768552,0.0397 0,-0.0317 -0.015861,-0.0555 -0.031723,-0.0634 -0.023792,-0.008 -0.031723,-0.0317 -0.015861,-0.10468 0.015861,-0.0825 0.00793,-0.0904 -0.015861,-0.0634 -0.047584,0.0396 -0.055515,0.002 -0.039654,-0.16337 0.015861,-0.14672 -0.015861,-0.29503 -0.055515,-0.29503 -0.015862,0 -0.055515,0.12452 -0.063446,0.17369 -2.309e-4,0.0396 -0.08248,0.12848 -0.1197539,0.12848 -0.039654,0 -0.063446,-0.0555 -0.063446,-0.13562 -1.586e-4,-0.0238 -0.015861,-0.0833 -0.031723,-0.13086 l -0.031723,-0.0856 -0.00793,0.14513 c -0.00793,0.15227 -0.047584,0.22682 -0.1205468,0.22682 -0.047584,0 -0.055515,-0.0396 -0.055515,-0.15623 0,-0.0991 -0.055515,-0.32675 -0.0801,-0.32675 -0.00793,0 -0.015861,0.0396 -0.023792,0.0928 -0.015861,0.10944 -0.083273,0.19985 -0.1157885,0.1491 -0.00793,-0.0159 -0.015862,-0.0555 -0.015862,-0.0809 -4.826e-4,-0.0634 -0.039654,-0.20144 -0.055515,-0.20144 -0.00793,-7e-5 -0.039654,0.0317 -0.071377,0.0635 -0.047584,0.0555 -0.055515,0.0634 -0.084859,0.0317 -0.015861,-0.0159 -0.039654,-0.0634 -0.055515,-0.11103 -0.023792,-0.0714 -0.039654,-0.0793 -0.080893,-0.0793 -0.1673384,0.0159 -0.1641659,0.0159 -0.1609937,-0.0238 0.00159,-0.0238 0.015861,-0.0714 0.031723,-0.1031 0.023792,-0.0634 0.023792,-0.0634 -0.039654,-0.1253 -0.079307,-0.0714 -0.099134,-0.0793 -0.099134,-0.0317 0,0.0396 -0.023792,0.0396 -0.071376,3.9e-4 -0.055515,-0.0397 -0.071376,-0.0397 -0.071376,0.008 0,0.0555 -0.015861,0.0476 -0.1023065,-0.008 -0.1459252,-0.0991 -0.3259524,-0.44729 -0.3909845,-0.75817 -0.031723,-0.16655 -0.055515,-0.20144 -0.1498904,-0.31327 -0.080893,-0.0928 -0.1062717,-0.16178 -0.14196,-0.39019 -0.015861,-0.0841 -0.039654,-0.19192 -0.071376,-0.2403 -0.047584,-0.0976 -0.095169,-0.13006 -0.079307,-0.0555 0.00793,0.0476 0.00793,0.0476 -0.031723,-0.003 -0.099134,-0.12054 -0.1395803,-0.35529 -0.095168,-0.54801 0.015861,-0.0714 0.023792,-0.15227 0.015861,-0.17289 -0.00793,-0.0238 -0.063446,-0.1031 -0.1149955,-0.1832 l -0.1007201,-0.14592 -0.015861,-0.31644 c -0.015861,-0.34261 -0.023792,-0.40288 -0.071376,-0.31564 -0.015861,0.0317 -0.031723,0.0555 -0.039654,0.0555 -0.00793,0 -0.023792,-0.0476 -0.039654,-0.1031 -0.031723,-0.12847 -0.086445,-0.24347 -0.1237192,-0.25537 -0.023792,-0.007 -0.023792,0.0159 -0.015861,0.10469 0.00635,0.0634 0.00317,0.11341 -0.00635,0.11341 -0.023792,0 -0.071376,-0.0714 -0.09041,-0.14117 -0.00793,-0.0238 -0.039654,-0.0793 -0.063446,-0.11261 -0.023792,-0.0317 -0.047584,-0.0793 -0.047584,-0.0936 0,-0.0159 -0.015861,-0.0317 -0.039654,-0.0396 -0.023792,-0.006 -0.063446,-0.0476 -0.089617,-0.0912 -0.031723,-0.0476 -0.071376,-0.0952 -0.096755,-0.11341 -0.0634459,-0.0397 -0.21968098,-0.0397 -0.36957164,0.007 -0.1617867,0.0476 -0.3108842,0.0714 -0.3108842,0.0476 0,-0.0476 0.2942297,-0.20541 0.48773931,-0.25696 0.055515,-0.0159 0.18637193,-0.0317 0.28391973,-0.0317 0.1284777,-1.6e-4 0.1752689,-0.007 0.1697174,-0.0238 -0.023792,-0.0714 -0.2664721,-0.0635 -0.49249766,0.0159 -0.44015498,0.15068 -0.60432088,0.30692 -0.52977208,0.5036 0.015861,0.0476 0.015861,0.0555 -0.023792,0.0555 -0.063446,0 -0.1919234,-0.14434 -0.2307839,-0.26172 -0.081686,-0.24664 0.00476,-0.47822 0.24268,-0.65349 0.1062716,-0.0793 0.1253054,-0.10231 0.1475114,-0.18875 0.015861,-0.0555 0.047584,-0.14037 0.083272,-0.19034 0.047584,-0.0793 0.084859,-0.10389 0.24902467,-0.1824 0.10468549,-0.0476 0.25298997,-0.12848 0.32833177,-0.17527 0.24268,-0.14831 0.2958159,-0.16576 0.5226345,-0.16734 0.1126162,-7.9e-4 0.2109571,0.005 0.2180948,0.0159 0.00793,0.008 -0.015861,0.0476 -0.055515,0.0849 -0.088824,0.0888 -0.1157885,0.2173 -0.063446,0.30612 l 0.031723,0.0555 -0.00793,-0.0555 c -0.023795,-0.11079 0.02379,-0.21627 0.1697149,-0.36616 0.071376,-0.0793 0.154649,-0.17844 0.176855,-0.22286 0.055515,-0.11658 0.1871651,-0.28233 0.3307112,-0.42825 0.1284775,-0.13007 0.3346762,-0.2522 0.4679124,-0.27679 0.1134091,-0.0238 0.1260984,0.004 0.023792,0.0476 -0.055515,0.0238 -0.095962,0.0476 -0.095962,0.0555 0,0.008 -0.063446,0.0555 -0.1403738,0.1039 -0.099927,0.0634 -0.1379944,0.0975 -0.1308569,0.12054 0.00555,0.0159 -0.023792,0.0714 -0.063446,0.11976 -0.047584,0.0555 -0.063446,0.0904 -0.047584,0.096 0.039654,0.0159 0.031723,0.0555 -0.015861,0.0967 -0.039654,0.0317 -0.039654,0.0397 -0.00635,0.0634 0.031723,0.0238 0.031723,0.0317 -0.039654,0.10151 -0.055515,0.0555 -0.071376,0.0833 -0.055515,0.10389 0.031723,0.0555 -0.031723,0.13721 -0.1705104,0.20224 -0.071376,0.0317 -0.1260985,0.0714 -0.1197539,0.0817 0.023792,0.0317 0.071376,0.0238 0.1736828,-0.0396 0.1253053,-0.0801 0.2014403,-0.1713 0.1943026,-0.23078 -0.00317,-0.0238 0.015861,-0.0635 0.039654,-0.096 0.031723,-0.0317 0.055515,-0.096 0.071376,-0.20144 0.023792,-0.14671 0.095169,-0.28392 0.1800273,-0.35371 0.063446,-0.0555 0.055515,2.3e-4 -0.00555,0.0635 -0.039654,0.0396 -0.063446,0.0864 -0.063446,0.12213 0,0.0317 -0.023792,0.0841 -0.047584,0.11817 -0.031723,0.0396 -0.039654,0.0634 -0.023792,0.0714 0.031723,0.008 0.031723,0.0634 -0.015861,0.13879 -0.023792,0.0317 -0.031723,0.0817 -0.031723,0.10309 0.023792,0.0991 -0.1887513,0.35213 -0.395743,0.46554 -0.081686,0.0476 -0.098341,0.0634 -0.063446,0.0634 0.071376,4.8e-4 0.1705106,-0.0476 0.2450592,-0.12768 0.039654,-0.0396 0.08248,-0.0714 0.099134,-0.0714 0.063446,0 0.2038196,0.10627 0.3227804,0.25061 0.071377,0.0841 0.1594075,0.17051 0.1998541,0.19193 0.071376,0.0396 0.071376,0.0396 0.015861,0.0396 -0.031723,4e-4 -0.088824,-0.0159 -0.1284778,-0.0317 -0.039654,-0.0159 -0.079307,-0.0238 -0.079307,-0.0238 -0.00396,0.004 0.031723,0.0396 0.084066,0.0817 0.047584,0.0397 0.1276846,0.12689 0.1736828,0.19034 0.1245123,0.1721 0.1982679,0.24347 0.3045395,0.29819 0.1078578,0.0555 0.1086509,0.0991 0.00159,0.0817 -0.055515,-0.008 -0.063446,-0.006 -0.047584,0.0238 0.047584,0.0833 0.2236463,0.24268 0.3338832,0.29661 0.086445,0.0397 0.1578213,0.0635 0.2561621,0.0635 0.071376,0.005 0.1364085,0.0159 0.1364085,0.0238 0,0.008 -0.031723,0.0825 -0.071376,0.16337 -0.1268916,0.26806 -0.1372016,0.47505 -0.039654,0.80973 0.085652,0.29581 0.2371285,0.57498 0.4084321,0.75262 0.3267455,0.33865 0.852473,0.53374 1.0650162,0.39495 0.055515,-0.0396 0.063446,-0.14434 0.00397,-0.2173 -0.055515,-0.0714 -0.084066,-0.0714 -0.055515,-0.002 0.031723,0.0849 0.023792,0.16575 -0.015862,0.18954 -0.081686,0.0396 -0.3354696,0.005 -0.4330172,-0.0634 -0.039654,-0.0238 -0.039654,-0.0317 0.023792,-0.0555 0.031723,-0.0159 0.063446,-0.0476 0.063446,-0.0634 0.00634,-0.0317 -8.01e-4,-0.0317 -0.063446,-0.0238 -0.2601276,0.0634 -0.4718778,-0.0714 -0.695524,-0.45284 -0.2054057,-0.34816 -0.286299,-0.5837 -0.286299,-0.82734 2.307e-4,-0.20064 0.055515,-0.35212 0.2418869,-0.66697 0.2981952,-0.50281 0.4338105,-0.7788 0.4924978,-1.00593 0.039654,-0.16337 0.039654,-0.20303 -0.055515,-0.45998 -0.1260985,-0.36085 -0.1641659,-0.53057 -0.165752,-0.73835 -0.00159,-0.17369 0.00317,-0.19431 0.071376,-0.33389 0.1364084,-0.27519 0.3878122,-0.47029 0.8589761,-0.66459 0.2426802,-0.0999 0.6860074,-0.25061 0.875155,-0.29661 0.6519052,-0.15941 1.5935989,-0.12293 2.4524956,0.0944 0.7684866,0.1943 1.6192141,0.59242 2.4792221,1.15915 0.479808,0.31644 0.942804,0.53215 1.629128,0.75897 0.222854,0.0714 0.429052,0.14989 0.459189,0.16892 0.07138,0.0476 0.06345,0.0936 -0.03172,0.14038 -0.06345,0.0317 -0.103892,0.0317 -0.341814,0.0238 -0.149097,-0.006 -0.307712,-0.0159 -0.352124,-0.0238 -0.06344,-0.008 -0.07138,-0.006 -0.04758,0.008 0.04758,0.0317 0.04758,0.0714 -0.0079,0.088 -0.02379,0.006 -0.145133,0.0159 -0.266472,0.0159 -0.212544,2.3e-4 -0.499636,-0.0476 -0.682043,-0.11975 -0.08565,-0.0317 -0.08962,-0.008 -0.004,0.0317 0.122133,0.0555 0.07931,0.0793 -0.17051,0.0714 -0.275196,-0.002 -0.47505,-0.0555 -0.800448,-0.21017 -0.244266,-0.11658 -0.297402,-0.12689 -0.215715,-0.0396 l 0.05552,0.0555 -0.04758,0.0476 c -0.03965,0.0396 -0.05551,0.0396 -0.164959,0.0317 -0.1855789,-0.0159 -0.4774294,-0.0928 -0.5860803,-0.14751 -0.071376,-0.0317 -0.1038924,-0.0396 -0.1197538,-0.0238 -0.031723,0.0238 -0.1744758,0.0238 -0.3235733,2.3e-4 -0.12134,-0.0238 -0.1562352,-0.0159 -0.1157885,0.0238 0.047584,0.0476 0.023792,0.0904 -0.071377,0.11737 -0.071377,0.0159 -0.084066,0.0317 -0.047584,0.0317 0.071376,0.0159 0.055515,0.0555 -0.039654,0.10389 -0.071377,0.0317 -0.1253054,0.0396 -0.2664722,0.0396 -0.1681312,1.6e-4 -0.176062,0.002 -0.1245123,0.0317 0.097548,0.0476 0.099134,0.0555 0.071376,0.0825 -0.015861,0.0159 -0.079307,0.0396 -0.1419599,0.0476 -0.096755,0.0159 -0.1134093,0.0238 -0.087238,0.0476 0.047584,0.0317 0.015861,0.0857 -0.084859,0.13403 -0.1284777,0.0635 -0.3172286,0.0714 -0.5123244,0.0317 -0.096755,-0.0238 -0.1665451,-0.0317 -0.1768551,-0.0159 -0.00793,0.008 -0.023792,0.0555 -0.023792,0.1031 -0.00793,0.0714 -3.148e-4,0.10072 0.047584,0.18082 0.031723,0.0555 0.063446,0.13165 0.071377,0.17527 l 0.00793,0.0793 -0.1023063,-0.0159 -0.1023062,-0.0159 0.099134,0.13085 c 0.1411668,0.18558 0.155442,0.27203 0.055515,0.32834 -0.047584,0.0238 -0.071376,0.0238 -0.1403739,0.007 -0.047584,-0.0159 -0.088824,-0.0238 -0.09041,-0.0159 -0.00238,0.002 0.015861,0.0476 0.047584,0.10707 0.047584,0.088 0.047584,0.10944 0.023792,0.14989 -0.015861,0.0238 -0.031723,0.0555 -0.047584,0.0634 -0.039654,0.0238 -0.1324429,0.0159 -0.1839927,-0.0159 -0.063446,-0.0396 -0.063446,-0.0396 0.00238,0.10152 0.047584,0.0999 0.047584,0.12134 0.023792,0.17368 -0.031723,0.0714 -0.095962,0.0928 -0.2046125,0.0634 -0.047584,-0.0159 -0.084859,-0.0238 -0.09041,-0.0159 -0.00555,0.006 7.93e-5,0.0476 0.00793,0.0872 0.039654,0.14513 0.023792,0.28868 -0.047584,0.33388 -0.015861,0.008 -0.055515,0.0159 -0.098341,0.0159 -0.071377,3.1e-4 -0.071377,0.003 -0.055515,0.0396 0.031723,0.0634 0.023792,0.15306 -0.031723,0.20937 -0.055515,0.0634 -0.1118232,0.0634 -0.1863719,0.0159 l -0.055515,-0.0317 0.015861,0.0841 c 0.00793,0.0476 0.00397,0.10469 -0.00793,0.13403 -0.031723,0.0634 -0.1229262,0.0872 -0.188751,0.0476 -0.071376,-0.0476 -0.071376,-0.0397 -0.055515,0.0396 0.023792,0.10865 -0.00555,0.19668 -0.084066,0.28868 -0.055515,0.0634 -0.086445,0.0841 -0.13165,0.0841 h -0.063446 l 0.1118231,0.10945 c 0.1062717,0.10389 0.1903374,0.24268 0.1911303,0.31723 4.826e-4,0.0476 -0.055515,0.0975 -0.09041,0.0841 -0.039654,-0.0159 -0.039654,0.007 0.015862,0.0555 0.055515,0.0555 0.079307,0.11817 0.080893,0.20144 0.00238,0.0476 0.00476,0.0555 0.00793,0.0159 0.015862,-0.0714 0.047584,-0.0476 0.1142024,0.0793 0.1149953,0.21175 0.047584,0.54563 -0.1023063,0.48932 -0.031723,-0.0159 -0.031723,-0.008 -0.00159,0.0317 0.1134092,0.1594 0.1379946,0.29819 0.063446,0.35767 -0.023792,0.0159 -0.047584,0.0555 -0.055515,0.0841 -0.00793,0.0238 -0.039654,0.0833 -0.071377,0.12292 -0.055515,0.0714 -0.055515,0.0793 -0.055515,0.30216 l 0.00476,0.2292 -0.071377,0.0865 c -0.071376,0.088 -0.071376,0.13402 -0.031723,0.27995 0.015862,0.0396 0.00793,0.0476 -0.047584,0.0317 l -0.063446,-0.0159 0.00793,0.12134 c 0.00793,0.11896 0.00793,0.12134 -0.047584,0.15306 -0.0801,0.0397 -0.1149956,0.0397 -0.221267,-0.008 l -0.086445,-0.0396 0.00634,0.0634 c 0.00714,0.0714 -0.015861,0.0864 -0.063446,0.0555 z M 4.7590953,293.0384 c -0.1276845,-0.0634 -0.2260255,-0.16733 -0.2260255,-0.24347 0,-0.0317 0.015861,-0.0317 0.079307,-0.0317 0.088824,0 0.142753,-0.0159 0.142753,-0.0396 0,-0.008 -0.015861,-0.0159 -0.031723,-0.0159 -0.165752,0 -0.3584687,-0.1602 -0.4163628,-0.34498 -0.039654,-0.13007 -0.071376,-0.1602 -0.1950957,-0.21413 -0.1863719,-0.0801 -0.2712306,-0.24427 -0.2934366,-0.56705 -0.015861,-0.26726 -0.031723,-0.31088 -0.1364084,-0.37036 -0.143546,-0.0841 -0.1911304,-0.23872 -0.1950958,-0.63605 -0.00238,-0.20382 -0.00317,-0.20857 -0.031723,-0.13085 -0.055515,0.17527 -0.023792,0.58053 0.063446,0.71059 0.015861,0.0238 0.063446,0.0714 0.108651,0.10072 0.039654,0.0317 0.084066,0.0714 0.091203,0.0849 0.00714,0.0159 0.023792,0.13482 0.031723,0.2633 0.023792,0.38622 0.086445,0.50677 0.3029535,0.6178 0.1213401,0.0634 0.1340292,0.0793 0.1919235,0.20144 0.031723,0.0714 0.085652,0.16179 0.1142024,0.19589 0.031723,0.0317 0.055515,0.088 0.063446,0.12055 0.047584,0.20302 0.2260254,0.36957 0.3909843,0.36878 0.071376,-3.2e-4 0.063446,-0.002 -0.055515,-0.0634 z m -3.3643699,-4.66477 c 0.047584,-0.0476 0.047584,-0.0944 0.015861,-0.14116 -0.015861,-0.0238 -0.023792,-0.0238 -0.015861,0.0238 0.00793,0.12451 -0.031723,0.13879 -0.1768551,0.0714 -0.1078578,-0.0476 -0.27360983,-0.0714 -0.29502277,-0.0317 -0.005551,0.008 0.0317229,0.0159 0.0713765,0.0159 0.0475843,3.9e-4 0.13244297,0.0238 0.19509567,0.0555 0.1332361,0.0634 0.1498906,0.0634 0.2014403,0.0159 z m -0.79870284,-0.37192 c -0.00634,-0.0317 -0.063446,-0.0317 -0.11103,-4e-4 -0.047584,0.0317 -0.047584,0.0317 0.031723,0.0238 0.047584,-0.003 0.079307,-0.0159 0.079307,-0.0238 z m 0.32436645,-0.0396 c 0.0158614,-0.0159 0.0317229,-0.0476 0.0317229,-0.0635 0,-0.0238 0.003965,-0.0238 0.0317229,0.002 0.0634458,0.0634 0.20937099,0.0159 0.20937099,-0.0793 0,-0.0396 4.763e-4,-0.0396 0.031723,-0.002 0.031723,0.0397 0.031723,0.0397 0.031723,-0.008 l 0.00159,-0.0476 0.023792,0.0476 c 0.023792,0.0476 0.023792,0.0476 0.039654,0.008 0.015861,-0.0476 -0.047584,-0.0999 -0.1554421,-0.11658 -0.1490975,-0.0238 -0.21730171,0.0238 -0.29185048,0.19431 -0.0317229,0.0714 -0.0317229,0.0952 -0.0158614,0.0952 0.0158614,0 0.0396536,-0.0159 0.055515,-0.0317 z m 0.11499539,-0.0864 c -0.015861,-0.008 -0.023792,-0.0397 -0.023792,-0.0634 0.00793,-0.0555 0.091203,-0.0634 0.1245123,-0.0159 0.039654,0.0634 -0.039654,0.12055 -0.1038924,0.0793 z m 0.079307,-0.0555 c 0,-0.0159 -0.015861,-0.0317 -0.031723,-0.0317 -0.031723,0 -0.055515,0.0317 -0.039654,0.0476 0.023792,0.0238 0.063446,0.0159 0.063446,-0.0159 z m -0.16178664,-0.12213 c 0.0983409,-0.0476 0.11975384,-0.0476 0.20699174,-0.0317 0.1594075,0.0317 0.2323702,0.0238 0.2878852,-0.0317 0.023792,-0.0238 0.047584,-0.0634 0.047584,-0.0841 0,-0.0317 -0.00793,-0.0238 -0.055515,0.0159 -0.047584,0.0476 -0.063446,0.0476 -0.2506108,0.0396 -0.1617867,-0.005 -0.21809477,0.002 -0.30374654,0.0397 -0.055515,0.0238 -0.12609844,0.0397 -0.15068367,0.0317 -0.0634457,-0.0159 -0.0793072,-0.0817 -0.0396536,-0.14513 0.015861,-0.0317 0.0317229,-0.0555 0.023792,-0.0634 -0.015861,-0.0159 -0.094376,0.0944 -0.094376,0.12768 0,0.0397 0.039654,0.11183 0.071376,0.13165 0.0396536,0.0317 0.14433911,0.0159 0.2521969,-0.0396 z m 7.91945764,5.68783 c -0.079307,-0.15623 -0.1594075,-0.23475 -0.3640201,-0.3553 -0.2894704,-0.17051 -0.5607018,-0.47029 -0.6701454,-0.74231 -0.047584,-0.12293 -0.071376,-0.39257 -0.039654,-0.48853 0.023792,-0.0634 0.1245123,-0.0975 0.2950224,-0.0975 0.178442,0 0.2902643,0.0476 0.3521248,0.14513 0.047584,0.0714 0.071376,0.0833 0.071376,0.0238 0,-0.0793 -0.1197546,-0.17209 -0.2514038,-0.19906 -0.2387146,-0.0476 -0.4322247,7.9e-4 -0.6519056,0.16972 -0.063446,0.0476 -0.1245123,0.0912 -0.1308569,0.0912 -0.00634,0 -0.00793,-0.0238 -0.00793,-0.0476 0,-0.0397 0.023792,-0.0635 0.1157885,-0.12451 0.1863719,-0.11976 0.3497452,-0.17131 0.5480132,-0.17289 0.36402,-0.002 0.4599817,0.0714 0.7945788,0.63763 0.2061987,0.34815 0.3656062,0.55673 0.5099452,0.66776 0.055515,0.0397 0.1023063,0.0904 0.1030993,0.10469 0.00238,0.0634 0.1165816,0.24347 0.2188879,0.33864 0.063446,0.0555 0.1062716,0.11182 0.098341,0.12055 -0.00793,0.008 -0.2220601,0.0159 -0.4758431,0.0238 l -0.4607748,0.008 z m -5.1957313,-4.66366 c -0.1173747,-0.0238 -0.2077848,-0.21334 -0.2077848,-0.43143 0,-0.0634 0.023792,-0.1943 0.047584,-0.29106 0.079307,-0.26488 0.0801,-0.32516 0.023792,-0.43143 -0.023792,-0.0555 -0.093583,-0.12689 -0.1570284,-0.17685 -0.063446,-0.0476 -0.145132,-0.11421 -0.1863719,-0.14752 -0.1157885,-0.0928 -0.1784412,-0.23554 -0.1911303,-0.43143 -0.015861,-0.20302 0.023792,-0.32198 0.1459252,-0.48932 0.2490247,-0.33785 0.7637283,-0.5837 1.4763829,-0.70425 0.1372013,-0.0238 0.2862989,-0.0397 0.3322971,-0.0397 l 0.083273,4.7e-4 -0.1268914,0.0714 c -0.3156427,0.17051 -0.5186691,0.39336 -0.5955972,0.65349 -0.063446,0.21492 -0.031723,0.43857 0.1094439,0.87468 0.1173746,0.35371 0.1237194,0.44412 0.047584,0.65983 -0.063446,0.18241 -0.2617137,0.58291 -0.3481587,0.70822 -0.039654,0.0555 -0.099134,0.11103 -0.145132,0.13482 -0.081686,0.0396 -0.2323701,0.0635 -0.3132636,0.0476 z m 7.3768389,-0.0396 c -0.143546,-0.0159 -0.390985,-0.0714 -0.517876,-0.11738 -0.157822,-0.0555 -0.158615,-0.0555 -0.172097,-0.008 -0.0079,0.0317 -0.02379,0.0397 -0.137995,0.0397 -0.212543,-4.8e-4 -0.4433268,-0.0634 -0.7415218,-0.20937 l -0.1506837,-0.0714 -0.00793,0.0555 c -0.023792,0.12451 -0.3013673,0.10865 -0.5979762,-0.0317 -0.093583,-0.0476 -0.1744758,-0.0817 -0.1784412,-0.0817 -0.00476,0 -0.00793,0.0238 -0.00793,0.0476 0,0.0476 -0.00793,0.0476 -0.079307,0.0476 -0.039654,-1.6e-4 -0.1229269,-0.0159 -0.1808204,-0.0317 l -0.1054786,-0.0317 v 0.0555 c 0,0.0476 -0.00793,0.0634 -0.063446,0.0793 -0.071377,0.0238 -0.2498173,0.0317 -0.3973287,0.0238 -0.086445,-0.005 -0.093582,-0.008 -0.1586142,-0.11658 -0.055515,-0.0904 -0.063446,-0.12531 -0.055515,-0.1832 0.00634,-0.0396 0.015861,-0.0714 0.015861,-0.0793 0.00397,-0.003 0.055515,0.007 0.1062717,0.0238 0.1356152,0.0397 0.3568818,0.0397 0.4861525,-7.9e-4 0.1102378,-0.0397 0.2268194,-0.12848 0.2268194,-0.17844 0,-0.0159 0.023792,-0.0317 0.063446,-0.0397 0.071377,-0.0159 0.1372023,-0.0634 0.1372023,-0.11103 7.93e-5,-0.0238 0.023792,-0.0317 0.09041,-0.0396 0.1165807,-0.006 0.2609198,-0.0714 0.2926427,-0.13006 0.015861,-0.0238 0.047584,-0.0714 0.071376,-0.0936 0.023792,-0.0238 0.047584,-0.0555 0.039654,-0.0793 -0.015861,-0.0317 -0.023792,-0.0317 0.145133,-0.008 0.083272,0.0159 0.1546489,0.0159 0.1847856,0.002 0.039654,-0.0159 0.080893,-3.9e-4 0.2307832,0.0809 0.6384234,0.35053 1.5112784,0.69711 2.3245744,0.92337 0.259335,0.0714 0.300575,0.0888 0.272024,0.11024 -0.08407,0.0634 -0.521049,0.0714 -0.823526,0.0159 -0.09834,-0.0159 -0.1832,-0.0238 -0.187959,-0.0238 -0.0048,0.006 0.03172,0.0317 0.08803,0.0555 0.06345,0.0317 0.08724,0.0555 0.06345,0.0634 -0.04758,0.0159 -0.204612,0.0238 -0.28154,0.0159 z m -9.2368305,-1.7362 c -0.015861,-0.008 -0.083273,-0.0238 -0.1459253,-0.0238 -0.063446,-0.002 -0.1134093,-0.008 -0.1134093,-0.0159 0,-0.005 0.031723,-0.0476 0.071376,-0.10151 0.1237192,-0.16972 0.1554421,-0.25537 0.1831996,-0.49567 0.015861,-0.12452 0.039654,-0.26172 0.063446,-0.30454 0.039654,-0.0825 0.2458523,-0.3093 0.2831268,-0.3093 0.031723,0 0.047584,0.11817 0.023792,0.16734 -0.023792,0.0476 -0.055515,0.16178 -0.063446,0.23951 -0.00317,0.0317 -0.015861,0.0634 -0.031723,0.0833 -0.015861,0.0159 -0.015861,0.0397 -0.015861,0.0555 0.00635,0.0159 0.00238,0.0397 -0.00793,0.0476 -0.015861,0.008 -0.015861,0.0238 0.00396,0.0555 0.015861,0.0317 0.015861,0.0476 0.00159,0.0793 -0.015861,0.0238 -0.015861,0.0634 -0.015861,0.088 0.00555,0.0317 -7.931e-4,0.0714 -0.015861,0.096 -0.015861,0.0317 -0.015861,0.0476 -0.00317,0.0634 0.023792,0.0238 -0.023792,0.1372 -0.1086509,0.23395 -0.055515,0.0714 -0.063446,0.0714 -0.1126162,0.0397 z"
       id="path914-4"
       inkscape:connector-curvature="0"
       sodipodi:nodetypes="csccscsssscccscccccsccsscscscscccsccccccccccccsscccccccccccccccccscccccssccccccccccccscsssccccccccscscccccccccccsccscsccsccssscscssscscccsccsccscccccccccsccsscscccssscscccsccscccscsscscccccsssscsscsccccccccsccsssccccccccccccccsccsscsccccscccccccccscsccccccccccccccccccccccscscccccssscsscsccccccccscsscccccccccccsscscccccccscsccsccccsccssccscsssccccccscccccsccsscccccssccsscccccccccccccscccscsssccscccccccssccccscsccccssscccccccccccscscccccccccccssscccsccsccccssccccsssccscccccccccsccsccccccccscccccccsccsccccsccsscccscccsscsssccccccsccscsccsssssccsscccscssccccccccscscccsccscccccccccccccccccccccccccccccccscscccccccccssccccccccscccccssssccccsccccccsccccccccccsccssccscscccccccsccccccsssscccscsccccsccccccsssscssccsccccscccsccccccsccsscccccccsccsccssscccscccccccsccscscsccscscsccccsscccsccccccccccccc" />
  </g>
</svg>
