<?xml version="1.0" encoding="UTF-8" standalone="no"?>
<!-- Created with Inkscape (http://www.inkscape.org/) -->

<svg
   xmlns:dc="http://purl.org/dc/elements/1.1/"
   xmlns:cc="http://creativecommons.org/ns#"
   xmlns:rdf="http://www.w3.org/1999/02/22-rdf-syntax-ns#"
   xmlns:svg="http://www.w3.org/2000/svg"
   xmlns="http://www.w3.org/2000/svg"
   xmlns:sodipodi="http://sodipodi.sourceforge.net/DTD/sodipodi-0.dtd"
   xmlns:inkscape="http://www.inkscape.org/namespaces/inkscape"
   width="50"
   height="50"
   viewBox="0 0 13.229166 13.229167"
   version="1.1"
   id="svg1324"
   inkscape:version="0.92.3 (2405546, 2018-03-11)">
  <defs
     id="defs1318" />
  <sodipodi:namedview
     id="base"
     pagecolor="#ffffff"
     bordercolor="#666666"
     borderopacity="1.0"
     inkscape:pageopacity="0.0"
     inkscape:pageshadow="2"
     inkscape:zoom="3.959798"
     inkscape:cx="23.673086"
     inkscape:cy="29.995853"
     inkscape:document-units="mm"
     inkscape:current-layer="layer1"
     showgrid="false"
     units="px"
     inkscape:window-width="1101"
     inkscape:window-height="1017"
     inkscape:window-x="2731"
     inkscape:window-y="3"
     inkscape:window-maximized="0" />
  <metadata
     id="metadata1321">
    <rdf:RDF>
      <cc:Work
         rdf:about="">
        <dc:format>image/svg+xml</dc:format>
        <dc:type
           rdf:resource="http://purl.org/dc/dcmitype/StillImage" />
        <dc:title></dc:title>
      </cc:Work>
    </rdf:RDF>
  </metadata>
  <g
     inkscape:label="Layer 1"
     inkscape:groupmode="layer"
     id="layer1"
     transform="translate(0,-283.77082)">
    <path
       style="fill:#000000;stroke-width:0.01787031"
       d="m 4.7704815,286.27898 c -0.2329501,3e-5 -0.4615633,0.007 -0.5855148,0.0189 -0.3554827,0.033 -0.7177778,0.1514 -1.1469671,0.374 -0.6069743,0.31523 -1.125646,0.73357 -1.4466224,1.16569 -0.2949443,0.39725 -0.5600718,0.83029 -0.70261751,1.14738 -0.1642134,0.36523 -0.2167192,0.60516 -0.3458548,1.57697 -0.1144213,0.86158 -0.2246863,1.42856 -0.2890678,1.53488 -0.1643374,0.17658 -0.2132221,0.27807 -0.2380559,0.4932 -0.043645,0.38164 0.00431,0.71612 0.1308986,0.91508 0.1243552,0.19586 0.3650596,0.37566 0.6201644,0.46333 0.34217801,0.11751 0.090621,0.18087 1.33721931,0.19953 l 3.204e-4,-0.003 0.6522473,-0.0302 c 0.1862842,0.0106 0.3561942,0.0597 0.6875386,0.20082 0.2998676,0.1256 0.4107238,0.15772 0.5713982,0.15647 0.14416,-10e-4 0.2477339,-0.0299 0.4196456,-0.11567 0.1933308,-0.0964 0.2043549,-0.14773 0.022137,-0.098 -0.061588,0.0155 -0.1714612,0.0466 -0.2444725,0.0652 -0.2620892,0.0715 -0.4040728,0.0402 -0.8582201,-0.18732 l -0.2675717,-0.1343 c 0,0 -0.3471341,-0.13688 -0.6259393,-0.15038 -1.28524,0 -1.200815,-0.11196 -1.63944121,-0.32708 -0.1446566,-0.0709 -0.3513006,-0.26984 -0.4180415,-0.40228 -0.084186,-0.16744 -0.05939,-0.37822 0.075395,-0.63812 0.07239,-0.13989 0.3153494,-0.39614 0.3949417,-0.4148 0.062848,-0.0155 0.38909161,0.0251 0.81939971,0.0562 0,0 0.4397902,0.0867 0.5633774,0.15069 0.073235,0.038 0.00834,0.0681 0.00834,0.0681 0,0.009 -0.019761,0.0399 -0.044595,0.071 -0.057863,0.069 -0.056132,0.0919 0.011229,0.14781 0.1550558,0.13057 0.2661254,0.14934 0.7148092,0.0996 0.3765977,-0.0435 0.8253508,-0.0497 1.0449432,-0.0186 0.4066093,0.0541 0.9241817,0.17165 1.0600222,0.24066 0.1219338,0.0615 0.1566593,0.11112 0.2168811,0.31071 0.04824,0.15855 0.1399715,0.13134 0.139561,-0.0434 -3.778e-4,-0.16103 -0.053198,-0.3047 -0.1719649,-0.47071 l -0.028554,-0.0373 0.087266,0.0125 c 0.1643995,0.0199 0.3013884,0.0621 0.4908699,0.15166 0.2083553,0.10134 0.3042374,0.12598 0.3452131,0.0887 0.022971,-0.0192 0.022421,-0.0311 -0.00738,-0.0871 -0.018563,-0.0361 -0.067444,-0.10726 -0.1077989,-0.16322 l -0.073791,-0.0983 0.1437319,-0.0125 c 0.079033,-0.006 0.1517649,-0.0185 0.1616983,-0.0248 0.035078,-0.0218 0.016876,-0.0606 -0.05775,-0.12274 -0.041783,-0.0324 -0.069712,-0.0696 -0.062883,-0.0758 0.025585,-0.0249 0.5598071,-0.0458 1.3705857,-0.0495 l 0.830308,-0.004 0.2499264,0.0498 c 0.1375169,0.0311 0.2783421,0.0571 0.3124885,0.062 0.059228,0.0124 0.05739,0.006 -0.041387,-0.0498 -0.057118,-0.0317 -0.112986,-0.0688 -0.1241614,-0.0813 -0.026386,-0.0243 0.01048,-0.0242 0.3747295,6.2e-4 0.1593082,0.009 0.2950719,0.0124 0.3019012,0.006 0.015956,-0.0155 -0.031713,-0.0691 -0.1565651,-0.17351 l -0.1007406,-0.0845 0.1331443,-0.0125 c 0.1239205,-0.01 0.2200892,-0.0453 0.2200892,-0.0826 0,-0.0186 -0.095474,-0.0354 -0.2656473,-0.0372 -0.2985634,-0.003 -0.4204554,-0.0367 -0.325963,-0.0864 0.019619,-0.009 0.1388397,-0.0399 0.2646848,-0.071 0.246723,-0.0559 0.349022,-0.0938 0.4607118,-0.17094 0.066182,-0.0435 0.080819,-0.0497 0.1966684,-0.0373 0.1828764,0.0155 0.4742544,0.0915 0.6676474,0.17415 0.204258,0.0871 0.276886,0.10251 0.437933,0.0839 0.167808,-0.018 0.532263,-0.11112 0.729567,-0.18636 0.199167,-0.0758 0.280104,-0.0958 0.32853,-0.0771 0.08468,0.0314 0.05823,0.23838 -0.08438,0.65932 -0.04843,0.14176 -0.08455,0.26104 -0.08021,0.26539 0.01093,0.0112 0.116468,-0.20454 0.154961,-0.31584 0.01794,-0.0534 0.05377,-0.19389 0.0786,-0.31327 0.05619,-0.2686 0.07616,-0.29989 0.16587,-0.29367 0.05656,0.004 0.07419,0.0173 0.124481,0.0932 l 0.05904,0.0877 -0.01251,-0.0771 c -0.01546,-0.0945 0.01644,-0.12563 0.139241,-0.12563 0.0791,0 0.08894,0.005 0.129294,0.0671 0.02409,0.0367 0.07609,0.16166 0.11582,0.27793 0.129259,0.37803 0.139681,0.32708 0.017,-0.0851 -0.03793,-0.12747 -0.06898,-0.24664 -0.06898,-0.27151 0,-0.028 0.02598,-0.0604 0.0831,-0.0977 0.172532,-0.11875 0.416758,-0.40605 0.416758,-0.48999 0,-0.0597 -0.121589,-0.29712 -0.199877,-0.39038 l -0.07283,-0.0864 0.07187,-0.18153 c 0.09561,-0.24311 0.115543,-0.30595 0.107479,-0.35569 -0.0044,-0.028 -0.01989,0.002 -0.04844,0.0932 -0.0506,0.16291 -0.131857,0.34699 -0.160415,0.36565 -0.0347,0.0218 -0.07147,-0.0225 -0.266289,-0.32099 -0.329581,-0.50468 -0.415697,-0.60521 -0.717055,-0.84085 -0.350708,-0.27396 -0.790462,-0.54563 -1.056493,-0.65258 l -0.101062,-0.0437 -0.01123,-0.20756 c -0.01676,-0.31505 -0.04468,-0.57015 -0.07572,-0.69948 -0.03831,-0.15855 -0.143721,-0.37913 -0.244794,-0.51281 -0.209224,-0.27668 -0.6130242,-0.46995 -1.0029142,-0.47617 -0.1517342,0 -0.1670728,-2.6e-4 -0.2412636,0.0495 -0.1289493,0.0852 -0.2623801,0.2384 -0.3333425,0.38204 -0.057925,0.11813 -0.06662,0.15169 -0.072829,0.29656 -0.00559,0.14114 -5.749e-4,0.1809 0.039783,0.29592 0.025455,0.0734 0.04652,0.14714 0.04652,0.1658 0,0.0373 -0.00148,0.0374 -0.1697191,-0.006 -0.2055986,-0.051 -0.5378762,-0.25297 -0.8643159,-0.52406 -0.2256767,-0.18776 -0.3900985,-0.30052 -0.6111811,-0.41866 -0.5007168,-0.26798 -1.2143606,-0.46423 -1.8637013,-0.52019 -0.1406707,-0.0123 -0.3779103,-0.0187 -0.6108602,-0.0186 z m 7.7117905,5.87925 c -0.02483,0.0237 -0.05608,0.23756 -0.05422,0.37497 l 0.0013,0.10763 0.02727,-0.0803 c 0.03352,-0.0989 0.05423,-0.42715 0.02567,-0.40228 z m 0.432479,0.061 c -0.0015,0.006 -0.0026,0.018 -0.0026,0.0366 v 6.2e-4 c 0,0.0342 0.0037,0.0498 0.008,0.0312 0.0044,-0.0193 0.0044,-0.0443 0,-0.063 -0.0022,-0.009 -0.004,-0.0109 -0.0055,-0.006 z"
       id="path884-4"
       inkscape:connector-curvature="0"
       sodipodi:nodetypes="scccccccccccccccccccccccccccccccccccccccccccccccccccccccccscccccccccccccccccscccsccccccccccccccccccccsccccsccccccssccc" />
  </g>
</svg>
