<?xml version="1.0" encoding="UTF-8" standalone="no"?>
<!-- Created with Inkscape (http://www.inkscape.org/) -->

<svg
   xmlns:dc="http://purl.org/dc/elements/1.1/"
   xmlns:cc="http://creativecommons.org/ns#"
   xmlns:rdf="http://www.w3.org/1999/02/22-rdf-syntax-ns#"
   xmlns:svg="http://www.w3.org/2000/svg"
   xmlns="http://www.w3.org/2000/svg"
   xmlns:sodipodi="http://sodipodi.sourceforge.net/DTD/sodipodi-0.dtd"
   xmlns:inkscape="http://www.inkscape.org/namespaces/inkscape"
   width="50"
   height="50"
   viewBox="0 0 13.229166 13.229167"
   version="1.1"
   id="svg1324"
   inkscape:version="0.92.3 (2405546, 2018-03-11)">
  <defs
     id="defs1318" />
  <sodipodi:namedview
     id="base"
     pagecolor="#ffffff"
     bordercolor="#666666"
     borderopacity="1.0"
     inkscape:pageopacity="0.0"
     inkscape:pageshadow="2"
     inkscape:zoom="7.9195959"
     inkscape:cx="39.551751"
     inkscape:cy="33.155078"
     inkscape:document-units="mm"
     inkscape:current-layer="layer1"
     showgrid="false"
     units="px"
     inkscape:window-width="1101"
     inkscape:window-height="1017"
     inkscape:window-x="2731"
     inkscape:window-y="3"
     inkscape:window-maximized="0" />
  <metadata
     id="metadata1321">
    <rdf:RDF>
      <cc:Work
         rdf:about="">
        <dc:format>image/svg+xml</dc:format>
        <dc:type
           rdf:resource="http://purl.org/dc/dcmitype/StillImage" />
        <dc:title></dc:title>
      </cc:Work>
    </rdf:RDF>
  </metadata>
  <g
     inkscape:label="Layer 1"
     inkscape:groupmode="layer"
     id="layer1"
     transform="translate(0,-283.77082)">
    <path
       style="fill:#000000;stroke-width:0.0594432"
       d="m 5.3928484,296.89754 c -0.1000001,-0.06 -0.6320002,-0.566 -1.1845001,-1.1255 -0.911,-0.923 -1.0135,-1.0474 -1.1002,-1.3403 -0.171,-0.579 -0.04,-0.812 0.96,-1.7851 l 0.5169999,-0.5 0.7630002,0.75 0.7629998,0.75 -0.5539999,0.547 -0.5539999,0.547 0.599,0.587 c 0.3290001,0.322 0.642,0.675 0.6939999,0.782 0.1280001,0.264 0.07,0.497 -0.1899999,0.718 -0.2400001,0.207 -0.4520002,0.228 -0.713,0.07 z m 1.8589,0.05 c -0.1620001,-0.07 -0.3659999,-0.297 -0.4060002,-0.461 -0.07,-0.286 0.07,-0.508 0.705,-1.1319 l 0.6310001,-0.618 -0.554,-0.547 -0.5539999,-0.547 0.7629999,-0.75 0.7629999,-0.75 0.457,0.441 c 0.251,0.243 0.589,0.595 0.75,0.783 0.2809998,0.327 0.2939998,0.358 0.2939998,0.698 0,0.201 -0.04,0.441 -0.09,0.55 -0.1149998,0.238 -2.0158994,2.1827 -2.2497996,2.3016 -0.1870001,0.1 -0.324,0.103 -0.5049999,0.03 z m -4.9839001,-5.2458 c -0.196,-0.08 -0.383,-0.351 -0.383,-0.56 0,-0.117 0.07,-0.278 0.173,-0.419 0.29,-0.385 2.7838,-2.7814 2.964,-2.8482 0.2400001,-0.09 3.0061001,-0.08 3.1783002,0.004 0.3749997,0.196 3.0714995,2.8958 3.1333995,3.1381 0.08,0.332 -0.299,0.742 -0.695,0.742 -0.167,0 -0.308,-0.112 -1.0741998,-0.854 -0.485,-0.47 -0.9,-0.854 -0.923,-0.854 -0.02,0 -0.04,0.305 -0.04,0.678 v 0.678 h -2.0088999 -2.0089 v -0.692 -0.691 l -0.794,0.774 c -0.952,0.927 -1.1569,1.0493 -1.5209,0.905 z m 3.9186001,-4.2454 c -0.55,-0.136 -1.0611001,-0.544 -1.3091002,-1.045 -0.1109998,-0.223 -0.1379997,-0.38 -0.14,-0.78 -0.00169,-0.459 0.02,-0.532 0.2020001,-0.872 0.396,-0.721 1.1675999,-1.1025 1.9459001,-0.961 0.667,0.122 1.1229999,0.45 1.4123001,1.0186 0.1569997,0.309 0.1839999,0.427 0.1839999,0.814 0,0.757 -0.3650001,1.3236 -1.0814999,1.6804 -0.3350001,0.167 -0.8660001,0.23 -1.2132001,0.144 z"
       id="path1030"
       inkscape:connector-curvature="0" />
  </g>
</svg>
