<?xml version="1.0" encoding="UTF-8" standalone="no"?>
<!-- Created with Inkscape (http://www.inkscape.org/) -->

<svg
   xmlns:dc="http://purl.org/dc/elements/1.1/"
   xmlns:cc="http://creativecommons.org/ns#"
   xmlns:rdf="http://www.w3.org/1999/02/22-rdf-syntax-ns#"
   xmlns:svg="http://www.w3.org/2000/svg"
   xmlns="http://www.w3.org/2000/svg"
   xmlns:sodipodi="http://sodipodi.sourceforge.net/DTD/sodipodi-0.dtd"
   xmlns:inkscape="http://www.inkscape.org/namespaces/inkscape"
   width="50"
   height="50"
   viewBox="0 0 13.229166 13.229167"
   version="1.1"
   id="svg1324"
   inkscape:version="0.92.3 (2405546, 2018-03-11)">
  <defs
     id="defs1318" />
  <sodipodi:namedview
     id="base"
     pagecolor="#ffffff"
     bordercolor="#666666"
     borderopacity="1.0"
     inkscape:pageopacity="0.0"
     inkscape:pageshadow="2"
     inkscape:zoom="3.959798"
     inkscape:cx="23.673086"
     inkscape:cy="29.995853"
     inkscape:document-units="mm"
     inkscape:current-layer="layer1"
     showgrid="false"
     units="px"
     inkscape:window-width="1101"
     inkscape:window-height="1017"
     inkscape:window-x="2731"
     inkscape:window-y="3"
     inkscape:window-maximized="0" />
  <metadata
     id="metadata1321">
    <rdf:RDF>
      <cc:Work
         rdf:about="">
        <dc:format>image/svg+xml</dc:format>
        <dc:type
           rdf:resource="http://purl.org/dc/dcmitype/StillImage" />
        <dc:title></dc:title>
      </cc:Work>
    </rdf:RDF>
  </metadata>
  <g
     inkscape:label="Layer 1"
     inkscape:groupmode="layer"
     id="layer1"
     transform="translate(0,-283.77082)">
    <path
       style="fill:#000000;stroke-width:0.00679472"
       d="m 7.3768196,295.43697 c -0.1881859,-0.002 -0.3465168,-0.006 -0.3517355,-0.008 -0.00683,-0.002 0.00844,-0.0384 0.054491,-0.13124 0.094553,-0.1911 0.2023075,-0.36455 0.3200387,-0.51652 0.023024,-0.0307 0.076748,-0.10668 0.119036,-0.16961 0.1040702,-0.15656 0.1724526,-0.2525 0.4034638,-0.56717 0.3363858,-0.45818 0.3950211,-0.54184 0.5036194,-0.71605 0.1580239,-0.25404 0.2101358,-0.38758 0.2095985,-0.53724 -2.034e-4,-0.0614 -0.00276,-0.0768 -0.027629,-0.14582 -0.01535,-0.046 -0.053723,-0.15119 -0.08542,-0.24099 -0.1351531,-0.38143 -0.2551868,-0.81069 -0.33063,-1.18192 -0.01535,-0.0767 -0.029164,-0.13661 -0.030699,-0.13891 -0.00184,-0.002 -0.022257,3.8e-4 -0.046049,0.005 -1.0187743,0.19878 -1.8999093,0.23562 -2.7156166,0.11282 -0.035304,-0.005 -0.066003,-0.008 -0.067538,-0.007 -0.00146,0.002 0.00207,0.0307 0.00767,0.0614 0.00583,0.0307 0.038374,0.20492 0.072143,0.38681 0.1174243,0.6301 0.1521142,0.78529 0.2718411,1.21208 0.063701,0.22871 0.1058354,0.41291 0.1329273,0.58789 0.027629,0.18036 0.089488,0.39372 0.1577937,0.54721 0.018419,0.0384 0.059096,0.12357 0.09133,0.18343 0.067538,0.12664 0.099542,0.19724 0.123257,0.27246 0.025327,0.0798 0.028397,0.10975 0.01535,0.15886 -0.019955,0.0775 -0.054491,0.13278 -0.1341552,0.21183 -0.079281,0.0798 -0.1082146,0.12356 -0.1423675,0.2172 -0.034537,0.0936 -0.059863,0.25326 -0.060631,0.36992 l -2.31e-5,0.0384 -0.4162037,-0.004 c -0.2288624,-0.002 -0.4173553,-0.005 -0.4187366,-0.006 -0.00499,-0.005 0.056026,-0.14813 0.1078308,-0.25327 0.089795,-0.18266 0.1767504,-0.3162 0.2949421,-0.45205 0.050654,-0.0614 0.067538,-0.0829 0.081046,-0.11972 0.025327,-0.0691 0.034537,-0.1228 0.029932,-0.18727 -0.00453,-0.0614 -0.013815,-0.0929 -0.101614,-0.32311 -0.1987004,-0.51881 -0.4495126,-1.04952 -0.7205094,-1.52505 -0.086495,-0.15196 -0.237151,-0.4014 -0.2727621,-0.45205 -0.026862,-0.0384 -0.042979,-0.0691 -0.1479699,-0.26171 -0.1330809,-0.24713 -0.209752,-0.36148 -0.3110591,-0.46509 -0.058328,-0.0614 -0.1333112,-0.11896 -0.1903348,-0.15196 l -0.030699,-0.0154 -0.026862,0.0154 c -0.053724,0.0307 -0.205454,0.10744 -0.2943282,0.14275 -0.2688478,0.10821 -0.561334,0.17038 -0.9219188,0.19647 -0.033769,0.002 -0.082581,0.008 -0.1087509,0.0154 -0.126941,0.0307 -0.3412979,0.0768 -0.4926447,0.0982 -0.09747,0.0154 -0.1175011,0.023 -0.147049,0.0461 -0.055259,0.046 -0.059096,0.0821 -0.026862,0.23945 0.039141,0.19034 0.1093658,0.62243 0.1435953,0.88268 0.014582,0.10821 0.021489,0.14352 0.036839,0.17729 0.020722,0.046 0.056026,0.0798 0.095551,0.0929 0.033769,0.008 0.099926,0.046 0.1360741,0.0691 0.072143,0.046 0.1330041,0.12126 0.1759828,0.20645 l 0.021489,0.046 h 0.1595581 0.1595589 v 0.3776 0.3776 l -0.025327,-0.005 c -0.059863,-0.008 -0.2145094,-0.0537 -0.2834282,-0.0768 -0.3438307,-0.11435 -0.5862773,-0.2878 -0.7472176,-0.53493 -0.042979,-0.0691 -0.078897,-0.13968 -0.1326971,-0.27322 -0.019954,-0.0461 -0.058328,-0.14045 -0.086802,-0.20415 -0.1796669,-0.406 -0.3257949,-0.87055 -0.4637876,-1.47448 -0.064468,-0.2832 -0.044514,-0.38681 0.101691,-0.5334 0.083962,-0.0844 0.1677709,-0.13738 0.4180458,-0.26401 0.3158176,-0.16041 0.655427,-0.28551 1.0354895,-0.38067 0.1008467,-0.023 0.292256,-0.0691 0.365934,-0.0783 0.016117,-0.002 0.029164,-0.006 0.029164,-0.008 0,-0.002 -0.014582,-0.0307 -0.033002,-0.0691 -0.084423,-0.16885 -0.1465118,-0.36763 -0.178055,-0.57024 -0.014582,-0.0921 -0.017652,-0.20799 -0.033002,-1.05152 -0.00729,-0.4014 -0.012279,-0.47354 -0.047584,-0.64852 -0.048351,-0.24329 -0.1429813,-0.49042 -0.2680028,-0.70301 l -0.038374,-0.0614 -0.1068332,0.0537 c -0.059096,0.0307 -0.1316993,0.0614 -0.1620915,0.0768 l -0.055259,0.023 -0.01535,0.0614 c -0.00844,0.0307 -0.048351,0.15964 -0.089181,0.28397 -0.1303947,0.39755 -0.1469723,0.47353 -0.1547238,0.71222 -0.0046,0.14122 -0.00652,0.15964 -0.020722,0.19187 -0.01842,0.0384 -0.067538,0.0906 -0.091637,0.0906 -0.035304,0 -0.1259433,0.0384 -0.1765202,0.0691 -0.1035329,0.0691 -0.1458977,0.0814 -0.2472817,0.0814 -0.2898767,-8e-5 -0.5107572,-0.15964 -0.5109874,-0.36916 -3.07e-5,-0.023 -0.00307,-0.0691 -0.00675,-0.0998 -0.00368,-0.0307 -0.013047,-0.13585 -0.019955,-0.23101 -0.041444,-0.52496 -0.056026,-0.96495 -0.048351,-1.46765 0.00652,-0.44821 -0.00107,-0.67462 -0.030699,-0.90916 l -0.00445,-0.0384 -0.1468187,-0.12357 c -0.080739,-0.0691 -0.2073728,-0.17268 -0.2814346,-0.23178 -0.1161963,-0.0936 -0.1329273,-0.10898 -0.1222594,-0.11512 0.018419,-0.008 0.4997056,-0.008 0.6170531,0.002 0.1181918,0.008 0.3012355,0.0384 0.4038474,0.0614 l 0.077669,0.0154 0.054491,-0.0154 c 0.204303,-0.0614 0.503543,-0.0959 0.7124508,-0.0875 0.54491,0.023 0.9855882,0.20492 1.4350928,0.59557 0.1346925,0.11665 0.3228016,0.30929 0.5842051,0.59786 0.4204249,0.46433 0.6097619,0.64469 0.8596991,0.82197 0.2505052,0.17729 0.5365446,0.30162 0.8221619,0.35611 0.173834,0.0307 0.3114429,0.0461 0.6152878,0.0461 0.4477474,0.008 0.7350915,-0.0154 1.562434,-0.1297 0.7789526,-0.10668 1.1541784,-0.13892 1.5138496,-0.13124 0.3805161,0.008 0.7058504,0.079 1.3671948,0.29548 l 0.183581,0.0614 0.09501,-0.008 c 0.142828,-0.0154 0.481209,-0.008 0.597866,0.008 0.209982,0.0307 0.370923,0.0821 0.529944,0.1604 0.438768,0.2172 0.737701,0.60631 0.932817,1.21315 0.146665,0.45589 0.232469,1.08215 0.257182,1.87618 l 0.0046,0.14736 -0.14206,0.005 c -0.07813,0.002 -0.325872,0.006 -0.550513,0.008 l -0.408529,0.005 -0.0038,-0.55949 c -0.0023,-0.30776 -0.0069,-0.61168 -0.01075,-0.67538 -0.03684,-0.59403 -0.115275,-0.97892 -0.261633,-1.28415 -0.168615,-0.3515 -0.411139,-0.55412 -0.744839,-0.62242 -0.03761,-0.008 -0.07061,-0.0154 -0.07214,-0.008 -0.0015,0.002 0.02226,0.0384 0.05372,0.0768 0.306071,0.38067 0.497864,0.78521 0.5291,1.11645 0.0061,0.0614 0.0077,0.231 0.0069,0.57177 -0.0023,0.59403 0.0046,0.70224 0.05986,0.9707 0.06831,0.32926 0.16048,0.57638 0.288035,0.77087 0.03837,0.0614 0.114124,0.15655 0.327407,0.42364 0.08012,0.10054 0.106986,0.14735 0.122489,0.2126 0.01,0.0384 0.01,0.0614 0.0023,0.15272 -0.01,0.12434 -0.0054,0.29855 0.01,0.39295 0.0061,0.0384 0.02763,0.12587 0.04758,0.20032 0.01995,0.0767 0.07214,0.27475 0.115275,0.4436 0.147356,0.57791 0.216045,0.80416 0.339302,1.11814 0.04221,0.10821 0.04528,0.11742 0.04451,0.16961 -1.15e-4,0.0307 -0.0031,0.0691 -0.0069,0.0852 -0.01765,0.0768 -0.07521,0.15196 -0.145744,0.19187 -0.05679,0.0307 -0.05756,0.0384 -0.05756,0.24176 -1.16e-4,0.0967 -0.0015,0.18649 -0.0038,0.19954 l -0.0038,0.023 -0.368006,-0.002 c -0.202385,-0.002 -0.386886,-0.004 -0.409911,-0.005 l -0.04221,-0.005 0.033,-0.0806 c 0.06524,-0.1581 0.157641,-0.32618 0.248203,-0.44974 0.08465,-0.11589 0.114585,-0.19801 0.114508,-0.31467 -1.07e-4,-0.0691 -0.0038,-0.0913 -0.03223,-0.21029 -0.138223,-0.58098 -0.350661,-1.17225 -0.523881,-1.45767 -0.0637,-0.10515 -0.108675,-0.15964 -0.237919,-0.28857 -0.244135,-0.2433 -0.487579,-0.45128 -0.785069,-0.66925 -0.146205,-0.10744 -0.22042,-0.17191 -0.374223,-0.32541 -0.135921,-0.13584 -0.222646,-0.23638 -0.302157,-0.35073 -0.02456,-0.0384 -0.04758,-0.0614 -0.04989,-0.0614 -0.01305,0 -0.1440556,0.11819 -0.1894904,0.17038 -0.1254828,0.14428 -0.2062216,0.30392 -0.2495074,0.49272 -0.01535,0.0691 -0.019187,0.10284 -0.021489,0.20031 l -0.00307,0.11896 0.034536,0.1865 c 0.019187,0.10284 0.044514,0.23945 0.056794,0.30392 0.019187,0.10207 0.021489,0.1251 0.017652,0.17652 -0.00921,0.11205 -0.038374,0.1581 -0.1564122,0.24713 -0.3288646,0.24713 -0.6210438,0.5334 -0.8591135,0.84208 -0.1595589,0.20645 -0.3178131,0.4789 -0.4309395,0.74061 -0.026862,0.0614 -0.059096,0.13201 -0.07291,0.15657 -0.033769,0.0614 -0.095628,0.12049 -0.1544165,0.14966 -0.031467,0.0154 -0.051421,0.0307 -0.059096,0.0461 -0.00921,0.0153 -0.01535,0.0614 -0.027629,0.21412 l -0.01535,0.19341 -0.091714,4.6e-4 c -0.050654,3.9e-4 -0.2457469,-0.002 -0.4339326,-0.005 z"
       id="path839-5"
       inkscape:connector-curvature="0" />
  </g>
</svg>
