<?xml version="1.0" encoding="UTF-8" standalone="no"?>
<!-- Created with Inkscape (http://www.inkscape.org/) -->

<svg
   xmlns:dc="http://purl.org/dc/elements/1.1/"
   xmlns:cc="http://creativecommons.org/ns#"
   xmlns:rdf="http://www.w3.org/1999/02/22-rdf-syntax-ns#"
   xmlns:svg="http://www.w3.org/2000/svg"
   xmlns="http://www.w3.org/2000/svg"
   xmlns:sodipodi="http://sodipodi.sourceforge.net/DTD/sodipodi-0.dtd"
   xmlns:inkscape="http://www.inkscape.org/namespaces/inkscape"
   width="50"
   height="50"
   viewBox="0 0 13.229166 13.229167"
   version="1.1"
   id="svg1324"
   inkscape:version="0.92.3 (2405546, 2018-03-11)">
  <defs
     id="defs1318" />
  <sodipodi:namedview
     id="base"
     pagecolor="#ffffff"
     bordercolor="#666666"
     borderopacity="1.0"
     inkscape:pageopacity="0.0"
     inkscape:pageshadow="2"
     inkscape:zoom="7.9195959"
     inkscape:cx="39.551751"
     inkscape:cy="33.155078"
     inkscape:document-units="mm"
     inkscape:current-layer="layer1"
     showgrid="false"
     units="px"
     inkscape:window-width="1101"
     inkscape:window-height="1017"
     inkscape:window-x="2731"
     inkscape:window-y="3"
     inkscape:window-maximized="0" />
  <metadata
     id="metadata1321">
    <rdf:RDF>
      <cc:Work
         rdf:about="">
        <dc:format>image/svg+xml</dc:format>
        <dc:type
           rdf:resource="http://purl.org/dc/dcmitype/StillImage" />
        <dc:title></dc:title>
      </cc:Work>
    </rdf:RDF>
  </metadata>
  <g
     inkscape:label="Layer 1"
     inkscape:groupmode="layer"
     id="layer1"
     transform="translate(0,-283.77082)">
    <path
       d="m 4.7488898,294.87667 h 4.3292001 c 0,-0.615 -0.04,-0.738 -1.0631001,-0.738 0.163,-0.488 0.8240001,-1.67 1.1922001,-1.67 0.3260003,0 0.7139993,0.02 0.7139993,0.76 0,0.843 1.4182998,2.2022 1.7622998,1.6474 0.513,-0.826 -0.881,-0.574 -0.881,-2.5669 0,-2.7258 1.5907,-2.3377 1.5907,-3.8694 0,-0.766 -0.212,-0.87 -0.212,-1.4176 0,-0.724 0.638,-0.682 0.514,-1.282 -0.09,-0.415 -0.153,-0.747 -0.203,-1.2487 -0.04,-0.356 -0.05,-0.735 -0.416,-0.72 -0.434,0.02 -0.599,0.782 -1.2739,0.837 -0.672999,0.05 -1.2477988,-0.573 -1.5086991,-0.484 -0.258,0.09 -0.1770002,0.79 -0.02,1.2882 0.2410003,0.783 0.7660001,1.8005 -0.1919999,1.9538 -0.9580002,0.153 -2.6052,0.306 -3.7928,1.8772 -1.1877,1.5708 -1.1440001,3.4143 -1.6091,3.9844 -1.5615004,1.9141 -3.16170042,1.1283 -3.16170042,2.7201 0,0.713 1.20780002,1.226 1.39930002,0.996 0.192,-0.23 -1.62760004,-0.915 0.408,-1.7241 1.7392001,-0.691 1.8943002,-0.832 2.4272001,-0.345 z"
       id="path1891-6"
       inkscape:connector-curvature="0"
       style="fill-rule:evenodd;stroke-width:0.0383116" />
  </g>
</svg>
