<?xml version="1.0" encoding="UTF-8" standalone="no"?>
<!-- Created with Inkscape (http://www.inkscape.org/) -->

<svg
   xmlns:dc="http://purl.org/dc/elements/1.1/"
   xmlns:cc="http://creativecommons.org/ns#"
   xmlns:rdf="http://www.w3.org/1999/02/22-rdf-syntax-ns#"
   xmlns:svg="http://www.w3.org/2000/svg"
   xmlns="http://www.w3.org/2000/svg"
   xmlns:sodipodi="http://sodipodi.sourceforge.net/DTD/sodipodi-0.dtd"
   xmlns:inkscape="http://www.inkscape.org/namespaces/inkscape"
   width="50"
   height="50"
   viewBox="0 0 13.229166 13.229167"
   version="1.1"
   id="svg1324"
   inkscape:version="0.92.3 (2405546, 2018-03-11)"
   sodipodi:docname="size6.svg">
  <defs
     id="defs1318" />
  <sodipodi:namedview
     id="base"
     pagecolor="#ffffff"
     bordercolor="#666666"
     borderopacity="1.0"
     inkscape:pageopacity="0.0"
     inkscape:pageshadow="2"
     inkscape:zoom="9.5901357"
     inkscape:cx="53.402684"
     inkscape:cy="18.877414"
     inkscape:document-units="mm"
     inkscape:current-layer="layer1"
     showgrid="false"
     units="px"
     inkscape:window-width="1920"
     inkscape:window-height="1017"
     inkscape:window-x="1912"
     inkscape:window-y="-5"
     inkscape:window-maximized="1"
     showguides="false" />
  <metadata
     id="metadata1321">
    <rdf:RDF>
      <cc:Work
         rdf:about="">
        <dc:format>image/svg+xml</dc:format>
        <dc:type
           rdf:resource="http://purl.org/dc/dcmitype/StillImage" />
        <dc:title />
      </cc:Work>
    </rdf:RDF>
  </metadata>
  <g
     inkscape:label="Layer 1"
     inkscape:groupmode="layer"
     id="layer1"
     transform="translate(0,-283.77082)">
    <path
       style="fill:#000000;stroke-width:0.01116482"
       d="m 3.965301,285.66012 c 0.3052731,-0.0746 0.7543391,-0.63862 0.8034208,-0.65416 -6.309e-4,0.41654 -0.391606,0.54398 -0.7499393,0.64384 0.023308,0.0714 -0.06414,-0.0154 -0.053482,0.0103 z m -2.0387815,1.68324 c -0.2852878,-0.0697 -0.2312291,-0.60159 -0.079037,-0.14247 0.5172035,0.19056 0.8025195,-0.45244 1.2970227,-0.45129 0.7297639,0.008 -0.4337344,0.18002 -0.5843939,0.4042 -0.1934779,0.11574 -0.3965153,0.23224 -0.6335918,0.18956 z m -0.1819465,2.68347 c -0.4935423,-0.3153 -0.76103419,-0.89752 -0.678837,-1.48014 0.2613343,-0.59434 -0.35893644,-1.14025 -0.90849725,-0.8687 -0.18582602,-0.15273 0.19998606,-0.51355 0.4416785,-0.39317 -0.2413186,-0.22073 -0.76128998,0.0917 -0.36615916,-0.32503 0.16070289,-0.25115 0.93749491,0.27993 0.40760783,-0.10696 -0.32859812,-0.18775 0.40783718,-0.221 0.47662248,0.0668 0.5899623,0.36972 0.4229524,1.15386 0.6894679,1.71068 0.024321,0.55111 0.7322107,0.38721 0.9053997,0.44255 -0.3589848,0.2825 -0.1250917,1.14814 -0.7387996,0.86338 -0.082422,0.0563 -0.1950593,0.10439 -0.2284834,0.0906 z m 3.5718983,-4.95635 c -0.4868185,0.46101 -1.1668425,0.61153 -1.791104,0.78801 -0.2575151,0.51615 -1.024964,0.18269 -1.110526,0.80421 0.010959,0.38103 1.2597897,-0.34853 0.9994267,0.21364 -0.1519811,0.24545 -0.8073875,0.20711 -0.7666807,0.45661 0.1404935,0.43191 0.6007202,-0.33805 0.9859041,-0.13892 0.7207767,-0.11996 0.3888592,0.76223 0.029021,0.98451 -0.5919304,0.53349 -1.1949798,1.18267 -1.211188,2.0301 0.236417,0.48559 0.9519596,-0.32191 1.0217727,-0.26269 -0.3027765,0.46226 -0.660155,0.68933 -1.2241388,0.45804 -0.3775302,-0.14882 -0.7790422,-0.19936 -1.1694372,-0.2781 -0.12420808,-0.30039 -0.79014807,-0.40724 -0.74207416,-0.16149 0.32549901,0.0698 0.48494419,0.41691 0.0356567,0.18204 -0.31703172,-0.0841 -0.53648515,0.5251 -0.11782223,0.25812 0.712366,0.14588 -0.36667152,0.19862 -0.006718,0.63696 0.20170505,-0.45721 0.77600309,0.0915 1.07435259,-0.1812 0.4209039,-0.21572 0.659831,0.41184 1.0593673,0.46911 0.4546421,0.021 0.5946464,0.50429 0.9523985,0.71364 0.4909938,0.3585 1.0682429,0.60648 1.6681166,0.7153 -0.0023,-0.16442 0.4276806,-0.70529 0.1780307,-0.22371 -0.2817007,0.71145 0.1800985,1.48574 0.8219082,1.80811 0.6464424,0.12237 0.5374638,1.36184 -0.157096,0.9216 -0.3544999,-0.25103 -0.7084649,0.89527 -0.1532654,0.38612 0.2542774,0.41217 1.0829749,-0.0886 1.2789368,0.0709 -0.2623643,-0.47688 0.3184676,-1.11691 0.036385,-1.50435 -0.4608694,-0.0328 -0.5268811,-1.05754 -0.1429988,-0.88171 0.3971643,0.90935 0.9106507,1.87541 1.8489012,2.32461 0.9188031,0.42344 2.2334347,0.0776 2.5677607,-0.94999 0.255242,-0.73846 -0.02159,-1.72178 -0.818378,-1.9852 -0.6406448,-0.27572 -1.5033116,0.11829 -1.5646314,0.85425 -0.058512,0.34403 0.3623306,-0.47374 0.6256718,-0.39853 0.7002956,0.0606 -0.4055543,-0.33112 0.1648487,-0.32012 0.5509149,-0.12154 1.1607459,0.17886 1.3167109,0.73947 0.265811,0.64871 -0.07765,1.45684 -0.751969,1.67029 -0.7770165,0.28997 -1.6844499,-0.12386 -2.0411548,-0.85398 -0.5198535,-0.94369 -0.5704448,-2.21959 -1.5440907,-2.85556 -0.184702,-0.14296 -0.765114,-0.3703 -0.197401,-0.2072 0.323063,0.0491 0.66746,0.47161 0.7751406,-0.0246 0.3209675,-0.42273 0.9128497,-0.41836 1.3883514,-0.38416 -0.1830923,-0.42359 -0.4844142,-0.94084 -0.6219911,-1.30369 0.1897873,0.27142 0.3816025,0.54077 0.5736113,0.81008 0.1163944,-0.67726 0.8767058,-0.88293 1.4681293,-0.86791 0.689416,0.0977 -0.3623695,-0.48406 -0.4914728,-0.70336 -0.2268432,-0.20601 -0.9692047,-0.84235 -0.3410631,-0.37703 0.3399015,0.25075 0.6932037,0.48351 1.0340569,0.7332 -0.04392,-0.58561 0.365578,-1.12123 0.919335,-1.27957 0.287196,-0.16416 1.317299,-0.1221 0.520381,-0.3203 -0.699718,-0.22873 -1.396214,-0.46794 -2.0960252,-0.69579 0.7766302,0.18795 1.5558242,0.4204 2.3322542,0.59417 -0.267858,-0.59271 0.252985,-1.15203 0.782824,-1.33757 0.268807,-0.0951 0.5406,-0.18388 0.05944,-0.2015 -0.88823,-0.12667 -1.776267,-0.24866 -2.664445,-0.3746 1.037992,0.0579 2.080277,0.20141 3.112472,0.2605 -0.488222,-0.13482 -1.125472,-0.22174 -1.692987,-0.31935 -0.698716,-0.0673 -1.41548,-0.32723 -2.1129901,-0.15235 -1.0471416,0.32555 -2.0671858,0.75003 -3.0220385,1.29209 0.5142749,0.16011 0.3196255,0.85102 0.2429693,1.25784 -0.079364,0.65948 -0.6438791,1.10853 -1.1679779,1.44094 -0.4202077,0.37093 -0.7479491,-0.0943 -0.4061756,-0.48218 0.2469564,-0.50611 0.6579245,-1.13739 0.3443887,-1.69619 0.6176584,0.15943 -0.3243448,-0.72459 -0.095833,-0.67995 0.5245568,-0.0974 -0.9355841,-0.52052 -0.1126682,-0.4659 -0.1337884,-0.28985 -0.9638513,-0.14883 -0.3353852,-0.38624 0.2113599,-0.14803 0.3949115,-0.36336 0.4532082,-0.61953 z m 3.0525267,0.94465 c -0.3985836,0.2439 -0.8122162,0.4621 -1.2040582,0.7166 -0.101538,0.67176 -0.1231966,1.39558 -0.4511666,2.00299 -0.330415,0.46767 -0.8247825,0.7966 -1.350274,1.00511 0.00784,-0.0863 0.5132111,-0.30225 0.6769593,-0.4714 0.5870783,-0.36809 0.8200825,-1.03111 0.8763563,-1.68814 0.2263127,-0.42422 -0.4056845,-0.98712 0.2558738,-1.0589 0.3982123,-0.16541 0.7932288,-0.3614 1.1963094,-0.50626 z m -4.6281411,0.0444 c -0.2422157,0.35579 -0.5703522,0.0671 0,0 z m -0.8295026,9.7622 c -0.1958539,-0.10413 -0.3583027,-0.27595 -0.5402773,-0.004 -0.014862,-0.50244 0.3614147,-0.68172 0.7341724,-0.43394 0.4882947,-0.15922 0.8972049,-0.785 0.7308302,-1.30931 -0.2529405,-0.50874 -0.3471587,-1.09803 -0.106869,-1.63207 0.3805717,0.22825 0.8140433,0.34202 1.2361269,0.47017 0.169684,0.45102 -0.6427926,1.03045 0.021834,1.31845 -0.1891373,0.50368 -0.6784164,0.76833 -1.0392667,1.12277 -0.061576,0.33234 0.1292451,0.54156 -0.2610576,0.32686 -0.260307,0.0303 -0.5260106,0.1753 -0.7754931,0.14137 z"
       id="path996-0"
       inkscape:connector-curvature="0" />
  </g>
</svg>
