<?xml version="1.0" encoding="UTF-8" standalone="no"?>
<!-- Created with Inkscape (http://www.inkscape.org/) -->

<svg
   xmlns:dc="http://purl.org/dc/elements/1.1/"
   xmlns:cc="http://creativecommons.org/ns#"
   xmlns:rdf="http://www.w3.org/1999/02/22-rdf-syntax-ns#"
   xmlns:svg="http://www.w3.org/2000/svg"
   xmlns="http://www.w3.org/2000/svg"
   xmlns:sodipodi="http://sodipodi.sourceforge.net/DTD/sodipodi-0.dtd"
   xmlns:inkscape="http://www.inkscape.org/namespaces/inkscape"
   width="48"
   height="48"
   viewBox="0 0 12.7 12.7"
   version="1.1"
   id="svg833"
   inkscape:version="0.92.3 (2405546, 2018-03-11)"
   sodipodi:docname="sword.svg">
  <defs
     id="defs827" />
  <sodipodi:namedview
     id="base"
     pagecolor="#ffffff"
     bordercolor="#666666"
     borderopacity="1.0"
     inkscape:pageopacity="0.0"
     inkscape:pageshadow="2"
     inkscape:zoom="7.919596"
     inkscape:cx="9.7132584"
     inkscape:cy="25.250833"
     inkscape:document-units="mm"
     inkscape:current-layer="layer1"
     showgrid="false"
     units="px"
     inkscape:window-width="1920"
     inkscape:window-height="1017"
     inkscape:window-x="1912"
     inkscape:window-y="-5"
     inkscape:window-maximized="1" />
  <metadata
     id="metadata830">
    <rdf:RDF>
      <cc:Work
         rdf:about="">
        <dc:format>image/svg+xml</dc:format>
        <dc:type
           rdf:resource="http://purl.org/dc/dcmitype/StillImage" />
        <dc:title></dc:title>
      </cc:Work>
    </rdf:RDF>
  </metadata>
  <g
     inkscape:label="Layer 1"
     inkscape:groupmode="layer"
     id="layer1"
     transform="translate(0,-284.3)">
    <path
       style="fill:#000000;stroke-width:0.04151549"
       d="M 0.28366372,296.91866 C 0.11053212,296.82896 3.18e-6,296.66092 3.18e-6,296.48741 c 0,-0.17362 0.10447704,-0.28657 0.31459264,-0.34006 0.1217219,-0.031 0.1804095,-0.0693 0.1897686,-0.12393 0.00755,-0.0442 0.057531,-0.0882 0.1129792,-0.0998 0.1171635,-0.0244 0.88552058,-0.78961 0.84659418,-0.84313 -0.014664,-0.0202 0.011243,-0.0642 0.057531,-0.0979 0.081871,-0.0597 0.081217,-0.0662 -0.023939,-0.24021 -0.1266003,-0.20951 -0.1194494,-0.43149 0.019939,-0.61855 l 0.087845,-0.11791 0.1237997,0.0827 c 0.068771,0.046 0.1397576,0.0678 0.1597153,0.0492 0.1163066,-0.10888 3.0263569,-3.35173 3.0452037,-3.39347 0.013462,-0.0297 -0.930553,-0.93691 -2.2805686,-2.19165 -1.2669203,-1.1775 -2.34303408,-2.17768 -2.39136518,-2.22262 -0.077932,-0.0725 -0.095548,-0.19093 -0.1556191,-1.04656 -0.0372736,-0.53068 -0.058674,-0.97255 -0.047625,-0.98194 0.0110405,-0.009 0.5199568,0.0817 1.13090998,0.20251 l 1.1108288,0.21957 2.0072087,2.22181 c 1.1039656,1.22199 2.0201559,2.22554 2.0359869,2.2301 0.015814,0.004 0.9346928,-0.99523 2.0419297,-2.22175 l 2.0131503,-2.23003 1.111149,-0.21965 c 0.611129,-0.1208 1.11965,-0.2124 1.130044,-0.20357 0.01041,0.009 -0.01092,0.45076 -0.04731,0.98206 -0.06406,0.93466 -0.06978,0.96924 -0.1765,1.0667 -0.992236,0.90612 -4.670117,4.34652 -4.670117,4.36857 0,0.0244 2.941115,3.30678 3.064381,3.41992 0.02051,0.0189 0.09118,-0.003 0.160433,-0.0492 l 0.1238,-0.0827 0.08195,0.11 c 0.140386,0.18842 0.149962,0.42097 0.02578,0.62646 -0.105168,0.17406 -0.105822,0.18064 -0.02394,0.24021 0.04629,0.0337 0.07172,0.0784 0.05645,0.0993 -0.03943,0.0542 0.728796,0.81674 0.848017,0.84166 0.05512,0.0115 0.105093,0.0558 0.11263,0.0998 0.0093,0.0546 0.06805,0.0929 0.189771,0.12393 0.210114,0.0534 0.31459,0.16644 0.31459,0.34006 0,0.28589 -0.270009,0.50584 -0.621284,0.5061 -0.262361,1.7e-4 -0.414533,-0.12555 -0.414533,-0.34255 0,-0.12931 -0.01485,-0.15482 -0.09007,-0.15482 -0.04953,0 -0.09316,-0.0215 -0.09693,-0.0479 -0.0038,-0.0263 -0.0091,-0.0674 -0.01194,-0.0914 -0.0063,-0.055 -0.786008,-0.85573 -0.828186,-0.85058 -0.09768,0.0118 -0.143826,-0.0137 -0.143826,-0.0798 0,-0.0703 -0.0091,-0.0714 -0.156178,-0.0191 -0.298762,0.10608 -0.5964802,0.0665 -0.8238172,-0.10946 l -0.101804,-0.0788 0.10865,-0.0982 0.108647,-0.0982 -1.6101547,-1.49066 c -0.8855837,-0.81986 -1.6306464,-1.49646 -1.6556909,-1.50355 -0.025082,-0.007 -0.6811894,0.57759 -1.4580927,1.2993 -0.7769033,0.72171 -1.5121184,1.40254 -1.6338098,1.51295 l -0.2212646,0.20075 0.1212715,0.0811 c 0.1176088,0.0786 0.1188212,0.0834 0.040197,0.15718 -0.1948062,0.18292 -0.5444424,0.23553 -0.8483164,0.12763 -0.1471151,-0.0523 -0.1561778,-0.0511 -0.1561778,0.0191 0,0.0661 -0.046164,0.0918 -0.1438335,0.0798 -0.042164,-0.006 -0.8218156,0.79557 -0.8281859,0.85058 -0.00254,0.0239 -0.00813,0.0651 -0.01187,0.0914 -0.00381,0.0263 -0.047371,0.0479 -0.096932,0.0479 -0.07523,0 -0.090068,0.0255 -0.090068,0.15482 0,0.30902 -0.39861588,0.45089 -0.75215688,0.2677 z"
       id="path4528"
       inkscape:connector-curvature="0"
       inkscape:export-filename="C:\Users\kubar\sword_ready.png"
       inkscape:export-xdpi="360.0007"
       inkscape:export-ydpi="360.0007" />
  </g>
</svg>
