<?xml version="1.0" encoding="UTF-8" standalone="no"?>
<!-- Created with Inkscape (http://www.inkscape.org/) -->

<svg
   xmlns:dc="http://purl.org/dc/elements/1.1/"
   xmlns:cc="http://creativecommons.org/ns#"
   xmlns:rdf="http://www.w3.org/1999/02/22-rdf-syntax-ns#"
   xmlns:svg="http://www.w3.org/2000/svg"
   xmlns="http://www.w3.org/2000/svg"
   xmlns:sodipodi="http://sodipodi.sourceforge.net/DTD/sodipodi-0.dtd"
   xmlns:inkscape="http://www.inkscape.org/namespaces/inkscape"
   width="50"
   height="50"
   viewBox="0 0 13.229167 13.229167"
   version="1.1"
   id="svg3760"
   inkscape:version="0.92.3 (2405546, 2018-03-11)">
  <defs
     id="defs3754" />
  <sodipodi:namedview
     id="base"
     pagecolor="#ffffff"
     bordercolor="#666666"
     borderopacity="1.0"
     inkscape:pageopacity="0.0"
     inkscape:pageshadow="2"
     inkscape:zoom="4.746875"
     inkscape:cx="10.697425"
     inkscape:cy="24.127314"
     inkscape:document-units="mm"
     inkscape:current-layer="layer1"
     showgrid="false"
     units="px"
     inkscape:window-width="1920"
     inkscape:window-height="1017"
     inkscape:window-x="1912"
     inkscape:window-y="-5"
     inkscape:window-maximized="1" />
  <metadata
     id="metadata3757">
    <rdf:RDF>
      <cc:Work
         rdf:about="">
        <dc:format>image/svg+xml</dc:format>
        <dc:type
           rdf:resource="http://purl.org/dc/dcmitype/StillImage" />
        <dc:title></dc:title>
      </cc:Work>
    </rdf:RDF>
  </metadata>
  <g
     inkscape:label="Layer 1"
     inkscape:groupmode="layer"
     id="layer1"
     transform="translate(0,-283.77082)">
    <path
       id="path48"
       style="fill:#000000;stroke-width:0.06745207"
       d="m 0.00427143,295.39784 v -0.81433 l 0.6576589,0.0193 0.65765627,0.0193 v 0.7757 0.77569 l -0.65765627,0.0193 -0.6576589,0.0193 z m 1.73254977,0.76574 c -0.0254,-0.0254 -0.046249,-0.38701 -0.046249,-0.80349 0,-0.62828 0.018177,-0.76421 0.1066958,-0.79818 0.1608958,-0.0617 2.7470233,-0.0471 2.8466495,0.0161 0.064206,0.0407 0.081666,0.25438 0.067456,0.82526 l -0.019182,0.77028 -1.4545601,0.0182 c -0.8000047,0.01 -1.4753722,-0.003 -1.5008093,-0.0281 z m 3.367794,-0.0617 c -0.022781,-0.0594 -0.041436,-0.40532 -0.041436,-0.76873 0,-0.47889 0.025559,-0.68196 0.092906,-0.73785 0.064773,-0.0538 0.5192107,-0.0716 1.5008067,-0.0589 l 1.407901,0.0183 v 0.80942 0.80943 l -1.459365,0.0181 c -1.2866107,0.016 -1.4642785,0.005 -1.5008121,-0.0898 z m 3.4278177,0.0168 c -0.01871,-0.0488 -0.02535,-0.42059 -0.01474,-0.82628 l 0.01926,-0.73764 1.445389,-0.0182 c 1.1112901,-0.014 1.4579581,0.002 1.4997731,0.0675 0.08868,0.13971 0.06792,1.43001 -0.02447,1.52242 -0.12174,0.12174 -2.8783181,0.11447 -2.9252021,-0.008 z m 3.3883701,0.0437 c -0.08262,-0.0826 -0.05055,-1.47387 0.03598,-1.5604 0.05069,-0.0507 0.302784,-0.0809 0.674518,-0.0809 h 0.593582 v 0.84315 0.84315 h -0.629552 c -0.346258,0 -0.649793,-0.0202 -0.674524,-0.045 z M 0.03398143,294.16382 c -0.018997,-0.0495 -0.02585,-0.4219 -0.01524,-0.82761 l 0.019262,-0.73763 H 1.5219508 3.0058929 v 0.80942 0.80943 l -1.4686889,0.0182 c -1.17477377,0.0145 -1.47560497,2.1e-4 -1.50321697,-0.0718 z m 3.42383537,0.006 c -0.092408,-0.0924 -0.113165,-1.38271 -0.0245,-1.52242 0.041817,-0.0659 0.3884904,-0.0815 1.4997774,-0.0675 l 1.4453867,0.0183 0.01918,0.77029 c 0.01421,0.57087 -0.0033,0.78451 -0.06745,0.82525 -0.144941,0.092 -2.7784449,0.07 -2.8724011,-0.0239 z m 3.4434281,0.0363 c -0.06084,-0.0246 -0.08431,-0.25816 -0.08431,-0.83912 v -0.8051 l 1.500806,0.0181 1.500807,0.0182 0.01921,0.73222 c 0.01265,0.48206 -0.0075,0.76436 -0.05885,0.82629 -0.06232,0.0751 -0.351933,0.093 -1.435711,0.0887 -0.746705,-0.003 -1.395587,-0.0206 -1.441961,-0.0394 z m 3.3179121,-0.11034 c -0.01905,-0.0496 -0.0259,-0.40685 -0.01524,-0.79388 l 0.01934,-0.70369 h 1.483945 1.483944 v 0.7757 0.7757 l -1.468694,0.0182 c -1.176573,0.0146 -1.475576,2.5e-4 -1.503301,-0.072 z M 0.00429783,291.40844 v -0.8456 h 0.5988103 c 0.42985527,0 0.62083417,0.0265 0.67687557,0.0941 0.051393,0.0619 0.071498,0.34423 0.058846,0.82629 l -0.019209,0.73223 -0.65765617,0.0193 -0.6576616,0.0193 z m 1.71600547,0.75337 c -0.018997,-0.0495 -0.02585,-0.42191 -0.01524,-0.82761 l 0.019262,-0.73763 h 1.4839473 1.4839448 v 0.80942 0.80943 l -1.4686942,0.0182 c -1.1747711,0.0145 -1.4755997,2e-4 -1.503217,-0.0718 z m 3.4251397,0.008 c -0.093623,-0.0936 -0.1154377,-1.38247 -0.025797,-1.52372 0.041812,-0.0659 0.3884849,-0.0815 1.4997719,-0.0675 l 1.445387,0.0182 v 0.80942 0.80943 l -1.418566,0.0181 c -1.046583,0.0134 -1.4401324,-0.003 -1.5008093,-0.0641 z m 3.3870159,-0.009 c -0.01871,-0.0488 -0.02535,-0.42059 -0.01474,-0.82629 l 0.01926,-0.73764 h 1.4839451 1.483948 l 0.01921,0.73223 c 0.01265,0.48206 -0.0075,0.76436 -0.05885,0.82629 -0.111075,0.13383 -2.8815401,0.13895 -2.9327851,0.005 z m 3.3725171,-0.0677 c -0.01876,-0.0489 -0.0254,-0.40553 -0.01474,-0.79256 l 0.01934,-0.70369 0.657656,-0.0193 0.657659,-0.0193 v 0.81186 0.81187 H 12.58198 c -0.469699,0 -0.652097,-0.024 -0.677013,-0.0889 z m -11.88595667,-2.66009 0.018997,-0.79257 H 1.5219611 3.0059058 l 0.018997,0.79257 0.018997,0.79256 H 1.5219478 -4.2666667e-6 Z M 3.406014,290.1367 c -0.018759,-0.0489 -0.0254,-0.40553 -0.014737,-0.79256 l 0.019394,-0.70369 1.5008066,-0.0181 1.5008093,-0.0181 v 0.81071 0.81072 H 4.9262252 c -1.1672914,0 -1.4933798,-0.0191 -1.5201689,-0.0889 z m 3.4109419,-0.72055 v -0.812 l 1.50081,0.0181 1.500806,0.0181 v 0.7757 0.7757 l -1.500806,0.0182 -1.50081,0.0181 z m 3.3873261,0.0169 0.019,-0.79256 h 1.483945 1.483944 l 0.019,0.79256 0.019,0.79256 h -1.52195 -1.521955 z M 0.00429783,287.39259 v -0.81433 l 0.657659,0.0193 0.65765617,0.0193 v 0.7757 0.7757 l -0.65765617,0.0193 -0.657659,0.0193 z m 1.73254727,0.76574 c -0.0254,-0.0254 -0.046247,-0.38701 -0.046247,-0.80349 0,-0.62828 0.018177,-0.76421 0.1066959,-0.79818 0.1608958,-0.0617 2.7470232,-0.0471 2.8466494,0.0161 0.064201,0.0407 0.081666,0.25438 0.067456,0.82525 l -0.019182,0.77029 -1.4545601,0.0182 c -0.8000074,0.01 -1.4753723,-0.003 -1.5008093,-0.0281 z m 3.3677965,-0.0617 c -0.022781,-0.0594 -0.041439,-0.40533 -0.041439,-0.76874 0,-0.47889 0.025559,-0.68196 0.092906,-0.73785 0.064775,-0.0537 0.5192133,-0.0716 1.5008093,-0.0588 l 1.407901,0.0183 v 0.80943 0.80942 l -1.459368,0.0182 c -1.2866077,0.016 -1.4642754,0.005 -1.5008091,-0.0898 z m 3.4278173,0.0167 c -0.01871,-0.0487 -0.02535,-0.42058 -0.01474,-0.82628 l 0.01926,-0.73764 1.44539,-0.0182 c 1.1112931,-0.014 1.4579581,0.002 1.4997751,0.0675 0.08868,0.13971 0.06792,1.43001 -0.0245,1.52242 -0.121738,0.12174 -2.8783161,0.11448 -2.9252001,-0.008 z m 3.3883711,0.0437 c -0.08262,-0.0826 -0.05055,-1.47387 0.03597,-1.5604 0.05069,-0.0507 0.302786,-0.0809 0.67452,-0.0809 h 0.593577 v 0.84315 0.84315 h -0.629549 c -0.346255,0 -0.649791,-0.0203 -0.674521,-0.045 z M 0.03400533,286.15856 c -0.018997,-0.0495 -0.02585,-0.4219 -0.01524,-0.8276 l 0.019262,-0.73764 H 1.521972 3.0059168 v 0.80942 0.80943 l -1.4686915,0.0182 c -1.17477377,0.0145 -1.47560237,2e-4 -1.50321697,-0.0718 z m 3.42383787,0.006 c -0.092408,-0.0924 -0.1131649,-1.38271 -0.0245,-1.52242 0.04182,-0.0659 0.3884877,-0.0815 1.49978,-0.0675 l 1.4453867,0.0182 0.01918,0.77028 c 0.01418,0.57088 -0.0032,0.78452 -0.06746,0.82526 -0.144941,0.092 -2.7784448,0.07 -2.872401,-0.0239 z m 3.4434277,0.0363 c -0.06084,-0.0245 -0.08432,-0.25815 -0.08432,-0.83911 v -0.8051 l 1.500809,0.0181 1.500807,0.0182 0.01921,0.73222 c 0.01265,0.48206 -0.0075,0.76436 -0.05885,0.82629 -0.06232,0.0751 -0.351936,0.093 -1.435711,0.0887 -0.746705,-0.003 -1.39559,-0.0206 -1.441964,-0.0394 z m 3.3179101,-0.11033 c -0.01905,-0.0496 -0.0259,-0.40686 -0.01524,-0.79389 l 0.01937,-0.70368 h 1.483942 1.483948 v 0.7757 0.7757 l -1.468697,0.0182 c -1.176573,0.0146 -1.475574,2.5e-4 -1.503302,-0.072 z"
       inkscape:connector-curvature="0" />
  </g>
</svg>
